<?xml version="1.0" encoding="utf-8" standalone="no"?>
<!DOCTYPE svg PUBLIC "-//W3C//DTD SVG 1.1//EN"
  "http://www.w3.org/Graphics/SVG/1.1/DTD/svg11.dtd">
<!-- Created with matplotlib (https://matplotlib.org/) -->
<svg height="504pt" version="1.1" viewBox="0 0 792 504" width="792pt" xmlns="http://www.w3.org/2000/svg" xmlns:xlink="http://www.w3.org/1999/xlink">
 <defs>
  <style type="text/css">
*{stroke-linecap:butt;stroke-linejoin:round;}
  </style>
 </defs>
 <g id="figure_1">
  <g id="patch_1">
   <path d="M 0 504 
L 792 504 
L 792 0 
L 0 0 
z
" style="fill:#ffffff;"/>
  </g>
  <g id="axes_1">
   <g id="patch_2">
    <path d="M 99 448.56 
L 590.04 448.56 
L 590.04 60.48 
L 99 60.48 
z
" style="fill:#eaeaf2;"/>
   </g>
   <g id="matplotlib.axis_1">
    <g id="xtick_1">
     <g id="text_1">
      <!-- 0.00 -->
      <defs>
       <path d="M 31.78125 66.40625 
Q 24.171875 66.40625 20.328125 58.90625 
Q 16.5 51.421875 16.5 36.375 
Q 16.5 21.390625 20.328125 13.890625 
Q 24.171875 6.390625 31.78125 6.390625 
Q 39.453125 6.390625 43.28125 13.890625 
Q 47.125 21.390625 47.125 36.375 
Q 47.125 51.421875 43.28125 58.90625 
Q 39.453125 66.40625 31.78125 66.40625 
z
M 31.78125 74.21875 
Q 44.046875 74.21875 50.515625 64.515625 
Q 56.984375 54.828125 56.984375 36.375 
Q 56.984375 17.96875 50.515625 8.265625 
Q 44.046875 -1.421875 31.78125 -1.421875 
Q 19.53125 -1.421875 13.0625 8.265625 
Q 6.59375 17.96875 6.59375 36.375 
Q 6.59375 54.828125 13.0625 64.515625 
Q 19.53125 74.21875 31.78125 74.21875 
z
" id="DejaVuSans-48"/>
       <path d="M 10.6875 12.40625 
L 21 12.40625 
L 21 0 
L 10.6875 0 
z
" id="DejaVuSans-46"/>
      </defs>
      <g style="fill:#262626;" transform="translate(80.630859 473.597422)scale(0.165 -0.165)">
       <use xlink:href="#DejaVuSans-48"/>
       <use x="63.623047" xlink:href="#DejaVuSans-46"/>
       <use x="95.410156" xlink:href="#DejaVuSans-48"/>
       <use x="159.033203" xlink:href="#DejaVuSans-48"/>
      </g>
     </g>
    </g>
    <g id="xtick_2">
     <g id="text_2">
      <!-- 0.25 -->
      <defs>
       <path d="M 19.1875 8.296875 
L 53.609375 8.296875 
L 53.609375 0 
L 7.328125 0 
L 7.328125 8.296875 
Q 12.9375 14.109375 22.625 23.890625 
Q 32.328125 33.6875 34.8125 36.53125 
Q 39.546875 41.84375 41.421875 45.53125 
Q 43.3125 49.21875 43.3125 52.78125 
Q 43.3125 58.59375 39.234375 62.25 
Q 35.15625 65.921875 28.609375 65.921875 
Q 23.96875 65.921875 18.8125 64.3125 
Q 13.671875 62.703125 7.8125 59.421875 
L 7.8125 69.390625 
Q 13.765625 71.78125 18.9375 73 
Q 24.125 74.21875 28.421875 74.21875 
Q 39.75 74.21875 46.484375 68.546875 
Q 53.21875 62.890625 53.21875 53.421875 
Q 53.21875 48.921875 51.53125 44.890625 
Q 49.859375 40.875 45.40625 35.40625 
Q 44.1875 33.984375 37.640625 27.21875 
Q 31.109375 20.453125 19.1875 8.296875 
z
" id="DejaVuSans-50"/>
       <path d="M 10.796875 72.90625 
L 49.515625 72.90625 
L 49.515625 64.59375 
L 19.828125 64.59375 
L 19.828125 46.734375 
Q 21.96875 47.46875 24.109375 47.828125 
Q 26.265625 48.1875 28.421875 48.1875 
Q 40.625 48.1875 47.75 41.5 
Q 54.890625 34.8125 54.890625 23.390625 
Q 54.890625 11.625 47.5625 5.09375 
Q 40.234375 -1.421875 26.90625 -1.421875 
Q 22.3125 -1.421875 17.546875 -0.640625 
Q 12.796875 0.140625 7.71875 1.703125 
L 7.71875 11.625 
Q 12.109375 9.234375 16.796875 8.0625 
Q 21.484375 6.890625 26.703125 6.890625 
Q 35.15625 6.890625 40.078125 11.328125 
Q 45.015625 15.765625 45.015625 23.390625 
Q 45.015625 31 40.078125 35.4375 
Q 35.15625 39.890625 26.703125 39.890625 
Q 22.75 39.890625 18.8125 39.015625 
Q 14.890625 38.140625 10.796875 36.28125 
z
" id="DejaVuSans-53"/>
      </defs>
      <g style="fill:#262626;" transform="translate(142.010859 473.597422)scale(0.165 -0.165)">
       <use xlink:href="#DejaVuSans-48"/>
       <use x="63.623047" xlink:href="#DejaVuSans-46"/>
       <use x="95.410156" xlink:href="#DejaVuSans-50"/>
       <use x="159.033203" xlink:href="#DejaVuSans-53"/>
      </g>
     </g>
    </g>
    <g id="xtick_3">
     <g id="text_3">
      <!-- 0.50 -->
      <g style="fill:#262626;" transform="translate(203.390859 473.597422)scale(0.165 -0.165)">
       <use xlink:href="#DejaVuSans-48"/>
       <use x="63.623047" xlink:href="#DejaVuSans-46"/>
       <use x="95.410156" xlink:href="#DejaVuSans-53"/>
       <use x="159.033203" xlink:href="#DejaVuSans-48"/>
      </g>
     </g>
    </g>
    <g id="xtick_4">
     <g id="text_4">
      <!-- 0.75 -->
      <defs>
       <path d="M 8.203125 72.90625 
L 55.078125 72.90625 
L 55.078125 68.703125 
L 28.609375 0 
L 18.3125 0 
L 43.21875 64.59375 
L 8.203125 64.59375 
z
" id="DejaVuSans-55"/>
      </defs>
      <g style="fill:#262626;" transform="translate(264.770859 473.597422)scale(0.165 -0.165)">
       <use xlink:href="#DejaVuSans-48"/>
       <use x="63.623047" xlink:href="#DejaVuSans-46"/>
       <use x="95.410156" xlink:href="#DejaVuSans-55"/>
       <use x="159.033203" xlink:href="#DejaVuSans-53"/>
      </g>
     </g>
    </g>
    <g id="xtick_5">
     <g id="text_5">
      <!-- 1.00 -->
      <defs>
       <path d="M 12.40625 8.296875 
L 28.515625 8.296875 
L 28.515625 63.921875 
L 10.984375 60.40625 
L 10.984375 69.390625 
L 28.421875 72.90625 
L 38.28125 72.90625 
L 38.28125 8.296875 
L 54.390625 8.296875 
L 54.390625 0 
L 12.40625 0 
z
" id="DejaVuSans-49"/>
      </defs>
      <g style="fill:#262626;" transform="translate(326.150859 473.597422)scale(0.165 -0.165)">
       <use xlink:href="#DejaVuSans-49"/>
       <use x="63.623047" xlink:href="#DejaVuSans-46"/>
       <use x="95.410156" xlink:href="#DejaVuSans-48"/>
       <use x="159.033203" xlink:href="#DejaVuSans-48"/>
      </g>
     </g>
    </g>
    <g id="xtick_6">
     <g id="text_6">
      <!-- 1.25 -->
      <g style="fill:#262626;" transform="translate(387.530859 473.597422)scale(0.165 -0.165)">
       <use xlink:href="#DejaVuSans-49"/>
       <use x="63.623047" xlink:href="#DejaVuSans-46"/>
       <use x="95.410156" xlink:href="#DejaVuSans-50"/>
       <use x="159.033203" xlink:href="#DejaVuSans-53"/>
      </g>
     </g>
    </g>
    <g id="xtick_7">
     <g id="text_7">
      <!-- 1.50 -->
      <g style="fill:#262626;" transform="translate(448.910859 473.597422)scale(0.165 -0.165)">
       <use xlink:href="#DejaVuSans-49"/>
       <use x="63.623047" xlink:href="#DejaVuSans-46"/>
       <use x="95.410156" xlink:href="#DejaVuSans-53"/>
       <use x="159.033203" xlink:href="#DejaVuSans-48"/>
      </g>
     </g>
    </g>
    <g id="xtick_8">
     <g id="text_8">
      <!-- 1.75 -->
      <g style="fill:#262626;" transform="translate(510.290859 473.597422)scale(0.165 -0.165)">
       <use xlink:href="#DejaVuSans-49"/>
       <use x="63.623047" xlink:href="#DejaVuSans-46"/>
       <use x="95.410156" xlink:href="#DejaVuSans-55"/>
       <use x="159.033203" xlink:href="#DejaVuSans-53"/>
      </g>
     </g>
    </g>
    <g id="xtick_9">
     <g id="text_9">
      <!-- 2.00 -->
      <g style="fill:#262626;" transform="translate(571.670859 473.597422)scale(0.165 -0.165)">
       <use xlink:href="#DejaVuSans-50"/>
       <use x="63.623047" xlink:href="#DejaVuSans-46"/>
       <use x="95.410156" xlink:href="#DejaVuSans-48"/>
       <use x="159.033203" xlink:href="#DejaVuSans-48"/>
      </g>
     </g>
    </g>
    <g id="text_10">
     <!-- x -->
     <defs>
      <path d="M 54.890625 54.6875 
L 35.109375 28.078125 
L 55.90625 0 
L 45.3125 0 
L 29.390625 21.484375 
L 13.484375 0 
L 2.875 0 
L 24.125 28.609375 
L 4.6875 54.6875 
L 15.28125 54.6875 
L 29.78125 35.203125 
L 44.28125 54.6875 
z
" id="DejaVuSans-120"/>
     </defs>
     <g style="fill:#262626;" transform="translate(339.193125 494.706094)scale(0.18 -0.18)">
      <use xlink:href="#DejaVuSans-120"/>
     </g>
    </g>
   </g>
   <g id="matplotlib.axis_2">
    <g id="ytick_1">
     <g id="text_11">
      <!-- 0.00 -->
      <g style="fill:#262626;" transform="translate(49.761719 454.828711)scale(0.165 -0.165)">
       <use xlink:href="#DejaVuSans-48"/>
       <use x="63.623047" xlink:href="#DejaVuSans-46"/>
       <use x="95.410156" xlink:href="#DejaVuSans-48"/>
       <use x="159.033203" xlink:href="#DejaVuSans-48"/>
      </g>
     </g>
    </g>
    <g id="ytick_2">
     <g id="text_12">
      <!-- 0.25 -->
      <g style="fill:#262626;" transform="translate(49.761719 406.318711)scale(0.165 -0.165)">
       <use xlink:href="#DejaVuSans-48"/>
       <use x="63.623047" xlink:href="#DejaVuSans-46"/>
       <use x="95.410156" xlink:href="#DejaVuSans-50"/>
       <use x="159.033203" xlink:href="#DejaVuSans-53"/>
      </g>
     </g>
    </g>
    <g id="ytick_3">
     <g id="text_13">
      <!-- 0.50 -->
      <g style="fill:#262626;" transform="translate(49.761719 357.808711)scale(0.165 -0.165)">
       <use xlink:href="#DejaVuSans-48"/>
       <use x="63.623047" xlink:href="#DejaVuSans-46"/>
       <use x="95.410156" xlink:href="#DejaVuSans-53"/>
       <use x="159.033203" xlink:href="#DejaVuSans-48"/>
      </g>
     </g>
    </g>
    <g id="ytick_4">
     <g id="text_14">
      <!-- 0.75 -->
      <g style="fill:#262626;" transform="translate(49.761719 309.298711)scale(0.165 -0.165)">
       <use xlink:href="#DejaVuSans-48"/>
       <use x="63.623047" xlink:href="#DejaVuSans-46"/>
       <use x="95.410156" xlink:href="#DejaVuSans-55"/>
       <use x="159.033203" xlink:href="#DejaVuSans-53"/>
      </g>
     </g>
    </g>
    <g id="ytick_5">
     <g id="text_15">
      <!-- 1.00 -->
      <g style="fill:#262626;" transform="translate(49.761719 260.788711)scale(0.165 -0.165)">
       <use xlink:href="#DejaVuSans-49"/>
       <use x="63.623047" xlink:href="#DejaVuSans-46"/>
       <use x="95.410156" xlink:href="#DejaVuSans-48"/>
       <use x="159.033203" xlink:href="#DejaVuSans-48"/>
      </g>
     </g>
    </g>
    <g id="ytick_6">
     <g id="text_16">
      <!-- 1.25 -->
      <g style="fill:#262626;" transform="translate(49.761719 212.278711)scale(0.165 -0.165)">
       <use xlink:href="#DejaVuSans-49"/>
       <use x="63.623047" xlink:href="#DejaVuSans-46"/>
       <use x="95.410156" xlink:href="#DejaVuSans-50"/>
       <use x="159.033203" xlink:href="#DejaVuSans-53"/>
      </g>
     </g>
    </g>
    <g id="ytick_7">
     <g id="text_17">
      <!-- 1.50 -->
      <g style="fill:#262626;" transform="translate(49.761719 163.768711)scale(0.165 -0.165)">
       <use xlink:href="#DejaVuSans-49"/>
       <use x="63.623047" xlink:href="#DejaVuSans-46"/>
       <use x="95.410156" xlink:href="#DejaVuSans-53"/>
       <use x="159.033203" xlink:href="#DejaVuSans-48"/>
      </g>
     </g>
    </g>
    <g id="ytick_8">
     <g id="text_18">
      <!-- 1.75 -->
      <g style="fill:#262626;" transform="translate(49.761719 115.258711)scale(0.165 -0.165)">
       <use xlink:href="#DejaVuSans-49"/>
       <use x="63.623047" xlink:href="#DejaVuSans-46"/>
       <use x="95.410156" xlink:href="#DejaVuSans-55"/>
       <use x="159.033203" xlink:href="#DejaVuSans-53"/>
      </g>
     </g>
    </g>
    <g id="ytick_9">
     <g id="text_19">
      <!-- 2.00 -->
      <g style="fill:#262626;" transform="translate(49.761719 66.748711)scale(0.165 -0.165)">
       <use xlink:href="#DejaVuSans-50"/>
       <use x="63.623047" xlink:href="#DejaVuSans-46"/>
       <use x="95.410156" xlink:href="#DejaVuSans-48"/>
       <use x="159.033203" xlink:href="#DejaVuSans-48"/>
      </g>
     </g>
    </g>
    <g id="text_20">
     <!-- y -->
     <defs>
      <path d="M 32.171875 -5.078125 
Q 28.375 -14.84375 24.75 -17.8125 
Q 21.140625 -20.796875 15.09375 -20.796875 
L 7.90625 -20.796875 
L 7.90625 -13.28125 
L 13.1875 -13.28125 
Q 16.890625 -13.28125 18.9375 -11.515625 
Q 21 -9.765625 23.484375 -3.21875 
L 25.09375 0.875 
L 2.984375 54.6875 
L 12.5 54.6875 
L 29.59375 11.921875 
L 46.6875 54.6875 
L 56.203125 54.6875 
z
" id="DejaVuSans-121"/>
     </defs>
     <g style="fill:#262626;" transform="translate(42.018281 259.846875)rotate(-90)scale(0.18 -0.18)">
      <use xlink:href="#DejaVuSans-121"/>
     </g>
    </g>
   </g>
   <g id="PathCollection_1">
    <path clip-path="url(#p7522e35776)" d="M 124.844211 84.683839 
L 130.831106 80.905263 
L 124.844211 78.333037 
L 99 78.333037 
L 99 80.905263 
L 99 84.683839 
z
" style="fill:#481769;fill-opacity:0.5;"/>
   </g>
   <g id="PathCollection_2">
    <path clip-path="url(#p7522e35776)" d="M 124.844211 93.425822 
L 144.68218 80.905263 
L 124.844211 72.382025 
L 99 72.382025 
L 99 78.333037 
L 124.844211 78.333037 
L 130.831106 80.905263 
L 124.844211 84.683839 
L 99 84.683839 
L 99 93.425822 
z
" style="fill:#424086;fill-opacity:0.5;"/>
   </g>
   <g id="PathCollection_3">
    <path clip-path="url(#p7522e35776)" d="M 124.844211 136.31504 
L 146.424376 121.755789 
L 132.566325 101.330526 
L 150.688421 95.527587 
L 176.532632 87.380716 
L 184.98049 80.905263 
L 176.532632 78.146722 
L 150.688421 73.519871 
L 124.844211 66.431012 
L 99 66.431012 
L 99 72.382025 
L 124.844211 72.382025 
L 144.68218 80.905263 
L 124.844211 93.425822 
L 99 93.425822 
L 99 101.330526 
L 99 121.755789 
L 99 136.31504 
z
" style="fill:#33638d;fill-opacity:0.5;"/>
   </g>
   <g id="PathCollection_4">
    <path clip-path="url(#p7522e35776)" d="M 124.844211 448.56 
L 150.688421 448.56 
L 176.532632 448.56 
L 202.376842 448.56 
L 228.221053 448.56 
L 254.065263 448.56 
L 279.909474 448.56 
L 305.753684 448.56 
L 331.597895 448.56 
L 344.062964 448.56 
L 344.062964 428.134737 
L 344.075558 407.709474 
L 344.096183 387.284211 
L 344.121313 366.858947 
L 344.152215 346.433684 
L 344.181612 326.008421 
L 344.213066 305.583158 
L 344.239344 285.157895 
L 344.26517 264.732632 
L 344.284227 244.307368 
L 344.301305 223.882105 
L 344.310901 203.456842 
L 344.316906 183.031579 
L 344.313855 162.606316 
L 344.303731 142.181053 
L 344.274807 121.755789 
L 344.237923 101.330526 
L 344.097545 80.905263 
L 357.442105 60.48 
L 383.286316 60.48 
L 409.130526 60.48 
L 434.974737 60.48 
L 460.818947 60.48 
L 486.663158 60.48 
L 512.507368 60.48 
L 538.351579 60.48 
L 564.195789 60.48 
L 590.04 60.48 
L 564.195789 60.48 
L 538.351579 60.48 
L 512.507368 60.48 
L 486.663158 60.48 
L 460.818947 60.48 
L 434.974737 60.48 
L 409.130526 60.48 
L 383.286316 60.48 
L 357.442105 60.48 
L 331.597895 60.48 
L 305.753684 60.48 
L 279.909474 60.48 
L 254.065263 60.48 
L 228.221053 60.48 
L 202.376842 60.48 
L 176.532632 60.48 
L 150.688421 60.48 
L 124.844211 60.48 
L 99 60.48 
L 99 66.431012 
L 124.844211 66.431012 
L 150.688421 73.519871 
L 176.532632 78.146722 
L 184.98049 80.905263 
L 176.532632 87.380716 
L 150.688421 95.527587 
L 132.566325 101.330526 
L 146.424376 121.755789 
L 124.844211 136.31504 
L 99 136.31504 
L 99 142.181053 
L 99 162.606316 
L 99 183.031579 
L 99 203.456842 
L 99 223.882105 
L 99 244.307368 
L 99 264.732632 
L 99 285.157895 
L 99 305.583158 
L 99 326.008421 
L 99 346.433684 
L 99 366.858947 
L 99 387.284211 
L 99 407.709474 
L 99 428.134737 
L 99 448.56 
z
" style="fill:#26828e;fill-opacity:0.5;"/>
   </g>
   <g id="PathCollection_5">
    <path clip-path="url(#p7522e35776)" d="M 357.442105 448.56 
L 383.286316 448.56 
L 409.130526 448.56 
L 434.974737 448.56 
L 460.818947 448.56 
L 486.663158 448.56 
L 512.507368 448.56 
L 538.351579 448.56 
L 564.195789 448.56 
L 590.04 448.56 
L 590.04 428.134737 
L 590.04 407.709474 
L 590.04 387.284211 
L 590.04 366.858947 
L 590.04 346.433684 
L 590.04 326.008421 
L 590.04 305.583158 
L 590.04 285.157895 
L 590.04 264.732632 
L 590.04 244.307368 
L 590.04 223.882105 
L 590.04 203.456842 
L 590.04 183.031579 
L 590.04 162.606316 
L 590.04 142.181053 
L 590.04 136.321481 
L 564.195789 136.321481 
L 542.599333 121.755789 
L 556.506601 101.330526 
L 538.351579 95.515753 
L 512.507368 87.428623 
L 503.964441 80.905263 
L 512.507368 78.123018 
L 538.351579 73.524979 
L 564.195789 66.43674 
L 590.04 66.43674 
L 590.04 60.48 
L 564.195789 60.48 
L 538.351579 60.48 
L 512.507368 60.48 
L 486.663158 60.48 
L 460.818947 60.48 
L 434.974737 60.48 
L 409.130526 60.48 
L 383.286316 60.48 
L 357.442105 60.48 
L 344.097545 80.905263 
L 344.237923 101.330526 
L 344.274807 121.755789 
L 344.303731 142.181053 
L 344.313855 162.606316 
L 344.316906 183.031579 
L 344.310901 203.456842 
L 344.301305 223.882105 
L 344.284227 244.307368 
L 344.26517 264.732632 
L 344.239344 285.157895 
L 344.213066 305.583158 
L 344.181612 326.008421 
L 344.152215 346.433684 
L 344.121313 366.858947 
L 344.096183 387.284211 
L 344.075558 407.709474 
L 344.062964 428.134737 
L 344.062964 448.56 
z
" style="fill:#1fa088;fill-opacity:0.5;"/>
   </g>
   <g id="PathCollection_6">
    <path clip-path="url(#p7522e35776)" d="M 564.195789 136.321481 
L 590.04 136.321481 
L 590.04 121.755789 
L 590.04 101.330526 
L 590.04 93.412426 
L 564.195789 93.412426 
L 544.374988 80.905263 
L 564.195789 72.393479 
L 590.04 72.393479 
L 590.04 66.43674 
L 564.195789 66.43674 
L 538.351579 73.524979 
L 512.507368 78.123018 
L 503.964441 80.905263 
L 512.507368 87.428623 
L 538.351579 95.515753 
L 556.506601 101.330526 
L 542.599333 121.755789 
z
" style="fill:#3fbc73;fill-opacity:0.5;"/>
   </g>
   <g id="PathCollection_7">
    <path clip-path="url(#p7522e35776)" d="M 564.195789 93.412426 
L 590.04 93.412426 
L 590.04 84.659629 
L 564.195789 84.659629 
L 558.246035 80.905263 
L 564.195789 78.350219 
L 590.04 78.350219 
L 590.04 72.393479 
L 564.195789 72.393479 
L 544.374988 80.905263 
z
" style="fill:#84d44b;fill-opacity:0.5;"/>
   </g>
   <g id="PathCollection_8">
    <path clip-path="url(#p7522e35776)" d="M 564.195789 84.659629 
L 590.04 84.659629 
L 590.04 80.905263 
L 590.04 78.350219 
L 564.195789 78.350219 
L 558.246035 80.905263 
z
" style="fill:#d8e219;fill-opacity:0.5;"/>
   </g>
   <g id="Quiver_1">
    <path clip-path="url(#p7522e35776)" d="M 100.47312 448.56 
L 99.73656 447.284241 
L 98.26344 447.284241 
L 97.52688 448.56 
L 98.26344 449.835759 
L 99.73656 449.835759 
L 100.47312 448.56 
L 99.73656 447.284241 
" style="fill:#1a1a1a;"/>
    <path clip-path="url(#p7522e35776)" d="M 152.161541 448.56 
L 151.424981 447.284241 
L 149.951861 447.284241 
L 149.215301 448.56 
L 149.951861 449.835759 
L 151.424981 449.835759 
L 152.161541 448.56 
L 151.424981 447.284241 
" style="fill:#1a1a1a;"/>
    <path clip-path="url(#p7522e35776)" d="M 203.849962 448.56 
L 203.113402 447.284241 
L 201.640282 447.284241 
L 200.903722 448.56 
L 201.640282 449.835759 
L 203.113402 449.835759 
L 203.849962 448.56 
L 203.113402 447.284241 
" style="fill:#1a1a1a;"/>
    <path clip-path="url(#p7522e35776)" d="M 255.538383 448.56 
L 254.801823 447.284241 
L 253.328703 447.284241 
L 252.592143 448.56 
L 253.328703 449.835759 
L 254.801823 449.835759 
L 255.538383 448.56 
L 254.801823 447.284241 
" style="fill:#1a1a1a;"/>
    <path clip-path="url(#p7522e35776)" d="M 307.226804 448.56 
L 306.490244 447.284241 
L 305.017124 447.284241 
L 304.280564 448.56 
L 305.017124 449.835759 
L 306.490244 449.835759 
L 307.226804 448.56 
L 306.490244 447.284241 
" style="fill:#1a1a1a;"/>
    <path clip-path="url(#p7522e35776)" d="M 358.915225 448.56 
L 358.178665 447.284241 
L 356.705545 447.284241 
L 355.968985 448.56 
L 356.705545 449.835759 
L 358.178665 449.835759 
L 358.915225 448.56 
L 358.178665 447.284241 
" style="fill:#1a1a1a;"/>
    <path clip-path="url(#p7522e35776)" d="M 410.603646 448.56 
L 409.867086 447.284241 
L 408.393966 447.284241 
L 407.657406 448.56 
L 408.393966 449.835759 
L 409.867086 449.835759 
L 410.603646 448.56 
L 409.867086 447.284241 
" style="fill:#1a1a1a;"/>
    <path clip-path="url(#p7522e35776)" d="M 462.292067 448.56 
L 461.555507 447.284241 
L 460.082387 447.284241 
L 459.345827 448.56 
L 460.082387 449.835759 
L 461.555507 449.835759 
L 462.292067 448.56 
L 461.555507 447.284241 
" style="fill:#1a1a1a;"/>
    <path clip-path="url(#p7522e35776)" d="M 513.980488 448.56 
L 513.243928 447.284241 
L 511.770808 447.284241 
L 511.034248 448.56 
L 511.770808 449.835759 
L 513.243928 449.835759 
L 513.980488 448.56 
L 513.243928 447.284241 
" style="fill:#1a1a1a;"/>
    <path clip-path="url(#p7522e35776)" d="M 565.668909 448.56 
L 564.932349 447.284241 
L 563.459229 447.284241 
L 562.722669 448.56 
L 563.459229 449.835759 
L 564.932349 449.835759 
L 565.668909 448.56 
L 564.932349 447.284241 
" style="fill:#1a1a1a;"/>
    <path clip-path="url(#p7522e35776)" d="M 100.47312 407.709474 
L 99.73656 406.433714 
L 98.26344 406.433714 
L 97.52688 407.709474 
L 98.26344 408.985233 
L 99.73656 408.985233 
L 100.47312 407.709474 
L 99.73656 406.433714 
" style="fill:#1a1a1a;"/>
    <path clip-path="url(#p7522e35776)" d="M 149.614999 406.70059 
L 149.277991 408.134643 
L 150.351413 409.143527 
L 151.761843 408.718358 
L 152.098851 407.284305 
L 151.025429 406.275421 
L 149.614999 406.70059 
L 149.277991 408.134643 
" style="fill:#1a1a1a;"/>
    <path clip-path="url(#p7522e35776)" d="M 201.003196 407.177328 
L 201.229168 408.633014 
L 202.602814 409.165159 
L 203.750488 408.241619 
L 203.524517 406.785934 
L 202.15087 406.253789 
L 201.003196 407.177328 
L 201.229168 408.633014 
" style="fill:#1a1a1a;"/>
    <path clip-path="url(#p7522e35776)" d="M 252.618078 407.43427 
L 253.103337 408.825171 
L 254.550522 409.100375 
L 255.512449 407.984677 
L 255.027189 406.593776 
L 253.580004 406.318573 
L 252.618078 407.43427 
L 253.103337 408.825171 
" style="fill:#1a1a1a;"/>
    <path clip-path="url(#p7522e35776)" d="M 304.284382 407.603487 
L 304.927246 408.928934 
L 306.396548 409.03492 
L 307.222987 407.81546 
L 306.580122 406.490014 
L 305.11082 406.384027 
L 304.284382 407.603487 
L 304.927246 408.928934 
" style="fill:#1a1a1a;"/>
    <path clip-path="url(#p7522e35776)" d="M 355.969409 407.744818 
L 356.736367 409.002538 
L 358.209063 408.967193 
L 358.914801 407.674129 
L 358.147844 406.416409 
L 356.675148 406.451754 
L 355.969409 407.744818 
L 356.736367 409.002538 
" style="fill:#1a1a1a;"/>
    <path clip-path="url(#p7522e35776)" d="M 407.669129 407.894945 
L 408.56045 409.067817 
L 410.021848 408.882346 
L 410.591924 407.524002 
L 409.700602 406.351131 
L 408.239205 406.536602 
L 407.669129 407.894945 
L 408.56045 409.067817 
" style="fill:#1a1a1a;"/>
    <path clip-path="url(#p7522e35776)" d="M 459.397821 408.097393 
L 460.444332 409.134165 
L 461.865459 408.746246 
L 462.240074 407.321554 
L 461.193563 406.284782 
L 459.772436 406.672701 
L 459.397821 408.097393 
L 460.444332 409.134165 
" style="fill:#1a1a1a;"/>
    <path clip-path="url(#p7522e35776)" d="M 511.230716 408.444485 
L 512.505581 409.182593 
L 513.782233 408.447581 
L 513.784021 406.974462 
L 512.509156 406.236355 
L 511.232504 406.971366 
L 511.230716 408.444485 
L 512.505581 409.182593 
" style="fill:#1a1a1a;"/>
    <path clip-path="url(#p7522e35776)" d="M 563.656186 409.080207 
L 565.113078 408.862151 
L 565.652681 407.491417 
L 564.735393 406.33874 
L 563.278501 406.556796 
L 562.738898 407.92753 
L 563.656186 409.080207 
L 565.113078 408.862151 
" style="fill:#1a1a1a;"/>
    <path clip-path="url(#p7522e35776)" d="M 100.47312 366.858947 
L 99.73656 365.583188 
L 98.26344 365.583188 
L 97.52688 366.858947 
L 98.26344 368.134707 
L 99.73656 368.134707 
L 100.47312 366.858947 
L 99.73656 365.583188 
" style="fill:#1a1a1a;"/>
    <path clip-path="url(#p7522e35776)" d="M 149.963837 365.576348 
L 149.215366 366.845156 
L 149.93995 368.127755 
L 151.413005 368.141547 
L 152.161476 366.872739 
L 151.436892 365.59014 
L 149.963837 365.576348 
L 149.215366 366.845156 
" style="fill:#1a1a1a;"/>
    <path clip-path="url(#p7522e35776)" d="M 201.187691 365.989463 
L 201.029271 367.45404 
L 202.218422 368.323524 
L 203.565993 367.728432 
L 203.724413 366.263855 
L 202.535262 365.39437 
L 201.187691 365.989463 
L 201.029271 367.45404 
" style="fill:#1a1a1a;"/>
    <path clip-path="url(#p7522e35776)" d="M 252.67893 366.360786 
L 252.940677 367.810466 
L 254.32701 368.308627 
L 255.451596 367.357108 
L 255.189849 365.907429 
L 253.803517 365.409268 
L 252.67893 366.360786 
L 252.940677 367.810466 
" style="fill:#1a1a1a;"/>
    <path clip-path="url(#p7522e35776)" d="M 304.294094 366.659753 
L 304.851382 368.023393 
L 306.310972 368.222587 
L 307.213275 367.058141 
L 306.655986 365.694502 
L 305.196396 365.495308 
L 304.294094 366.659753 
L 304.851382 368.023393 
" style="fill:#1a1a1a;"/>
    <path clip-path="url(#p7522e35776)" d="M 355.970488 366.925467 
L 356.763904 368.166665 
L 358.235521 368.100146 
L 358.913723 366.792428 
L 358.120306 365.55123 
L 356.648689 365.617749 
L 355.970488 366.925467 
L 356.763904 368.166665 
" style="fill:#1a1a1a;"/>
    <path clip-path="url(#p7522e35776)" d="M 407.697966 367.202244 
L 408.71155 368.27123 
L 410.14411 367.927933 
L 410.563087 366.51565 
L 409.549503 365.446665 
L 408.116942 365.789962 
L 407.697966 367.202244 
L 408.71155 368.27123 
" style="fill:#1a1a1a;"/>
    <path clip-path="url(#p7522e35776)" d="M 459.509442 367.53369 
L 460.748539 368.330384 
L 462.058045 367.655641 
L 462.128453 366.184205 
L 460.889356 365.387511 
L 459.57985 366.062254 
L 459.509442 367.53369 
L 460.748539 368.330384 
" style="fill:#1a1a1a;"/>
    <path clip-path="url(#p7522e35776)" d="M 511.509571 367.942683 
L 512.947012 368.264933 
L 513.94481 367.181198 
L 513.505166 365.775212 
L 512.067725 365.452962 
L 511.069927 366.536697 
L 511.509571 367.942683 
L 512.947012 368.264933 
" style="fill:#1a1a1a;"/>
    <path clip-path="url(#p7522e35776)" d="M 563.893708 368.300762 
L 565.293397 367.841465 
L 565.595478 366.39965 
L 564.497871 365.417133 
L 563.098182 365.87643 
L 562.796101 367.318245 
L 563.893708 368.300762 
L 565.293397 367.841465 
" style="fill:#1a1a1a;"/>
    <path clip-path="url(#p7522e35776)" d="M 100.47312 326.008421 
L 99.73656 324.732662 
L 98.26344 324.732662 
L 97.52688 326.008421 
L 98.26344 327.28418 
L 99.73656 327.28418 
L 100.47312 326.008421 
L 99.73656 324.732662 
" style="fill:#1a1a1a;"/>
    <path clip-path="url(#p7522e35776)" d="M 150.09587 324.65973 
L 149.224145 325.84724 
L 149.816696 327.19593 
L 151.280972 327.357112 
L 152.152697 326.169602 
L 151.560146 324.820912 
L 150.09587 324.65973 
L 149.224145 325.84724 
" style="fill:#1a1a1a;"/>
    <path clip-path="url(#p7522e35776)" d="M 201.305608 324.997214 
L 200.965494 326.430534 
L 202.036728 327.441741 
L 203.448077 327.019628 
L 203.78819 325.586308 
L 202.716956 324.575101 
L 201.305608 324.997214 
L 200.965494 326.430534 
" style="fill:#1a1a1a;"/>
    <path clip-path="url(#p7522e35776)" d="M 252.729398 325.387496 
L 252.859594 326.854852 
L 254.195459 327.475776 
L 255.401128 326.629346 
L 255.270932 325.16199 
L 253.935067 324.541066 
L 252.729398 325.387496 
L 252.859594 326.854852 
" style="fill:#1a1a1a;"/>
    <path clip-path="url(#p7522e35776)" d="M 304.303043 325.752055 
L 304.806344 327.13653 
L 306.256985 327.392896 
L 307.204325 326.264787 
L 306.701024 324.880312 
L 305.250383 324.623946 
L 304.303043 325.752055 
L 304.806344 327.13653 
" style="fill:#1a1a1a;"/>
    <path clip-path="url(#p7522e35776)" d="M 355.971496 326.094397 
L 356.781258 327.324994 
L 358.251867 327.239018 
L 358.912714 325.922445 
L 358.102952 324.691848 
L 356.632343 324.777824 
L 355.971496 326.094397 
L 356.781258 327.324994 
" style="fill:#1a1a1a;"/>
    <path clip-path="url(#p7522e35776)" d="M 407.723485 326.444676 
L 408.804813 327.445082 
L 410.211854 327.008827 
L 410.537567 325.572166 
L 409.456239 324.57176 
L 408.049198 325.008015 
L 407.723485 326.444676 
L 408.804813 327.445082 
" style="fill:#1a1a1a;"/>
    <path clip-path="url(#p7522e35776)" d="M 459.592791 326.824892 
L 460.912954 327.478539 
L 462.13911 326.662068 
L 462.045103 325.191951 
L 460.724941 324.538304 
L 459.498785 325.354774 
L 459.592791 326.824892 
L 460.912954 327.478539 
" style="fill:#1a1a1a;"/>
    <path clip-path="url(#p7522e35776)" d="M 511.651523 327.207425 
L 513.117813 327.349107 
L 513.973659 326.150103 
L 513.363214 324.809417 
L 511.896924 324.667735 
L 511.041078 325.866739 
L 511.651523 327.207425 
L 513.117813 327.349107 
" style="fill:#1a1a1a;"/>
    <path clip-path="url(#p7522e35776)" d="M 563.95808 327.462236 
L 565.335975 326.941191 
L 565.573685 325.487377 
L 564.433499 324.554607 
L 563.055604 325.075651 
L 562.817894 326.529465 
L 563.95808 327.462236 
L 565.335975 326.941191 
" style="fill:#1a1a1a;"/>
    <path clip-path="url(#p7522e35776)" d="M 100.47312 285.157895 
L 99.73656 283.882135 
L 98.26344 283.882135 
L 97.52688 285.157895 
L 98.26344 286.433654 
L 99.73656 286.433654 
L 100.47312 285.157895 
L 99.73656 283.882135 
" style="fill:#1a1a1a;"/>
    <path clip-path="url(#p7522e35776)" d="M 150.129909 283.794756 
L 149.228652 284.960011 
L 149.787164 286.32315 
L 151.246933 286.521033 
L 152.14819 285.355779 
L 151.589678 283.99264 
L 150.129909 283.794756 
L 149.228652 284.960011 
" style="fill:#1a1a1a;"/>
    <path clip-path="url(#p7522e35776)" d="M 201.345089 284.106435 
L 200.950375 285.52569 
L 201.982128 286.577149 
L 203.408596 286.209354 
L 203.80331 284.7901 
L 202.771556 283.73864 
L 201.345089 284.106435 
L 200.950375 285.52569 
" style="fill:#1a1a1a;"/>
    <path clip-path="url(#p7522e35776)" d="M 252.749133 284.496166 
L 252.834124 285.966832 
L 254.150254 286.628561 
L 255.381393 285.819624 
L 255.296402 284.348957 
L 253.980272 283.687229 
L 252.749133 284.496166 
L 252.834124 285.966832 
" style="fill:#1a1a1a;"/>
    <path clip-path="url(#p7522e35776)" d="M 304.306783 284.881203 
L 304.790612 286.272603 
L 306.237513 286.549294 
L 307.200586 285.434586 
L 306.716757 284.043187 
L 305.269855 283.766495 
L 304.306783 284.881203 
L 304.790612 286.272603 
" style="fill:#1a1a1a;"/>
    <path clip-path="url(#p7522e35776)" d="M 355.971921 285.250857 
L 356.787521 286.477592 
L 358.257705 286.38463 
L 358.912289 285.064932 
L 358.096689 283.838197 
L 356.626506 283.931159 
L 355.971921 285.250857 
L 356.787521 286.477592 
" style="fill:#1a1a1a;"/>
    <path clip-path="url(#p7522e35776)" d="M 407.733879 285.626358 
L 408.837904 286.601659 
L 410.234551 286.133195 
L 410.527174 284.689431 
L 409.423149 283.714131 
L 408.026501 284.182594 
L 407.733879 285.626358 
L 408.837904 286.601659 
" style="fill:#1a1a1a;"/>
    <path clip-path="url(#p7522e35776)" d="M 459.623325 286.018458 
L 460.966406 286.623616 
L 462.162029 285.763052 
L 462.01457 284.297331 
L 460.671489 283.692174 
L 459.475866 284.552737 
L 459.623325 286.018458 
L 460.966406 286.623616 
" style="fill:#1a1a1a;"/>
    <path clip-path="url(#p7522e35776)" d="M 511.694123 286.386192 
L 513.164483 286.476334 
L 513.977728 285.248037 
L 513.320613 283.929597 
L 511.850254 283.839455 
L 511.037009 285.067753 
L 511.694123 286.386192 
L 513.164483 286.476334 
" style="fill:#1a1a1a;"/>
    <path clip-path="url(#p7522e35776)" d="M 563.972742 286.614031 
L 565.345317 286.079127 
L 565.568364 284.622991 
L 564.418837 283.701759 
L 563.046262 284.236662 
L 562.823215 285.692798 
L 563.972742 286.614031 
L 565.345317 286.079127 
" style="fill:#1a1a1a;"/>
    <path clip-path="url(#p7522e35776)" d="M 100.47312 244.307368 
L 99.73656 243.031609 
L 98.26344 243.031609 
L 97.52688 244.307368 
L 98.26344 245.583128 
L 99.73656 245.583128 
L 100.47312 244.307368 
L 99.73656 243.031609 
" style="fill:#1a1a1a;"/>
    <path clip-path="url(#p7522e35776)" d="M 150.384571 244.439811 
L 150.252129 244.135961 
L 149.776871 244.704695 
L 149.363999 241.268868 
L 151.599971 243.910042 
L 150.859829 243.871076 
L 150.992271 244.174926 
L 150.384571 244.439811 
" style="fill:#1a1a1a;"/>
    <path clip-path="url(#p7522e35776)" d="M 202.161315 244.529843 
L 201.938841 244.314316 
L 201.730262 244.974791 
L 200.152099 242.152101 
L 203.023422 243.639945 
L 202.369894 243.869367 
L 202.592369 244.084894 
L 202.161315 244.529843 
" style="fill:#1a1a1a;"/>
    <path clip-path="url(#p7522e35776)" d="M 252.735642 243.673185 
L 252.851233 245.141763 
L 254.180855 245.775946 
L 255.394885 244.941552 
L 255.279293 243.472974 
L 253.949672 242.83879 
L 252.735642 243.673185 
L 252.851233 245.141763 
" style="fill:#1a1a1a;"/>
    <path clip-path="url(#p7522e35776)" d="M 304.304014 244.045567 
L 304.802123 245.431919 
L 306.251793 245.69372 
L 307.203354 244.569169 
L 306.705245 243.182818 
L 305.255576 242.921017 
L 304.304014 244.045567 
L 304.802123 245.431919 
" style="fill:#1a1a1a;"/>
    <path clip-path="url(#p7522e35776)" d="M 355.971599 244.395077 
L 356.78281 245.624719 
L 358.253317 245.53701 
L 358.912612 244.219659 
L 358.1014 242.990018 
L 356.630894 243.077727 
L 355.971599 244.395077 
L 356.78281 245.624719 
" style="fill:#1a1a1a;"/>
    <path clip-path="url(#p7522e35776)" d="M 407.726447 244.753064 
L 408.81447 245.746184 
L 410.218549 245.300489 
L 410.534605 243.861673 
L 409.446582 242.868553 
L 408.042503 243.314248 
L 407.726447 244.753064 
L 408.81447 245.746184 
" style="fill:#1a1a1a;"/>
    <path clip-path="url(#p7522e35776)" d="M 460.987858 244.554321 
L 460.740905 244.723232 
L 461.325679 245.048227 
L 458.349419 245.996474 
L 460.312216 243.56651 
L 460.403084 244.229326 
L 460.650037 244.060416 
L 460.987858 244.554321 
" style="fill:#1a1a1a;"/>
    <path clip-path="url(#p7522e35776)" d="M 512.770351 244.490586 
L 512.587133 244.753569 
L 513.296318 244.857022 
L 510.675188 246.937199 
L 511.718419 243.757714 
L 512.061167 244.387133 
L 512.244385 244.12415 
L 512.770351 244.490586 
" style="fill:#1a1a1a;"/>
    <path clip-path="url(#p7522e35776)" d="M 564.523115 244.361015 
L 564.469469 244.68834 
L 565.177766 244.468307 
L 563.659327 247.580623 
L 563.213813 244.14643 
L 563.814818 244.581048 
L 563.868464 244.253722 
L 564.523115 244.361015 
" style="fill:#1a1a1a;"/>
    <path clip-path="url(#p7522e35776)" d="M 100.47312 203.456842 
L 99.73656 202.181083 
L 98.26344 202.181083 
L 97.52688 203.456842 
L 98.26344 204.732601 
L 99.73656 204.732601 
L 100.47312 203.456842 
L 99.73656 202.181083 
" style="fill:#1a1a1a;"/>
    <path clip-path="url(#p7522e35776)" d="M 150.231736 203.700808 
L 149.98777 203.244123 
L 149.318366 204.188741 
L 148.248759 198.889992 
L 152.058476 202.724943 
L 150.90114 202.756191 
L 151.145106 203.212876 
L 150.231736 203.700808 
" style="fill:#1a1a1a;"/>
    <path clip-path="url(#p7522e35776)" d="M 202.098282 203.804722 
L 201.750403 203.526162 
L 201.541163 204.500481 
L 198.898046 200.671246 
L 203.212521 202.413203 
L 202.307522 202.830403 
L 202.655402 203.108962 
L 202.098282 203.804722 
" style="fill:#1a1a1a;"/>
    <path clip-path="url(#p7522e35776)" d="M 253.927131 203.816821 
L 253.567152 203.67869 
L 253.650868 204.53678 
L 250.465471 202.075525 
L 254.479658 202.376905 
L 253.843416 202.958731 
L 254.203395 203.096863 
L 253.927131 203.816821 
" style="fill:#1a1a1a;"/>
    <path clip-path="url(#p7522e35776)" d="M 305.704859 203.803679 
L 305.358022 203.754853 
L 305.607208 204.497352 
L 302.285318 202.968587 
L 305.900161 202.416332 
L 305.455673 203.06118 
L 305.80251 203.110006 
L 305.704859 203.803679 
" style="fill:#1a1a1a;"/>
    <path clip-path="url(#p7522e35776)" d="M 357.457934 203.799521 
L 357.115256 203.81535 
L 357.489593 204.484877 
L 354.015321 203.615134 
L 357.394618 202.428807 
L 357.083598 203.129993 
L 357.426276 203.114164 
L 357.457934 203.799521 
" style="fill:#1a1a1a;"/>
    <path clip-path="url(#p7522e35776)" d="M 409.219309 203.810368 
L 408.865784 203.899151 
L 409.396875 204.517419 
L 405.59527 204.344672 
L 408.864177 202.396265 
L 408.688218 203.192099 
L 409.041743 203.103317 
L 409.219309 203.810368 
" style="fill:#1a1a1a;"/>
    <path clip-path="url(#p7522e35776)" d="M 461.020394 203.817036 
L 460.6602 204.018482 
L 461.423287 204.537423 
L 457.217012 205.471307 
L 460.214608 202.376262 
L 460.257307 203.298095 
L 460.617501 203.096649 
L 461.020394 203.817036 
" style="fill:#1a1a1a;"/>
    <path clip-path="url(#p7522e35776)" d="M 512.876699 203.76456 
L 512.568981 204.133891 
L 513.615361 204.379997 
L 509.430187 207.15015 
L 511.399376 202.533688 
L 511.830319 203.518455 
L 512.138038 203.149124 
L 512.876699 203.76456 
" style="fill:#1a1a1a;"/>
    <path clip-path="url(#p7522e35776)" d="M 564.726123 203.563576 
L 564.619388 204.09391 
L 565.786789 203.777045 
L 563.128447 208.760174 
L 562.60479 203.136639 
L 563.558722 203.880441 
L 563.665456 203.350108 
L 564.726123 203.563576 
" style="fill:#1a1a1a;"/>
    <path clip-path="url(#p7522e35776)" d="M 100.47312 162.606316 
L 99.73656 161.330556 
L 98.26344 161.330556 
L 97.52688 162.606316 
L 98.26344 163.882075 
L 99.73656 163.882075 
L 100.47312 162.606316 
L 99.73656 161.330556 
" style="fill:#1a1a1a;"/>
    <path clip-path="url(#p7522e35776)" d="M 150.033806 163.145801 
L 149.494321 162.491185 
L 148.724576 164.22477 
L 145.293573 156.060165 
L 152.652266 160.987861 
L 150.803551 161.412216 
L 151.343036 162.066831 
L 150.033806 163.145801 
" style="fill:#1a1a1a;"/>
    <path clip-path="url(#p7522e35776)" d="M 202.082174 163.180574 
L 201.507915 162.885906 
L 201.492838 164.329092 
L 196.634256 159.659635 
L 203.260846 160.88354 
L 202.097252 161.737389 
L 202.67151 162.032057 
L 202.082174 163.180574 
" style="fill:#1a1a1a;"/>
    <path clip-path="url(#p7522e35776)" d="M 253.966029 163.090563 
L 253.481782 162.991329 
L 253.767561 164.059056 
L 249.222795 161.613975 
L 254.362965 161.153575 
L 253.68025 162.022835 
L 254.164497 162.122069 
L 253.966029 163.090563 
" style="fill:#1a1a1a;"/>
    <path clip-path="url(#p7522e35776)" d="M 305.730138 163.018086 
L 305.318367 162.994539 
L 305.683044 163.841626 
L 301.635983 162.37085 
L 305.824324 161.371005 
L 305.365461 162.170999 
L 305.777231 162.194546 
L 305.730138 163.018086 
" style="fill:#1a1a1a;"/>
    <path clip-path="url(#p7522e35776)" d="M 357.449018 163.002415 
L 357.052919 163.009329 
L 357.462845 163.794615 
L 353.481109 162.675447 
L 357.421366 161.418017 
L 357.039092 162.217129 
L 357.435192 162.210216 
L 357.449018 163.002415 
" style="fill:#1a1a1a;"/>
    <path clip-path="url(#p7522e35776)" d="M 409.182437 163.048259 
L 408.740494 163.10017 
L 409.286259 163.932145 
L 404.711095 163.125426 
L 408.974793 161.280486 
L 408.636672 162.216284 
L 409.078615 162.164373 
L 409.182437 163.048259 
" style="fill:#1a1a1a;"/>
    <path clip-path="url(#p7522e35776)" d="M 460.996574 163.137124 
L 460.465766 163.314751 
L 461.351827 164.198741 
L 455.510864 164.382583 
L 460.286067 161.013891 
L 460.110512 162.253134 
L 460.641321 162.075507 
L 460.996574 163.137124 
" style="fill:#1a1a1a;"/>
    <path clip-path="url(#p7522e35776)" d="M 512.97697 163.174498 
L 512.408787 163.6441 
L 513.916173 164.310863 
L 506.825543 167.30233 
L 511.098564 160.901768 
L 511.469584 162.507735 
L 512.037767 162.038133 
L 512.97697 163.174498 
" style="fill:#1a1a1a;"/>
    <path clip-path="url(#p7522e35776)" d="M 565.109695 162.879929 
L 564.836082 163.793835 
L 566.937507 163.427156 
L 561.459655 171.745373 
L 561.454072 161.785476 
L 563.00827 163.246608 
L 563.281884 162.332702 
L 565.109695 162.879929 
" style="fill:#1a1a1a;"/>
    <path clip-path="url(#p7522e35776)" d="M 100.47312 121.755789 
L 99.73656 120.48003 
L 98.26344 120.48003 
L 97.52688 121.755789 
L 98.26344 123.031549 
L 99.73656 123.031549 
L 100.47312 121.755789 
L 99.73656 120.48003 
" style="fill:#1a1a1a;"/>
    <path clip-path="url(#p7522e35776)" d="M 150.22977 123.15569 
L 147.40964 122.231727 
L 147.892238 125.490179 
L 135.269186 116.703964 
L 150.644146 117.090776 
L 148.326942 119.431926 
L 151.147072 120.355889 
L 150.22977 123.15569 
" style="fill:#1a1a1a;"/>
    <path clip-path="url(#p7522e35776)" d="M 202.343154 122.717961 
L 201.380983 122.684273 
L 202.275778 124.642303 
L 192.755131 121.41891 
L 202.477906 118.869276 
L 201.448359 120.75993 
L 202.41053 120.793618 
L 202.343154 122.717961 
" style="fill:#1a1a1a;"/>
    <path clip-path="url(#p7522e35776)" d="M 254.14879 122.328748 
L 253.575832 122.412275 
L 254.315843 123.474665 
L 248.33568 122.591057 
L 253.814683 120.036914 
L 253.408778 121.266358 
L 253.981736 121.182831 
L 254.14879 122.328748 
" style="fill:#1a1a1a;"/>
    <path clip-path="url(#p7522e35776)" d="M 305.806038 122.150475 
L 305.411353 122.202829 
L 305.910747 122.939845 
L 301.806833 122.279332 
L 305.596621 120.571734 
L 305.306645 121.413459 
L 305.70133 121.361104 
L 305.806038 122.150475 
" style="fill:#1a1a1a;"/>
    <path clip-path="url(#p7522e35776)" d="M 357.423859 122.11828 
L 357.061369 122.100034 
L 357.387368 122.843261 
L 353.817202 121.573332 
L 357.496843 120.668318 
L 357.097861 121.375053 
L 357.460351 121.393299 
L 357.423859 122.11828 
" style="fill:#1a1a1a;"/>
    <path clip-path="url(#p7522e35776)" d="M 409.053394 122.218308 
L 408.590875 122.141175 
L 408.899128 123.143344 
L 404.505345 120.984462 
L 409.361925 120.368235 
L 408.745141 121.216139 
L 409.207659 121.293271 
L 409.053394 122.218308 
" style="fill:#1a1a1a;"/>
    <path clip-path="url(#p7522e35776)" d="M 460.767058 122.48381 
L 460.039037 122.43192 
L 460.663279 123.939851 
L 453.538742 121.236894 
L 460.974616 119.571728 
L 460.142816 120.975879 
L 460.870837 121.027769 
L 460.767058 122.48381 
" style="fill:#1a1a1a;"/>
    <path clip-path="url(#p7522e35776)" d="M 512.769135 122.890461 
L 511.634463 123.152228 
L 513.292669 125.159805 
L 501.160649 124.373457 
L 511.722068 118.351774 
L 511.11093 120.882884 
L 512.245602 120.621118 
L 512.769135 122.890461 
" style="fill:#1a1a1a;"/>
    <path clip-path="url(#p7522e35776)" d="M 565.371091 122.643905 
L 563.666368 124.899877 
L 566.905087 125.500806 
L 554.49803 134.589476 
L 559.853277 120.172115 
L 561.315765 123.123647 
L 563.020488 120.867674 
L 565.371091 122.643905 
" style="fill:#1a1a1a;"/>
    <path clip-path="url(#p7522e35776)" d="M 100.47312 80.905263 
L 99.73656 79.629504 
L 98.26344 79.629504 
L 97.52688 80.905263 
L 98.26344 82.181023 
L 99.73656 82.181023 
L 100.47312 80.905263 
L 99.73656 79.629504 
" style="fill:#1a1a1a;"/>
    <path clip-path="url(#p7522e35776)" d="M 150.845783 79.440572 
L 367.913872 102.761709 
L 366.763905 99.674965 
L 380.93873 105.642657 
L 365.819734 108.463111 
L 367.599149 105.691091 
L 150.531059 82.369954 
L 150.845783 79.440572 
" style="fill:#1a1a1a;"/>
    <path clip-path="url(#p7522e35776)" d="M 202.449076 79.433915 
L 468.677069 92.504075 
L 467.35019 89.489145 
L 481.846967 94.62553 
L 466.916785 98.317232 
L 468.532601 95.44677 
L 202.304608 82.376611 
L 202.449076 79.433915 
" style="fill:#1a1a1a;"/>
    <path clip-path="url(#p7522e35776)" d="M 254.099036 79.43253 
L 531.712937 85.798886 
L 530.307751 82.819647 
L 544.933759 87.575578 
L 530.105111 91.656044 
L 531.64539 88.744351 
L 254.03149 82.377996 
L 254.099036 79.43253 
" style="fill:#1a1a1a;"/>
    <path clip-path="url(#p7522e35776)" d="M 305.765807 79.432193 
L 586.423977 81.741893 
L 584.975152 78.78363 
L 599.669485 83.324068 
L 584.902415 87.622051 
L 586.399731 84.688034 
L 305.741561 82.378333 
L 305.765807 79.432193 
" style="fill:#1a1a1a;"/>
    <path clip-path="url(#p7522e35776)" d="M 357.438123 79.432149 
L 638.533109 78.67224 
L 637.05203 75.729993 
L 651.795123 80.109513 
L 637.075924 84.568681 
L 638.541074 81.618469 
L 357.446088 82.378378 
L 357.438123 79.432149 
" style="fill:#1a1a1a;"/>
    <path clip-path="url(#p7522e35776)" d="M 409.108693 79.432305 
L 688.720906 75.287741 
L 687.204282 72.363657 
L 701.999363 76.564202 
L 687.33528 81.201406 
L 688.764572 78.233657 
L 409.152359 82.378221 
L 409.108693 79.432305 
" style="fill:#1a1a1a;"/>
    <path clip-path="url(#p7522e35776)" d="M 460.768931 79.432992 
L 734.870678 70.121222 
L 733.298375 67.226697 
L 748.17113 71.14335 
L 733.59847 76.060321 
L 734.970709 73.065763 
L 460.868963 82.377534 
L 460.768931 79.432992 
" style="fill:#1a1a1a;"/>
    <path clip-path="url(#p7522e35776)" d="M 512.402111 79.435908 
L 769.986924 60.983777 
L 768.307054 58.150325 
L 783.316374 61.505814 
L 768.938599 66.966453 
L 770.197439 63.922486 
L 512.612626 82.374618 
L 512.402111 79.435908 
" style="fill:#1a1a1a;"/>
    <path clip-path="url(#p7522e35776)" d="M 563.985056 79.447294 
L 783.463686 47.724059 
L 781.58425 45.018854 
L 796.796141 47.285427 
L 782.848651 53.766669 
L 783.885153 50.639997 
L 564.406523 82.363232 
L 563.985056 79.447294 
" style="fill:#1a1a1a;"/>
   </g>
   <g id="LineCollection_1"/>
   <g id="LineCollection_2">
    <path clip-path="url(#p7522e35776)" d="M 99 78.333037 
L 124.844211 78.333037 
L 130.831106 80.905263 
L 124.844211 84.683839 
L 99 84.683839 
" style="fill:none;stroke:#472d7b;stroke-width:2.25;"/>
   </g>
   <g id="LineCollection_3">
    <path clip-path="url(#p7522e35776)" d="M 99 72.382025 
L 124.844211 72.382025 
L 144.68218 80.905263 
L 124.844211 93.425822 
L 99 93.425822 
" style="fill:none;stroke:#3b528b;stroke-width:2.25;"/>
   </g>
   <g id="LineCollection_4">
    <path clip-path="url(#p7522e35776)" d="M 99 66.431012 
L 124.844211 66.431012 
L 150.688421 73.519871 
L 176.532632 78.146722 
L 184.98049 80.905263 
L 176.532632 87.380716 
L 150.688421 95.527587 
L 132.566325 101.330526 
L 146.424376 121.755789 
L 124.844211 136.31504 
L 99 136.31504 
" style="fill:none;stroke:#2c728e;stroke-width:2.25;"/>
   </g>
   <g id="LineCollection_5">
    <path clip-path="url(#p7522e35776)" d="M 590.04 60.48 
L 564.195789 60.48 
L 538.351579 60.48 
L 512.507368 60.48 
L 486.663158 60.48 
L 460.818947 60.48 
L 434.974737 60.48 
L 409.130526 60.48 
L 383.286316 60.48 
L 357.442105 60.48 
L 344.097545 80.905263 
L 344.237923 101.330526 
L 344.274807 121.755789 
L 344.303731 142.181053 
L 344.313855 162.606316 
L 344.316906 183.031579 
L 344.310901 203.456842 
L 344.301305 223.882105 
L 344.284227 244.307368 
L 344.26517 264.732632 
L 344.239344 285.157895 
L 344.213066 305.583158 
L 344.181612 326.008421 
L 344.152215 346.433684 
L 344.121313 366.858947 
L 344.096183 387.284211 
L 344.075558 407.709474 
L 344.062964 428.134737 
L 344.062964 448.56 
" style="fill:none;stroke:#21918c;stroke-width:2.25;"/>
   </g>
   <g id="LineCollection_6">
    <path clip-path="url(#p7522e35776)" d="M 590.04 66.43674 
L 564.195789 66.43674 
L 538.351579 73.524979 
L 512.507368 78.123018 
L 503.964441 80.905263 
L 512.507368 87.428623 
L 538.351579 95.515753 
L 556.506601 101.330526 
L 542.599333 121.755789 
L 564.195789 136.321481 
L 590.04 136.321481 
" style="fill:none;stroke:#28ae80;stroke-width:2.25;"/>
   </g>
   <g id="LineCollection_7">
    <path clip-path="url(#p7522e35776)" d="M 590.04 72.393479 
L 564.195789 72.393479 
L 544.374988 80.905263 
L 564.195789 93.412426 
L 590.04 93.412426 
" style="fill:none;stroke:#5ec962;stroke-width:2.25;"/>
   </g>
   <g id="LineCollection_8">
    <path clip-path="url(#p7522e35776)" d="M 590.04 78.350219 
L 564.195789 78.350219 
L 558.246035 80.905263 
L 564.195789 84.659629 
L 590.04 84.659629 
" style="fill:none;stroke:#addc30;stroke-width:2.25;"/>
   </g>
   <g id="LineCollection_9"/>
   <g id="patch_3">
    <path d="M 99 448.56 
L 99 60.48 
" style="fill:none;stroke:#ffffff;stroke-linecap:square;stroke-linejoin:miter;stroke-width:1.875;"/>
   </g>
   <g id="patch_4">
    <path d="M 590.04 448.56 
L 590.04 60.48 
" style="fill:none;stroke:#ffffff;stroke-linecap:square;stroke-linejoin:miter;stroke-width:1.875;"/>
   </g>
   <g id="patch_5">
    <path d="M 99 448.56 
L 590.04 448.56 
" style="fill:none;stroke:#ffffff;stroke-linecap:square;stroke-linejoin:miter;stroke-width:1.875;"/>
   </g>
   <g id="patch_6">
    <path d="M 99 60.48 
L 590.04 60.48 
" style="fill:none;stroke:#ffffff;stroke-linecap:square;stroke-linejoin:miter;stroke-width:1.875;"/>
   </g>
   <g id="text_21">
    <!-- Cavity-Flow with Navier-Stokes -->
    <defs>
     <path d="M 64.40625 67.28125 
L 64.40625 56.890625 
Q 59.421875 61.53125 53.78125 63.8125 
Q 48.140625 66.109375 41.796875 66.109375 
Q 29.296875 66.109375 22.65625 58.46875 
Q 16.015625 50.828125 16.015625 36.375 
Q 16.015625 21.96875 22.65625 14.328125 
Q 29.296875 6.6875 41.796875 6.6875 
Q 48.140625 6.6875 53.78125 8.984375 
Q 59.421875 11.28125 64.40625 15.921875 
L 64.40625 5.609375 
Q 59.234375 2.09375 53.4375 0.328125 
Q 47.65625 -1.421875 41.21875 -1.421875 
Q 24.65625 -1.421875 15.125 8.703125 
Q 5.609375 18.84375 5.609375 36.375 
Q 5.609375 53.953125 15.125 64.078125 
Q 24.65625 74.21875 41.21875 74.21875 
Q 47.75 74.21875 53.53125 72.484375 
Q 59.328125 70.75 64.40625 67.28125 
z
" id="DejaVuSans-67"/>
     <path d="M 34.28125 27.484375 
Q 23.390625 27.484375 19.1875 25 
Q 14.984375 22.515625 14.984375 16.5 
Q 14.984375 11.71875 18.140625 8.90625 
Q 21.296875 6.109375 26.703125 6.109375 
Q 34.1875 6.109375 38.703125 11.40625 
Q 43.21875 16.703125 43.21875 25.484375 
L 43.21875 27.484375 
z
M 52.203125 31.203125 
L 52.203125 0 
L 43.21875 0 
L 43.21875 8.296875 
Q 40.140625 3.328125 35.546875 0.953125 
Q 30.953125 -1.421875 24.3125 -1.421875 
Q 15.921875 -1.421875 10.953125 3.296875 
Q 6 8.015625 6 15.921875 
Q 6 25.140625 12.171875 29.828125 
Q 18.359375 34.515625 30.609375 34.515625 
L 43.21875 34.515625 
L 43.21875 35.40625 
Q 43.21875 41.609375 39.140625 45 
Q 35.0625 48.390625 27.6875 48.390625 
Q 23 48.390625 18.546875 47.265625 
Q 14.109375 46.140625 10.015625 43.890625 
L 10.015625 52.203125 
Q 14.9375 54.109375 19.578125 55.046875 
Q 24.21875 56 28.609375 56 
Q 40.484375 56 46.34375 49.84375 
Q 52.203125 43.703125 52.203125 31.203125 
z
" id="DejaVuSans-97"/>
     <path d="M 2.984375 54.6875 
L 12.5 54.6875 
L 29.59375 8.796875 
L 46.6875 54.6875 
L 56.203125 54.6875 
L 35.6875 0 
L 23.484375 0 
z
" id="DejaVuSans-118"/>
     <path d="M 9.421875 54.6875 
L 18.40625 54.6875 
L 18.40625 0 
L 9.421875 0 
z
M 9.421875 75.984375 
L 18.40625 75.984375 
L 18.40625 64.59375 
L 9.421875 64.59375 
z
" id="DejaVuSans-105"/>
     <path d="M 18.3125 70.21875 
L 18.3125 54.6875 
L 36.8125 54.6875 
L 36.8125 47.703125 
L 18.3125 47.703125 
L 18.3125 18.015625 
Q 18.3125 11.328125 20.140625 9.421875 
Q 21.96875 7.515625 27.59375 7.515625 
L 36.8125 7.515625 
L 36.8125 0 
L 27.59375 0 
Q 17.1875 0 13.234375 3.875 
Q 9.28125 7.765625 9.28125 18.015625 
L 9.28125 47.703125 
L 2.6875 47.703125 
L 2.6875 54.6875 
L 9.28125 54.6875 
L 9.28125 70.21875 
z
" id="DejaVuSans-116"/>
     <path d="M 4.890625 31.390625 
L 31.203125 31.390625 
L 31.203125 23.390625 
L 4.890625 23.390625 
z
" id="DejaVuSans-45"/>
     <path d="M 9.8125 72.90625 
L 51.703125 72.90625 
L 51.703125 64.59375 
L 19.671875 64.59375 
L 19.671875 43.109375 
L 48.578125 43.109375 
L 48.578125 34.8125 
L 19.671875 34.8125 
L 19.671875 0 
L 9.8125 0 
z
" id="DejaVuSans-70"/>
     <path d="M 9.421875 75.984375 
L 18.40625 75.984375 
L 18.40625 0 
L 9.421875 0 
z
" id="DejaVuSans-108"/>
     <path d="M 30.609375 48.390625 
Q 23.390625 48.390625 19.1875 42.75 
Q 14.984375 37.109375 14.984375 27.296875 
Q 14.984375 17.484375 19.15625 11.84375 
Q 23.34375 6.203125 30.609375 6.203125 
Q 37.796875 6.203125 41.984375 11.859375 
Q 46.1875 17.53125 46.1875 27.296875 
Q 46.1875 37.015625 41.984375 42.703125 
Q 37.796875 48.390625 30.609375 48.390625 
z
M 30.609375 56 
Q 42.328125 56 49.015625 48.375 
Q 55.71875 40.765625 55.71875 27.296875 
Q 55.71875 13.875 49.015625 6.21875 
Q 42.328125 -1.421875 30.609375 -1.421875 
Q 18.84375 -1.421875 12.171875 6.21875 
Q 5.515625 13.875 5.515625 27.296875 
Q 5.515625 40.765625 12.171875 48.375 
Q 18.84375 56 30.609375 56 
z
" id="DejaVuSans-111"/>
     <path d="M 4.203125 54.6875 
L 13.1875 54.6875 
L 24.421875 12.015625 
L 35.59375 54.6875 
L 46.1875 54.6875 
L 57.421875 12.015625 
L 68.609375 54.6875 
L 77.59375 54.6875 
L 63.28125 0 
L 52.6875 0 
L 40.921875 44.828125 
L 29.109375 0 
L 18.5 0 
z
" id="DejaVuSans-119"/>
     <path id="DejaVuSans-32"/>
     <path d="M 54.890625 33.015625 
L 54.890625 0 
L 45.90625 0 
L 45.90625 32.71875 
Q 45.90625 40.484375 42.875 44.328125 
Q 39.84375 48.1875 33.796875 48.1875 
Q 26.515625 48.1875 22.3125 43.546875 
Q 18.109375 38.921875 18.109375 30.90625 
L 18.109375 0 
L 9.078125 0 
L 9.078125 75.984375 
L 18.109375 75.984375 
L 18.109375 46.1875 
Q 21.34375 51.125 25.703125 53.5625 
Q 30.078125 56 35.796875 56 
Q 45.21875 56 50.046875 50.171875 
Q 54.890625 44.34375 54.890625 33.015625 
z
" id="DejaVuSans-104"/>
     <path d="M 9.8125 72.90625 
L 23.09375 72.90625 
L 55.421875 11.921875 
L 55.421875 72.90625 
L 64.984375 72.90625 
L 64.984375 0 
L 51.703125 0 
L 19.390625 60.984375 
L 19.390625 0 
L 9.8125 0 
z
" id="DejaVuSans-78"/>
     <path d="M 56.203125 29.59375 
L 56.203125 25.203125 
L 14.890625 25.203125 
Q 15.484375 15.921875 20.484375 11.0625 
Q 25.484375 6.203125 34.421875 6.203125 
Q 39.59375 6.203125 44.453125 7.46875 
Q 49.3125 8.734375 54.109375 11.28125 
L 54.109375 2.78125 
Q 49.265625 0.734375 44.1875 -0.34375 
Q 39.109375 -1.421875 33.890625 -1.421875 
Q 20.796875 -1.421875 13.15625 6.1875 
Q 5.515625 13.8125 5.515625 26.8125 
Q 5.515625 40.234375 12.765625 48.109375 
Q 20.015625 56 32.328125 56 
Q 43.359375 56 49.78125 48.890625 
Q 56.203125 41.796875 56.203125 29.59375 
z
M 47.21875 32.234375 
Q 47.125 39.59375 43.09375 43.984375 
Q 39.0625 48.390625 32.421875 48.390625 
Q 24.90625 48.390625 20.390625 44.140625 
Q 15.875 39.890625 15.1875 32.171875 
z
" id="DejaVuSans-101"/>
     <path d="M 41.109375 46.296875 
Q 39.59375 47.171875 37.8125 47.578125 
Q 36.03125 48 33.890625 48 
Q 26.265625 48 22.1875 43.046875 
Q 18.109375 38.09375 18.109375 28.8125 
L 18.109375 0 
L 9.078125 0 
L 9.078125 54.6875 
L 18.109375 54.6875 
L 18.109375 46.1875 
Q 20.953125 51.171875 25.484375 53.578125 
Q 30.03125 56 36.53125 56 
Q 37.453125 56 38.578125 55.875 
Q 39.703125 55.765625 41.0625 55.515625 
z
" id="DejaVuSans-114"/>
     <path d="M 53.515625 70.515625 
L 53.515625 60.890625 
Q 47.90625 63.578125 42.921875 64.890625 
Q 37.9375 66.21875 33.296875 66.21875 
Q 25.25 66.21875 20.875 63.09375 
Q 16.5 59.96875 16.5 54.203125 
Q 16.5 49.359375 19.40625 46.890625 
Q 22.3125 44.4375 30.421875 42.921875 
L 36.375 41.703125 
Q 47.40625 39.59375 52.65625 34.296875 
Q 57.90625 29 57.90625 20.125 
Q 57.90625 9.515625 50.796875 4.046875 
Q 43.703125 -1.421875 29.984375 -1.421875 
Q 24.8125 -1.421875 18.96875 -0.25 
Q 13.140625 0.921875 6.890625 3.21875 
L 6.890625 13.375 
Q 12.890625 10.015625 18.65625 8.296875 
Q 24.421875 6.59375 29.984375 6.59375 
Q 38.421875 6.59375 43.015625 9.90625 
Q 47.609375 13.234375 47.609375 19.390625 
Q 47.609375 24.75 44.3125 27.78125 
Q 41.015625 30.8125 33.5 32.328125 
L 27.484375 33.5 
Q 16.453125 35.6875 11.515625 40.375 
Q 6.59375 45.0625 6.59375 53.421875 
Q 6.59375 63.09375 13.40625 68.65625 
Q 20.21875 74.21875 32.171875 74.21875 
Q 37.3125 74.21875 42.625 73.28125 
Q 47.953125 72.359375 53.515625 70.515625 
z
" id="DejaVuSans-83"/>
     <path d="M 9.078125 75.984375 
L 18.109375 75.984375 
L 18.109375 31.109375 
L 44.921875 54.6875 
L 56.390625 54.6875 
L 27.390625 29.109375 
L 57.625 0 
L 45.90625 0 
L 18.109375 26.703125 
L 18.109375 0 
L 9.078125 0 
z
" id="DejaVuSans-107"/>
     <path d="M 44.28125 53.078125 
L 44.28125 44.578125 
Q 40.484375 46.53125 36.375 47.5 
Q 32.28125 48.484375 27.875 48.484375 
Q 21.1875 48.484375 17.84375 46.4375 
Q 14.5 44.390625 14.5 40.28125 
Q 14.5 37.15625 16.890625 35.375 
Q 19.28125 33.59375 26.515625 31.984375 
L 29.59375 31.296875 
Q 39.15625 29.25 43.1875 25.515625 
Q 47.21875 21.78125 47.21875 15.09375 
Q 47.21875 7.46875 41.1875 3.015625 
Q 35.15625 -1.421875 24.609375 -1.421875 
Q 20.21875 -1.421875 15.453125 -0.5625 
Q 10.6875 0.296875 5.421875 2 
L 5.421875 11.28125 
Q 10.40625 8.6875 15.234375 7.390625 
Q 20.0625 6.109375 24.8125 6.109375 
Q 31.15625 6.109375 34.5625 8.28125 
Q 37.984375 10.453125 37.984375 14.40625 
Q 37.984375 18.0625 35.515625 20.015625 
Q 33.0625 21.96875 24.703125 23.78125 
L 21.578125 24.515625 
Q 13.234375 26.265625 9.515625 29.90625 
Q 5.8125 33.546875 5.8125 39.890625 
Q 5.8125 47.609375 11.28125 51.796875 
Q 16.75 56 26.8125 56 
Q 31.78125 56 36.171875 55.265625 
Q 40.578125 54.546875 44.28125 53.078125 
z
" id="DejaVuSans-115"/>
    </defs>
    <g style="fill:#262626;" transform="translate(204.700781 54.48)scale(0.18 -0.18)">
     <use xlink:href="#DejaVuSans-67"/>
     <use x="69.824219" xlink:href="#DejaVuSans-97"/>
     <use x="131.103516" xlink:href="#DejaVuSans-118"/>
     <use x="190.283203" xlink:href="#DejaVuSans-105"/>
     <use x="218.066406" xlink:href="#DejaVuSans-116"/>
     <use x="257.275391" xlink:href="#DejaVuSans-121"/>
     <use x="316.439453" xlink:href="#DejaVuSans-45"/>
     <use x="352.523438" xlink:href="#DejaVuSans-70"/>
     <use x="410.042969" xlink:href="#DejaVuSans-108"/>
     <use x="437.826172" xlink:href="#DejaVuSans-111"/>
     <use x="499.007812" xlink:href="#DejaVuSans-119"/>
     <use x="580.794922" xlink:href="#DejaVuSans-32"/>
     <use x="612.582031" xlink:href="#DejaVuSans-119"/>
     <use x="694.369141" xlink:href="#DejaVuSans-105"/>
     <use x="722.152344" xlink:href="#DejaVuSans-116"/>
     <use x="761.361328" xlink:href="#DejaVuSans-104"/>
     <use x="824.740234" xlink:href="#DejaVuSans-32"/>
     <use x="856.527344" xlink:href="#DejaVuSans-78"/>
     <use x="931.332031" xlink:href="#DejaVuSans-97"/>
     <use x="992.611328" xlink:href="#DejaVuSans-118"/>
     <use x="1051.791016" xlink:href="#DejaVuSans-105"/>
     <use x="1079.574219" xlink:href="#DejaVuSans-101"/>
     <use x="1141.097656" xlink:href="#DejaVuSans-114"/>
     <use x="1182.117188" xlink:href="#DejaVuSans-45"/>
     <use x="1218.201172" xlink:href="#DejaVuSans-83"/>
     <use x="1281.677734" xlink:href="#DejaVuSans-116"/>
     <use x="1320.886719" xlink:href="#DejaVuSans-111"/>
     <use x="1382.068359" xlink:href="#DejaVuSans-107"/>
     <use x="1439.931641" xlink:href="#DejaVuSans-101"/>
     <use x="1501.455078" xlink:href="#DejaVuSans-115"/>
    </g>
   </g>
   <g id="legend_1">
    <g id="patch_7">
     <path d="M 110.55 440.31 
L 229.342266 440.31 
Q 232.642266 440.31 232.642266 437.01 
L 232.642266 414.441094 
Q 232.642266 411.141094 229.342266 411.141094 
L 110.55 411.141094 
Q 107.25 411.141094 107.25 414.441094 
L 107.25 437.01 
Q 107.25 440.31 110.55 440.31 
z
" style="fill:#eaeaf2;opacity:0.8;stroke:#cccccc;stroke-linejoin:miter;stroke-width:1.5;"/>
    </g>
    <g id="patch_8">
     <path d="M 113.85 430.278516 
L 146.85 430.278516 
L 146.85 418.728516 
L 113.85 418.728516 
z
" style="fill:#1a1a1a;"/>
    </g>
    <g id="text_22">
     <!-- Velocity -->
     <defs>
      <path d="M 28.609375 0 
L 0.78125 72.90625 
L 11.078125 72.90625 
L 34.1875 11.53125 
L 57.328125 72.90625 
L 67.578125 72.90625 
L 39.796875 0 
z
" id="DejaVuSans-86"/>
      <path d="M 48.78125 52.59375 
L 48.78125 44.1875 
Q 44.96875 46.296875 41.140625 47.34375 
Q 37.3125 48.390625 33.40625 48.390625 
Q 24.65625 48.390625 19.8125 42.84375 
Q 14.984375 37.3125 14.984375 27.296875 
Q 14.984375 17.28125 19.8125 11.734375 
Q 24.65625 6.203125 33.40625 6.203125 
Q 37.3125 6.203125 41.140625 7.25 
Q 44.96875 8.296875 48.78125 10.40625 
L 48.78125 2.09375 
Q 45.015625 0.34375 40.984375 -0.53125 
Q 36.96875 -1.421875 32.421875 -1.421875 
Q 20.0625 -1.421875 12.78125 6.34375 
Q 5.515625 14.109375 5.515625 27.296875 
Q 5.515625 40.671875 12.859375 48.328125 
Q 20.21875 56 33.015625 56 
Q 37.15625 56 41.109375 55.140625 
Q 45.0625 54.296875 48.78125 52.59375 
z
" id="DejaVuSans-99"/>
     </defs>
     <g style="fill:#262626;" transform="translate(160.05 430.278516)scale(0.165 -0.165)">
      <use xlink:href="#DejaVuSans-86"/>
      <use x="68.298828" xlink:href="#DejaVuSans-101"/>
      <use x="129.822266" xlink:href="#DejaVuSans-108"/>
      <use x="157.605469" xlink:href="#DejaVuSans-111"/>
      <use x="218.787109" xlink:href="#DejaVuSans-99"/>
      <use x="273.767578" xlink:href="#DejaVuSans-105"/>
      <use x="301.550781" xlink:href="#DejaVuSans-116"/>
      <use x="340.759766" xlink:href="#DejaVuSans-121"/>
     </g>
    </g>
   </g>
  </g>
  <g id="axes_2">
   <g id="patch_9">
    <path clip-path="url(#p7863c4958a)" d="M 620.73 448.56 
L 620.73 400.05 
L 620.73 108.99 
L 620.73 60.48 
L 640.134 60.48 
L 640.134 108.99 
L 640.134 400.05 
L 640.134 448.56 
z
" style="fill:#eaeaf2;stroke:#eaeaf2;stroke-linejoin:miter;stroke-width:0.01;"/>
   </g>
   <g id="matplotlib.axis_3"/>
   <g id="matplotlib.axis_4">
    <g id="ytick_10">
     <g id="line2d_1">
      <defs>
       <path d="M 0 0 
L 9 0 
" id="m954f0a80eb" style="stroke:#262626;stroke-width:1.875;"/>
      </defs>
      <g>
       <use style="fill:#262626;stroke:#262626;stroke-width:1.875;" x="640.134" xlink:href="#m954f0a80eb" y="448.56"/>
      </g>
     </g>
     <g id="text_23">
      <!-- 1.2 -->
      <defs>
       <path d="M 10.59375 35.5 
L 73.1875 35.5 
L 73.1875 27.203125 
L 10.59375 27.203125 
z
" id="DejaVuSans-8722"/>
      </defs>
      <g style="fill:#262626;" transform="translate(652.634 454.828711)scale(0.165 -0.165)">
       <use xlink:href="#DejaVuSans-8722"/>
       <use x="83.789062" xlink:href="#DejaVuSans-49"/>
       <use x="147.412109" xlink:href="#DejaVuSans-46"/>
       <use x="179.199219" xlink:href="#DejaVuSans-50"/>
      </g>
     </g>
    </g>
    <g id="ytick_11">
     <g id="line2d_2">
      <g>
       <use style="fill:#262626;stroke:#262626;stroke-width:1.875;" x="640.134" xlink:href="#m954f0a80eb" y="400.05"/>
      </g>
     </g>
     <g id="text_24">
      <!-- 0.9 -->
      <defs>
       <path d="M 10.984375 1.515625 
L 10.984375 10.5 
Q 14.703125 8.734375 18.5 7.8125 
Q 22.3125 6.890625 25.984375 6.890625 
Q 35.75 6.890625 40.890625 13.453125 
Q 46.046875 20.015625 46.78125 33.40625 
Q 43.953125 29.203125 39.59375 26.953125 
Q 35.25 24.703125 29.984375 24.703125 
Q 19.046875 24.703125 12.671875 31.3125 
Q 6.296875 37.9375 6.296875 49.421875 
Q 6.296875 60.640625 12.9375 67.421875 
Q 19.578125 74.21875 30.609375 74.21875 
Q 43.265625 74.21875 49.921875 64.515625 
Q 56.59375 54.828125 56.59375 36.375 
Q 56.59375 19.140625 48.40625 8.859375 
Q 40.234375 -1.421875 26.421875 -1.421875 
Q 22.703125 -1.421875 18.890625 -0.6875 
Q 15.09375 0.046875 10.984375 1.515625 
z
M 30.609375 32.421875 
Q 37.25 32.421875 41.125 36.953125 
Q 45.015625 41.5 45.015625 49.421875 
Q 45.015625 57.28125 41.125 61.84375 
Q 37.25 66.40625 30.609375 66.40625 
Q 23.96875 66.40625 20.09375 61.84375 
Q 16.21875 57.28125 16.21875 49.421875 
Q 16.21875 41.5 20.09375 36.953125 
Q 23.96875 32.421875 30.609375 32.421875 
z
" id="DejaVuSans-57"/>
      </defs>
      <g style="fill:#262626;" transform="translate(652.634 406.318711)scale(0.165 -0.165)">
       <use xlink:href="#DejaVuSans-8722"/>
       <use x="83.789062" xlink:href="#DejaVuSans-48"/>
       <use x="147.412109" xlink:href="#DejaVuSans-46"/>
       <use x="179.199219" xlink:href="#DejaVuSans-57"/>
      </g>
     </g>
    </g>
    <g id="ytick_12">
     <g id="line2d_3">
      <g>
       <use style="fill:#262626;stroke:#262626;stroke-width:1.875;" x="640.134" xlink:href="#m954f0a80eb" y="351.54"/>
      </g>
     </g>
     <g id="text_25">
      <!-- 0.6 -->
      <defs>
       <path d="M 33.015625 40.375 
Q 26.375 40.375 22.484375 35.828125 
Q 18.609375 31.296875 18.609375 23.390625 
Q 18.609375 15.53125 22.484375 10.953125 
Q 26.375 6.390625 33.015625 6.390625 
Q 39.65625 6.390625 43.53125 10.953125 
Q 47.40625 15.53125 47.40625 23.390625 
Q 47.40625 31.296875 43.53125 35.828125 
Q 39.65625 40.375 33.015625 40.375 
z
M 52.59375 71.296875 
L 52.59375 62.3125 
Q 48.875 64.0625 45.09375 64.984375 
Q 41.3125 65.921875 37.59375 65.921875 
Q 27.828125 65.921875 22.671875 59.328125 
Q 17.53125 52.734375 16.796875 39.40625 
Q 19.671875 43.65625 24.015625 45.921875 
Q 28.375 48.1875 33.59375 48.1875 
Q 44.578125 48.1875 50.953125 41.515625 
Q 57.328125 34.859375 57.328125 23.390625 
Q 57.328125 12.15625 50.6875 5.359375 
Q 44.046875 -1.421875 33.015625 -1.421875 
Q 20.359375 -1.421875 13.671875 8.265625 
Q 6.984375 17.96875 6.984375 36.375 
Q 6.984375 53.65625 15.1875 63.9375 
Q 23.390625 74.21875 37.203125 74.21875 
Q 40.921875 74.21875 44.703125 73.484375 
Q 48.484375 72.75 52.59375 71.296875 
z
" id="DejaVuSans-54"/>
      </defs>
      <g style="fill:#262626;" transform="translate(652.634 357.808711)scale(0.165 -0.165)">
       <use xlink:href="#DejaVuSans-8722"/>
       <use x="83.789062" xlink:href="#DejaVuSans-48"/>
       <use x="147.412109" xlink:href="#DejaVuSans-46"/>
       <use x="179.199219" xlink:href="#DejaVuSans-54"/>
      </g>
     </g>
    </g>
    <g id="ytick_13">
     <g id="line2d_4">
      <g>
       <use style="fill:#262626;stroke:#262626;stroke-width:1.875;" x="640.134" xlink:href="#m954f0a80eb" y="303.03"/>
      </g>
     </g>
     <g id="text_26">
      <!-- 0.3 -->
      <defs>
       <path d="M 40.578125 39.3125 
Q 47.65625 37.796875 51.625 33 
Q 55.609375 28.21875 55.609375 21.1875 
Q 55.609375 10.40625 48.1875 4.484375 
Q 40.765625 -1.421875 27.09375 -1.421875 
Q 22.515625 -1.421875 17.65625 -0.515625 
Q 12.796875 0.390625 7.625 2.203125 
L 7.625 11.71875 
Q 11.71875 9.328125 16.59375 8.109375 
Q 21.484375 6.890625 26.8125 6.890625 
Q 36.078125 6.890625 40.9375 10.546875 
Q 45.796875 14.203125 45.796875 21.1875 
Q 45.796875 27.640625 41.28125 31.265625 
Q 36.765625 34.90625 28.71875 34.90625 
L 20.21875 34.90625 
L 20.21875 43.015625 
L 29.109375 43.015625 
Q 36.375 43.015625 40.234375 45.921875 
Q 44.09375 48.828125 44.09375 54.296875 
Q 44.09375 59.90625 40.109375 62.90625 
Q 36.140625 65.921875 28.71875 65.921875 
Q 24.65625 65.921875 20.015625 65.03125 
Q 15.375 64.15625 9.8125 62.3125 
L 9.8125 71.09375 
Q 15.4375 72.65625 20.34375 73.4375 
Q 25.25 74.21875 29.59375 74.21875 
Q 40.828125 74.21875 47.359375 69.109375 
Q 53.90625 64.015625 53.90625 55.328125 
Q 53.90625 49.265625 50.4375 45.09375 
Q 46.96875 40.921875 40.578125 39.3125 
z
" id="DejaVuSans-51"/>
      </defs>
      <g style="fill:#262626;" transform="translate(652.634 309.298711)scale(0.165 -0.165)">
       <use xlink:href="#DejaVuSans-8722"/>
       <use x="83.789062" xlink:href="#DejaVuSans-48"/>
       <use x="147.412109" xlink:href="#DejaVuSans-46"/>
       <use x="179.199219" xlink:href="#DejaVuSans-51"/>
      </g>
     </g>
    </g>
    <g id="ytick_14">
     <g id="line2d_5">
      <g>
       <use style="fill:#262626;stroke:#262626;stroke-width:1.875;" x="640.134" xlink:href="#m954f0a80eb" y="254.52"/>
      </g>
     </g>
     <g id="text_27">
      <!-- 0.0 -->
      <g style="fill:#262626;" transform="translate(652.634 260.788711)scale(0.165 -0.165)">
       <use xlink:href="#DejaVuSans-48"/>
       <use x="63.623047" xlink:href="#DejaVuSans-46"/>
       <use x="95.410156" xlink:href="#DejaVuSans-48"/>
      </g>
     </g>
    </g>
    <g id="ytick_15">
     <g id="line2d_6">
      <g>
       <use style="fill:#262626;stroke:#262626;stroke-width:1.875;" x="640.134" xlink:href="#m954f0a80eb" y="206.01"/>
      </g>
     </g>
     <g id="text_28">
      <!-- 0.3 -->
      <g style="fill:#262626;" transform="translate(652.634 212.278711)scale(0.165 -0.165)">
       <use xlink:href="#DejaVuSans-48"/>
       <use x="63.623047" xlink:href="#DejaVuSans-46"/>
       <use x="95.410156" xlink:href="#DejaVuSans-51"/>
      </g>
     </g>
    </g>
    <g id="ytick_16">
     <g id="line2d_7">
      <g>
       <use style="fill:#262626;stroke:#262626;stroke-width:1.875;" x="640.134" xlink:href="#m954f0a80eb" y="157.5"/>
      </g>
     </g>
     <g id="text_29">
      <!-- 0.6 -->
      <g style="fill:#262626;" transform="translate(652.634 163.768711)scale(0.165 -0.165)">
       <use xlink:href="#DejaVuSans-48"/>
       <use x="63.623047" xlink:href="#DejaVuSans-46"/>
       <use x="95.410156" xlink:href="#DejaVuSans-54"/>
      </g>
     </g>
    </g>
    <g id="ytick_17">
     <g id="line2d_8">
      <g>
       <use style="fill:#262626;stroke:#262626;stroke-width:1.875;" x="640.134" xlink:href="#m954f0a80eb" y="108.99"/>
      </g>
     </g>
     <g id="text_30">
      <!-- 0.9 -->
      <g style="fill:#262626;" transform="translate(652.634 115.258711)scale(0.165 -0.165)">
       <use xlink:href="#DejaVuSans-48"/>
       <use x="63.623047" xlink:href="#DejaVuSans-46"/>
       <use x="95.410156" xlink:href="#DejaVuSans-57"/>
      </g>
     </g>
    </g>
    <g id="ytick_18">
     <g id="line2d_9">
      <g>
       <use style="fill:#262626;stroke:#262626;stroke-width:1.875;" x="640.134" xlink:href="#m954f0a80eb" y="60.48"/>
      </g>
     </g>
     <g id="text_31">
      <!-- 1.2 -->
      <g style="fill:#262626;" transform="translate(652.634 66.748711)scale(0.165 -0.165)">
       <use xlink:href="#DejaVuSans-49"/>
       <use x="63.623047" xlink:href="#DejaVuSans-46"/>
       <use x="95.410156" xlink:href="#DejaVuSans-50"/>
      </g>
     </g>
    </g>
    <g id="text_32">
     <!-- Pressure -->
     <defs>
      <path d="M 19.671875 64.796875 
L 19.671875 37.40625 
L 32.078125 37.40625 
Q 38.96875 37.40625 42.71875 40.96875 
Q 46.484375 44.53125 46.484375 51.125 
Q 46.484375 57.671875 42.71875 61.234375 
Q 38.96875 64.796875 32.078125 64.796875 
z
M 9.8125 72.90625 
L 32.078125 72.90625 
Q 44.34375 72.90625 50.609375 67.359375 
Q 56.890625 61.8125 56.890625 51.125 
Q 56.890625 40.328125 50.609375 34.8125 
Q 44.34375 29.296875 32.078125 29.296875 
L 19.671875 29.296875 
L 19.671875 0 
L 9.8125 0 
z
" id="DejaVuSans-80"/>
      <path d="M 8.5 21.578125 
L 8.5 54.6875 
L 17.484375 54.6875 
L 17.484375 21.921875 
Q 17.484375 14.15625 20.5 10.265625 
Q 23.53125 6.390625 29.59375 6.390625 
Q 36.859375 6.390625 41.078125 11.03125 
Q 45.3125 15.671875 45.3125 23.6875 
L 45.3125 54.6875 
L 54.296875 54.6875 
L 54.296875 0 
L 45.3125 0 
L 45.3125 8.40625 
Q 42.046875 3.421875 37.71875 1 
Q 33.40625 -1.421875 27.6875 -1.421875 
Q 18.265625 -1.421875 13.375 4.4375 
Q 8.5 10.296875 8.5 21.578125 
z
M 31.109375 56 
z
" id="DejaVuSans-117"/>
     </defs>
     <g style="fill:#262626;" transform="translate(710.377828 293.495625)rotate(-90)scale(0.18 -0.18)">
      <use xlink:href="#DejaVuSans-80"/>
      <use x="60.287109" xlink:href="#DejaVuSans-114"/>
      <use x="101.369141" xlink:href="#DejaVuSans-101"/>
      <use x="162.892578" xlink:href="#DejaVuSans-115"/>
      <use x="214.992188" xlink:href="#DejaVuSans-115"/>
      <use x="267.091797" xlink:href="#DejaVuSans-117"/>
      <use x="330.470703" xlink:href="#DejaVuSans-114"/>
      <use x="371.552734" xlink:href="#DejaVuSans-101"/>
     </g>
    </g>
   </g>
   <g id="QuadMesh_1">
    <path clip-path="url(#p7863c4958a)" d="M 620.73 448.56 
L 640.134 448.56 
L 640.134 400.05 
L 620.73 400.05 
L 620.73 448.56 
" style="fill:#481769;fill-opacity:0.5;"/>
    <path clip-path="url(#p7863c4958a)" d="M 620.73 400.05 
L 640.134 400.05 
L 640.134 351.54 
L 620.73 351.54 
L 620.73 400.05 
" style="fill:#424086;fill-opacity:0.5;"/>
    <path clip-path="url(#p7863c4958a)" d="M 620.73 351.54 
L 640.134 351.54 
L 640.134 303.03 
L 620.73 303.03 
L 620.73 351.54 
" style="fill:#33638d;fill-opacity:0.5;"/>
    <path clip-path="url(#p7863c4958a)" d="M 620.73 303.03 
L 640.134 303.03 
L 640.134 254.52 
L 620.73 254.52 
L 620.73 303.03 
" style="fill:#26828e;fill-opacity:0.5;"/>
    <path clip-path="url(#p7863c4958a)" d="M 620.73 254.52 
L 640.134 254.52 
L 640.134 206.01 
L 620.73 206.01 
L 620.73 254.52 
" style="fill:#1fa088;fill-opacity:0.5;"/>
    <path clip-path="url(#p7863c4958a)" d="M 620.73 206.01 
L 640.134 206.01 
L 640.134 157.5 
L 620.73 157.5 
L 620.73 206.01 
" style="fill:#3fbc73;fill-opacity:0.5;"/>
    <path clip-path="url(#p7863c4958a)" d="M 620.73 157.5 
L 640.134 157.5 
L 640.134 108.99 
L 620.73 108.99 
L 620.73 157.5 
" style="fill:#84d44b;fill-opacity:0.5;"/>
    <path clip-path="url(#p7863c4958a)" d="M 620.73 108.99 
L 640.134 108.99 
L 640.134 60.48 
L 620.73 60.48 
L 620.73 108.99 
" style="fill:#d8e219;fill-opacity:0.5;"/>
   </g>
   <g id="patch_10">
    <path d="M 620.73 448.56 
L 620.73 400.05 
L 620.73 108.99 
L 620.73 60.48 
L 640.134 60.48 
L 640.134 108.99 
L 640.134 400.05 
L 640.134 448.56 
z
" style="fill:none;stroke:#ffffff;stroke-linejoin:miter;stroke-width:1.875;"/>
   </g>
  </g>
 </g>
 <defs>
  <clipPath id="p7522e35776">
   <rect height="388.08" width="491.04" x="99" y="60.48"/>
  </clipPath>
  <clipPath id="p7863c4958a">
   <rect height="388.08" width="19.404" x="620.73" y="60.48"/>
  </clipPath>
 </defs>
</svg>
