<?xml version="1.0" encoding="utf-8" standalone="no"?>
<!DOCTYPE svg PUBLIC "-//W3C//DTD SVG 1.1//EN"
  "http://www.w3.org/Graphics/SVG/1.1/DTD/svg11.dtd">
<!-- Created with matplotlib (https://matplotlib.org/) -->
<svg height="334.08pt" version="1.1" viewBox="0 0 550.8 334.08" width="550.8pt" xmlns="http://www.w3.org/2000/svg" xmlns:xlink="http://www.w3.org/1999/xlink">
 <defs>
  <style type="text/css">
*{stroke-linecap:butt;stroke-linejoin:round;}
  </style>
 </defs>
 <g id="figure_1">
  <g id="patch_1">
   <path d="M 0 334.08 
L 550.8 334.08 
L 550.8 0 
L 0 0 
z
" style="fill:#ffffff;"/>
  </g>
  <g id="patch_2">
   <path d="M 68.85 297.3312 
L 495.72 297.3312 
L 495.72 40.0896 
L 68.85 40.0896 
z
" style="fill:#ffffff;"/>
  </g>
  <g id="pane3d_1">
   <g id="patch_3">
    <path d="M 122.007875 232.606654 
L 272.237624 179.052305 
L 271.481704 57.252962 
L 113.490271 104.630529 
" style="fill:#f2f2f2;opacity:0.5;stroke:#f2f2f2;stroke-linejoin:miter;"/>
   </g>
  </g>
  <g id="pane3d_2">
   <g id="patch_4">
    <path d="M 272.237624 179.052305 
L 451.986295 222.147187 
L 460.283098 95.352554 
L 271.481704 57.252962 
" style="fill:#e6e6e6;opacity:0.5;stroke:#e6e6e6;stroke-linejoin:miter;"/>
   </g>
  </g>
  <g id="pane3d_3">
   <g id="patch_5">
    <path d="M 122.007875 232.606654 
L 305.99055 282.111126 
L 451.986295 222.147187 
L 272.237624 179.052305 
" style="fill:#ececec;opacity:0.5;stroke:#ececec;stroke-linejoin:miter;"/>
   </g>
  </g>
  <g id="axis3d_1">
   <g id="line2d_1">
    <path d="M 122.007875 232.606654 
L 305.99055 282.111126 
" style="fill:none;stroke:#000000;stroke-linecap:square;stroke-width:0.8;"/>
   </g>
   <g id="text_1">
    <!-- x -->
    <defs>
     <path d="M 54.890625 54.6875 
L 35.109375 28.078125 
L 55.90625 0 
L 45.3125 0 
L 29.390625 21.484375 
L 13.484375 0 
L 2.875 0 
L 24.125 28.609375 
L 4.6875 54.6875 
L 15.28125 54.6875 
L 29.78125 35.203125 
L 44.28125 54.6875 
z
" id="DejaVuSans-120"/>
    </defs>
    <g transform="translate(186.514669 285.401368)scale(0.1 -0.1)">
     <use xlink:href="#DejaVuSans-120"/>
    </g>
   </g>
   <g id="Line3DCollection_1">
    <path d="M 133.072662 235.583872 
L 283.087632 181.653603 
L 282.849446 59.54694 
" style="fill:none;stroke:#b0b0b0;stroke-width:0.8;"/>
    <path d="M 173.650272 246.502145 
L 322.833816 191.182781 
L 324.523655 67.956679 
" style="fill:none;stroke:#b0b0b0;stroke-width:0.8;"/>
    <path d="M 215.316359 257.713297 
L 363.574732 200.950447 
L 367.292189 76.587249 
" style="fill:none;stroke:#b0b0b0;stroke-width:0.8;"/>
    <path d="M 258.115316 269.229271 
L 405.348196 210.965667 
L 411.198724 85.447465 
" style="fill:none;stroke:#b0b0b0;stroke-width:0.8;"/>
    <path d="M 302.093982 281.062671 
L 448.193965 221.237973 
L 456.289294 94.546615 
" style="fill:none;stroke:#b0b0b0;stroke-width:0.8;"/>
   </g>
   <g id="xtick_1">
    <g id="line2d_2">
     <path d="M 134.356006 235.12251 
L 130.50166 236.508145 
" style="fill:none;stroke:#000000;stroke-linecap:square;stroke-width:0.8;"/>
    </g>
    <g id="text_2">
     <!-- 0.0 -->
     <defs>
      <path d="M 31.78125 66.40625 
Q 24.171875 66.40625 20.328125 58.90625 
Q 16.5 51.421875 16.5 36.375 
Q 16.5 21.390625 20.328125 13.890625 
Q 24.171875 6.390625 31.78125 6.390625 
Q 39.453125 6.390625 43.28125 13.890625 
Q 47.125 21.390625 47.125 36.375 
Q 47.125 51.421875 43.28125 58.90625 
Q 39.453125 66.40625 31.78125 66.40625 
z
M 31.78125 74.21875 
Q 44.046875 74.21875 50.515625 64.515625 
Q 56.984375 54.828125 56.984375 36.375 
Q 56.984375 17.96875 50.515625 8.265625 
Q 44.046875 -1.421875 31.78125 -1.421875 
Q 19.53125 -1.421875 13.0625 8.265625 
Q 6.59375 17.96875 6.59375 36.375 
Q 6.59375 54.828125 13.0625 64.515625 
Q 19.53125 74.21875 31.78125 74.21875 
z
" id="DejaVuSans-48"/>
      <path d="M 10.6875 12.40625 
L 21 12.40625 
L 21 0 
L 10.6875 0 
z
" id="DejaVuSans-46"/>
     </defs>
     <g transform="translate(115.236708 254.799716)scale(0.1 -0.1)">
      <use xlink:href="#DejaVuSans-48"/>
      <use x="63.623047" xlink:href="#DejaVuSans-46"/>
      <use x="95.410156" xlink:href="#DejaVuSans-48"/>
     </g>
    </g>
   </g>
   <g id="xtick_2">
    <g id="line2d_3">
     <path d="M 174.927598 246.028494 
L 171.091269 247.451059 
" style="fill:none;stroke:#000000;stroke-linecap:square;stroke-width:0.8;"/>
    </g>
    <g id="text_3">
     <!-- 0.5 -->
     <defs>
      <path d="M 10.796875 72.90625 
L 49.515625 72.90625 
L 49.515625 64.59375 
L 19.828125 64.59375 
L 19.828125 46.734375 
Q 21.96875 47.46875 24.109375 47.828125 
Q 26.265625 48.1875 28.421875 48.1875 
Q 40.625 48.1875 47.75 41.5 
Q 54.890625 34.8125 54.890625 23.390625 
Q 54.890625 11.625 47.5625 5.09375 
Q 40.234375 -1.421875 26.90625 -1.421875 
Q 22.3125 -1.421875 17.546875 -0.640625 
Q 12.796875 0.140625 7.71875 1.703125 
L 7.71875 11.625 
Q 12.109375 9.234375 16.796875 8.0625 
Q 21.484375 6.890625 26.703125 6.890625 
Q 35.15625 6.890625 40.078125 11.328125 
Q 45.015625 15.765625 45.015625 23.390625 
Q 45.015625 31 40.078125 35.4375 
Q 35.15625 39.890625 26.703125 39.890625 
Q 22.75 39.890625 18.8125 39.015625 
Q 14.890625 38.140625 10.796875 36.28125 
z
" id="DejaVuSans-53"/>
     </defs>
     <g transform="translate(155.739063 265.886953)scale(0.1 -0.1)">
      <use xlink:href="#DejaVuSans-48"/>
      <use x="63.623047" xlink:href="#DejaVuSans-46"/>
      <use x="95.410156" xlink:href="#DejaVuSans-53"/>
     </g>
    </g>
   </g>
   <g id="xtick_3">
    <g id="line2d_4">
     <path d="M 216.586881 257.226859 
L 212.77093 258.687851 
" style="fill:none;stroke:#000000;stroke-linecap:square;stroke-width:0.8;"/>
    </g>
    <g id="text_4">
     <!-- 1.0 -->
     <defs>
      <path d="M 12.40625 8.296875 
L 28.515625 8.296875 
L 28.515625 63.921875 
L 10.984375 60.40625 
L 10.984375 69.390625 
L 28.421875 72.90625 
L 38.28125 72.90625 
L 38.28125 8.296875 
L 54.390625 8.296875 
L 54.390625 0 
L 12.40625 0 
z
" id="DejaVuSans-49"/>
     </defs>
     <g transform="translate(197.32939 277.272015)scale(0.1 -0.1)">
      <use xlink:href="#DejaVuSans-49"/>
      <use x="63.623047" xlink:href="#DejaVuSans-46"/>
      <use x="95.410156" xlink:href="#DejaVuSans-48"/>
     </g>
    </g>
   </g>
   <g id="xtick_4">
    <g id="line2d_5">
     <path d="M 259.378189 268.729521 
L 255.585152 270.230518 
" style="fill:none;stroke:#000000;stroke-linecap:square;stroke-width:0.8;"/>
    </g>
    <g id="text_5">
     <!-- 1.5 -->
     <g transform="translate(240.052121 288.967064)scale(0.1 -0.1)">
      <use xlink:href="#DejaVuSans-49"/>
      <use x="63.623047" xlink:href="#DejaVuSans-46"/>
      <use x="95.410156" xlink:href="#DejaVuSans-53"/>
     </g>
    </g>
   </g>
   <g id="xtick_5">
    <g id="line2d_6">
     <path d="M 303.3483 280.549056 
L 299.580898 282.091723 
" style="fill:none;stroke:#000000;stroke-linecap:square;stroke-width:0.8;"/>
    </g>
    <g id="text_6">
     <!-- 2.0 -->
     <defs>
      <path d="M 19.1875 8.296875 
L 53.609375 8.296875 
L 53.609375 0 
L 7.328125 0 
L 7.328125 8.296875 
Q 12.9375 14.109375 22.625 23.890625 
Q 32.328125 33.6875 34.8125 36.53125 
Q 39.546875 41.84375 41.421875 45.53125 
Q 43.3125 49.21875 43.3125 52.78125 
Q 43.3125 58.59375 39.234375 62.25 
Q 35.15625 65.921875 28.609375 65.921875 
Q 23.96875 65.921875 18.8125 64.3125 
Q 13.671875 62.703125 7.8125 59.421875 
L 7.8125 69.390625 
Q 13.765625 71.78125 18.9375 73 
Q 24.125 74.21875 28.421875 74.21875 
Q 39.75 74.21875 46.484375 68.546875 
Q 53.21875 62.890625 53.21875 53.421875 
Q 53.21875 48.921875 51.53125 44.890625 
Q 49.859375 40.875 45.40625 35.40625 
Q 44.1875 33.984375 37.640625 27.21875 
Q 31.109375 20.453125 19.1875 8.296875 
z
" id="DejaVuSans-50"/>
     </defs>
     <g transform="translate(283.954146 300.984937)scale(0.1 -0.1)">
      <use xlink:href="#DejaVuSans-50"/>
      <use x="63.623047" xlink:href="#DejaVuSans-46"/>
      <use x="95.410156" xlink:href="#DejaVuSans-48"/>
     </g>
    </g>
   </g>
  </g>
  <g id="axis3d_2">
   <g id="line2d_7">
    <path d="M 451.986295 222.147187 
L 305.99055 282.111126 
" style="fill:none;stroke:#000000;stroke-linecap:square;stroke-width:0.8;"/>
   </g>
   <g id="text_7">
    <!-- t -->
    <defs>
     <path d="M 18.3125 70.21875 
L 18.3125 54.6875 
L 36.8125 54.6875 
L 36.8125 47.703125 
L 18.3125 47.703125 
L 18.3125 18.015625 
Q 18.3125 11.328125 20.140625 9.421875 
Q 21.96875 7.515625 27.59375 7.515625 
L 36.8125 7.515625 
L 36.8125 0 
L 27.59375 0 
Q 17.1875 0 13.234375 3.875 
Q 9.28125 7.765625 9.28125 18.015625 
L 9.28125 47.703125 
L 2.6875 47.703125 
L 2.6875 54.6875 
L 9.28125 54.6875 
L 9.28125 70.21875 
z
" id="DejaVuSans-116"/>
    </defs>
    <g transform="translate(406.018268 278.034582)scale(0.1 -0.1)">
     <use xlink:href="#DejaVuSans-116"/>
    </g>
   </g>
   <g id="Line3DCollection_2">
    <path d="M 124.230826 101.409713 
L 132.189063 228.977234 
L 315.920978 278.032462 
" style="fill:none;stroke:#b0b0b0;stroke-width:0.8;"/>
    <path d="M 154.376 92.369951 
L 160.788932 218.781867 
L 343.788215 266.586722 
" style="fill:none;stroke:#b0b0b0;stroke-width:0.8;"/>
    <path d="M 183.742403 83.563722 
L 188.68496 208.837408 
L 370.929601 255.439107 
" style="fill:none;stroke:#b0b0b0;stroke-width:0.8;"/>
    <path d="M 212.359827 74.982092 
L 215.902813 199.134706 
L 397.373131 244.578118 
" style="fill:none;stroke:#b0b0b0;stroke-width:0.8;"/>
    <path d="M 240.256567 66.616577 
L 242.466925 189.665052 
L 423.14538 233.99284 
" style="fill:none;stroke:#b0b0b0;stroke-width:0.8;"/>
    <path d="M 267.459507 58.459115 
L 268.40057 180.420149 
L 448.271587 223.672907 
" style="fill:none;stroke:#b0b0b0;stroke-width:0.8;"/>
   </g>
   <g id="xtick_6">
    <g id="line2d_8">
     <path d="M 314.363762 277.616695 
L 319.039896 278.865192 
" style="fill:none;stroke:#000000;stroke-linecap:square;stroke-width:0.8;"/>
    </g>
    <g id="text_8">
     <!-- 0.0 -->
     <g transform="translate(320.454589 297.134702)scale(0.1 -0.1)">
      <use xlink:href="#DejaVuSans-48"/>
      <use x="63.623047" xlink:href="#DejaVuSans-46"/>
      <use x="95.410156" xlink:href="#DejaVuSans-48"/>
     </g>
    </g>
   </g>
   <g id="xtick_7">
    <g id="line2d_9">
     <path d="M 342.238355 266.181853 
L 346.892338 267.397612 
" style="fill:none;stroke:#000000;stroke-linecap:square;stroke-width:0.8;"/>
    </g>
    <g id="text_9">
     <!-- 0.5 -->
     <g transform="translate(348.172005 285.530919)scale(0.1 -0.1)">
      <use xlink:href="#DejaVuSans-48"/>
      <use x="63.623047" xlink:href="#DejaVuSans-46"/>
      <use x="95.410156" xlink:href="#DejaVuSans-53"/>
     </g>
    </g>
   </g>
   <g id="xtick_8">
    <g id="line2d_10">
     <path d="M 369.387246 255.044712 
L 374.018637 256.229003 
" style="fill:none;stroke:#000000;stroke-linecap:square;stroke-width:0.8;"/>
    </g>
    <g id="text_10">
     <!-- 1.0 -->
     <g transform="translate(375.16709 274.229538)scale(0.1 -0.1)">
      <use xlink:href="#DejaVuSans-49"/>
      <use x="63.623047" xlink:href="#DejaVuSans-46"/>
      <use x="95.410156" xlink:href="#DejaVuSans-48"/>
     </g>
    </g>
   </g>
   <g id="xtick_9">
    <g id="line2d_11">
     <path d="M 395.838409 244.193796 
L 400.446825 245.347825 
" style="fill:none;stroke:#000000;stroke-linecap:square;stroke-width:0.8;"/>
    </g>
    <g id="text_11">
     <!-- 1.5 -->
     <g transform="translate(401.467716 263.218889)scale(0.1 -0.1)">
      <use xlink:href="#DejaVuSans-49"/>
      <use x="63.623047" xlink:href="#DejaVuSans-46"/>
      <use x="95.410156" xlink:href="#DejaVuSans-53"/>
     </g>
    </g>
   </g>
   <g id="xtick_10">
    <g id="line2d_12">
     <path d="M 421.618403 233.61821 
L 426.203508 234.743123 
" style="fill:none;stroke:#000000;stroke-linecap:square;stroke-width:0.8;"/>
    </g>
    <g id="text_12">
     <!-- 2.0 -->
     <g transform="translate(427.100342 252.487896)scale(0.1 -0.1)">
      <use xlink:href="#DejaVuSans-50"/>
      <use x="63.623047" xlink:href="#DejaVuSans-46"/>
      <use x="95.410156" xlink:href="#DejaVuSans-48"/>
     </g>
    </g>
   </g>
   <g id="xtick_11">
    <g id="line2d_13">
     <path d="M 446.752451 223.307607 
L 451.31396 224.404492 
" style="fill:none;stroke:#000000;stroke-linecap:square;stroke-width:0.8;"/>
    </g>
    <g id="text_13">
     <!-- 2.5 -->
     <g transform="translate(452.090097 242.026037)scale(0.1 -0.1)">
      <use xlink:href="#DejaVuSans-50"/>
      <use x="63.623047" xlink:href="#DejaVuSans-46"/>
      <use x="95.410156" xlink:href="#DejaVuSans-53"/>
     </g>
    </g>
   </g>
  </g>
  <g id="axis3d_3">
   <g id="line2d_14">
    <path d="M 451.986295 222.147187 
L 460.283098 95.352554 
" style="fill:none;stroke:#000000;stroke-linecap:square;stroke-width:0.8;"/>
   </g>
   <g id="text_14">
    <!-- $u(x, t)$ -->
    <defs>
     <path d="M 6.6875 21.6875 
L 13.09375 54.6875 
L 22.125 54.6875 
L 15.71875 22.015625 
Q 15.234375 19.625 15.015625 17.921875 
Q 14.796875 16.21875 14.796875 15.09375 
Q 14.796875 10.9375 17.328125 8.65625 
Q 19.875 6.390625 24.515625 6.390625 
Q 31.734375 6.390625 37 11.265625 
Q 42.28125 16.15625 43.890625 24.421875 
L 49.90625 54.6875 
L 58.890625 54.6875 
L 48.296875 0 
L 39.3125 0 
L 41.109375 8.59375 
Q 37.3125 3.8125 32.0625 1.1875 
Q 26.8125 -1.421875 20.90625 -1.421875 
Q 13.71875 -1.421875 9.71875 2.515625 
Q 5.71875 6.453125 5.71875 13.484375 
Q 5.71875 14.9375 5.953125 17.140625 
Q 6.203125 19.34375 6.6875 21.6875 
z
" id="DejaVuSans-Oblique-117"/>
     <path d="M 31 75.875 
Q 24.46875 64.65625 21.28125 53.65625 
Q 18.109375 42.671875 18.109375 31.390625 
Q 18.109375 20.125 21.3125 9.0625 
Q 24.515625 -2 31 -13.1875 
L 23.1875 -13.1875 
Q 15.875 -1.703125 12.234375 9.375 
Q 8.59375 20.453125 8.59375 31.390625 
Q 8.59375 42.28125 12.203125 53.3125 
Q 15.828125 64.359375 23.1875 75.875 
z
" id="DejaVuSans-40"/>
     <path d="M 60.015625 54.6875 
L 34.90625 27.875 
L 50.296875 0 
L 39.984375 0 
L 28.421875 21.6875 
L 8.296875 0 
L -2.59375 0 
L 24.3125 28.8125 
L 10.015625 54.6875 
L 20.3125 54.6875 
L 30.8125 34.90625 
L 49.125 54.6875 
z
" id="DejaVuSans-Oblique-120"/>
     <path d="M 11.71875 12.40625 
L 22.015625 12.40625 
L 22.015625 4 
L 14.015625 -11.625 
L 7.71875 -11.625 
L 11.71875 4 
z
" id="DejaVuSans-44"/>
     <path d="M 42.28125 54.6875 
L 40.921875 47.703125 
L 23 47.703125 
L 17.1875 18.015625 
Q 16.890625 16.359375 16.75 15.234375 
Q 16.609375 14.109375 16.609375 13.484375 
Q 16.609375 10.359375 18.484375 8.9375 
Q 20.359375 7.515625 24.515625 7.515625 
L 33.59375 7.515625 
L 32.078125 0 
L 23.484375 0 
Q 15.484375 0 11.546875 3.125 
Q 7.625 6.25 7.625 12.59375 
Q 7.625 13.71875 7.765625 15.0625 
Q 7.90625 16.40625 8.203125 18.015625 
L 14.015625 47.703125 
L 6.390625 47.703125 
L 7.8125 54.6875 
L 15.28125 54.6875 
L 18.3125 70.21875 
L 27.296875 70.21875 
L 24.3125 54.6875 
z
" id="DejaVuSans-Oblique-116"/>
     <path d="M 8.015625 75.875 
L 15.828125 75.875 
Q 23.140625 64.359375 26.78125 53.3125 
Q 30.421875 42.28125 30.421875 31.390625 
Q 30.421875 20.453125 26.78125 9.375 
Q 23.140625 -1.703125 15.828125 -13.1875 
L 8.015625 -13.1875 
Q 14.5 -2 17.703125 9.0625 
Q 20.90625 20.125 20.90625 31.390625 
Q 20.90625 42.671875 17.703125 53.65625 
Q 14.5 64.65625 8.015625 75.875 
z
" id="DejaVuSans-41"/>
    </defs>
    <g transform="translate(504.583848 173.694388)rotate(-86.25619)scale(0.1 -0.1)">
     <use transform="translate(0 0.125)" xlink:href="#DejaVuSans-Oblique-117"/>
     <use transform="translate(63.378906 0.125)" xlink:href="#DejaVuSans-40"/>
     <use transform="translate(102.392578 0.125)" xlink:href="#DejaVuSans-Oblique-120"/>
     <use transform="translate(161.572266 0.125)" xlink:href="#DejaVuSans-44"/>
     <use transform="translate(212.841797 0.125)" xlink:href="#DejaVuSans-Oblique-116"/>
     <use transform="translate(252.050781 0.125)" xlink:href="#DejaVuSans-41"/>
    </g>
   </g>
   <g id="Line3DCollection_3">
    <path d="M 452.295241 217.425777 
L 272.209403 174.505169 
L 121.690907 227.844242 
" style="fill:none;stroke:#b0b0b0;stroke-width:0.8;"/>
    <path d="M 453.180493 203.897042 
L 272.128571 161.480836 
L 120.782581 214.196739 
" style="fill:none;stroke:#b0b0b0;stroke-width:0.8;"/>
    <path d="M 454.07534 190.221679 
L 272.046909 148.322929 
L 119.864282 200.399389 
" style="fill:none;stroke:#b0b0b0;stroke-width:0.8;"/>
    <path d="M 454.979938 176.397291 
L 271.964406 135.029381 
L 118.935845 186.449711 
" style="fill:none;stroke:#b0b0b0;stroke-width:0.8;"/>
    <path d="M 455.894448 162.421429 
L 271.881048 121.598085 
L 117.9971 172.345169 
" style="fill:none;stroke:#b0b0b0;stroke-width:0.8;"/>
    <path d="M 456.819034 148.291589 
L 271.796821 108.026888 
L 117.047875 158.083168 
" style="fill:none;stroke:#b0b0b0;stroke-width:0.8;"/>
    <path d="M 457.753862 134.005212 
L 271.711713 94.313592 
L 116.087995 143.661057 
" style="fill:none;stroke:#b0b0b0;stroke-width:0.8;"/>
    <path d="M 458.699105 119.559683 
L 271.625708 80.455955 
L 115.117277 129.076126 
" style="fill:none;stroke:#b0b0b0;stroke-width:0.8;"/>
    <path d="M 459.654937 104.952328 
L 271.538794 66.451686 
L 114.135538 114.325601 
" style="fill:none;stroke:#b0b0b0;stroke-width:0.8;"/>
   </g>
   <g id="xtick_12">
    <g id="line2d_15">
     <path d="M 450.77429 217.063282 
L 455.341248 218.151745 
" style="fill:none;stroke:#000000;stroke-linecap:square;stroke-width:0.8;"/>
    </g>
    <g id="text_15">
     <!-- −40 -->
     <defs>
      <path d="M 10.59375 35.5 
L 73.1875 35.5 
L 73.1875 27.203125 
L 10.59375 27.203125 
z
" id="DejaVuSans-8722"/>
      <path d="M 37.796875 64.3125 
L 12.890625 25.390625 
L 37.796875 25.390625 
z
M 35.203125 72.90625 
L 47.609375 72.90625 
L 47.609375 25.390625 
L 58.015625 25.390625 
L 58.015625 17.1875 
L 47.609375 17.1875 
L 47.609375 0 
L 37.796875 0 
L 37.796875 17.1875 
L 4.890625 17.1875 
L 4.890625 26.703125 
z
" id="DejaVuSans-52"/>
     </defs>
     <g transform="translate(462.794307 224.360813)scale(0.1 -0.1)">
      <use xlink:href="#DejaVuSans-8722"/>
      <use x="83.789062" xlink:href="#DejaVuSans-52"/>
      <use x="147.412109" xlink:href="#DejaVuSans-48"/>
     </g>
    </g>
   </g>
   <g id="xtick_13">
    <g id="line2d_16">
     <path d="M 451.650948 203.538706 
L 456.243734 204.614688 
" style="fill:none;stroke:#000000;stroke-linecap:square;stroke-width:0.8;"/>
    </g>
    <g id="text_16">
     <!-- −30 -->
     <defs>
      <path d="M 40.578125 39.3125 
Q 47.65625 37.796875 51.625 33 
Q 55.609375 28.21875 55.609375 21.1875 
Q 55.609375 10.40625 48.1875 4.484375 
Q 40.765625 -1.421875 27.09375 -1.421875 
Q 22.515625 -1.421875 17.65625 -0.515625 
Q 12.796875 0.390625 7.625 2.203125 
L 7.625 11.71875 
Q 11.71875 9.328125 16.59375 8.109375 
Q 21.484375 6.890625 26.8125 6.890625 
Q 36.078125 6.890625 40.9375 10.546875 
Q 45.796875 14.203125 45.796875 21.1875 
Q 45.796875 27.640625 41.28125 31.265625 
Q 36.765625 34.90625 28.71875 34.90625 
L 20.21875 34.90625 
L 20.21875 43.015625 
L 29.109375 43.015625 
Q 36.375 43.015625 40.234375 45.921875 
Q 44.09375 48.828125 44.09375 54.296875 
Q 44.09375 59.90625 40.109375 62.90625 
Q 36.140625 65.921875 28.71875 65.921875 
Q 24.65625 65.921875 20.015625 65.03125 
Q 15.375 64.15625 9.8125 62.3125 
L 9.8125 71.09375 
Q 15.4375 72.65625 20.34375 73.4375 
Q 25.25 74.21875 29.59375 74.21875 
Q 40.828125 74.21875 47.359375 69.109375 
Q 53.90625 64.015625 53.90625 55.328125 
Q 53.90625 49.265625 50.4375 45.09375 
Q 46.96875 40.921875 40.578125 39.3125 
z
" id="DejaVuSans-51"/>
     </defs>
     <g transform="translate(463.792199 210.83969)scale(0.1 -0.1)">
      <use xlink:href="#DejaVuSans-8722"/>
      <use x="83.789062" xlink:href="#DejaVuSans-51"/>
      <use x="147.412109" xlink:href="#DejaVuSans-48"/>
     </g>
    </g>
   </g>
   <g id="xtick_14">
    <g id="line2d_17">
     <path d="M 452.537104 189.867613 
L 457.15601 190.930779 
" style="fill:none;stroke:#000000;stroke-linecap:square;stroke-width:0.8;"/>
    </g>
    <g id="text_17">
     <!-- −20 -->
     <g transform="translate(464.800898 197.172142)scale(0.1 -0.1)">
      <use xlink:href="#DejaVuSans-8722"/>
      <use x="83.789062" xlink:href="#DejaVuSans-50"/>
      <use x="147.412109" xlink:href="#DejaVuSans-48"/>
     </g>
    </g>
   </g>
   <g id="xtick_15">
    <g id="line2d_18">
     <path d="M 453.432911 176.047609 
L 458.078236 177.097615 
" style="fill:none;stroke:#000000;stroke-linecap:square;stroke-width:0.8;"/>
    </g>
    <g id="text_18">
     <!-- −10 -->
     <g transform="translate(465.82058 183.355779)scale(0.1 -0.1)">
      <use xlink:href="#DejaVuSans-8722"/>
      <use x="83.789062" xlink:href="#DejaVuSans-49"/>
      <use x="147.412109" xlink:href="#DejaVuSans-48"/>
     </g>
    </g>
   </g>
   <g id="xtick_16">
    <g id="line2d_19">
     <path d="M 454.33853 162.076249 
L 459.010577 163.112741 
" style="fill:none;stroke:#000000;stroke-linecap:square;stroke-width:0.8;"/>
    </g>
    <g id="text_19">
     <!-- 0 -->
     <g transform="translate(474.222519 169.388157)scale(0.1 -0.1)">
      <use xlink:href="#DejaVuSans-48"/>
     </g>
    </g>
   </g>
   <g id="xtick_17">
    <g id="line2d_20">
     <path d="M 455.254122 147.951031 
L 459.953199 148.973648 
" style="fill:none;stroke:#000000;stroke-linecap:square;stroke-width:0.8;"/>
    </g>
    <g id="text_20">
     <!-- 10 -->
     <g transform="translate(472.083462 155.266778)scale(0.1 -0.1)">
      <use xlink:href="#DejaVuSans-49"/>
      <use x="63.623047" xlink:href="#DejaVuSans-48"/>
     </g>
    </g>
   </g>
   <g id="xtick_18">
    <g id="line2d_21">
     <path d="M 456.179852 133.669401 
L 460.906274 134.677771 
" style="fill:none;stroke:#000000;stroke-linecap:square;stroke-width:0.8;"/>
    </g>
    <g id="text_21">
     <!-- 20 -->
     <g transform="translate(473.13719 140.989089)scale(0.1 -0.1)">
      <use xlink:href="#DejaVuSans-50"/>
      <use x="63.623047" xlink:href="#DejaVuSans-48"/>
     </g>
    </g>
   </g>
   <g id="xtick_19">
    <g id="line2d_22">
     <path d="M 457.11589 119.228746 
L 461.869976 120.222486 
" style="fill:none;stroke:#000000;stroke-linecap:square;stroke-width:0.8;"/>
    </g>
    <g id="text_22">
     <!-- 30 -->
     <g transform="translate(474.202648 126.55248)scale(0.1 -0.1)">
      <use xlink:href="#DejaVuSans-51"/>
      <use x="63.623047" xlink:href="#DejaVuSans-48"/>
     </g>
    </g>
   </g>
   <g id="xtick_20">
    <g id="line2d_23">
     <path d="M 458.062409 104.626394 
L 462.844484 105.605114 
" style="fill:none;stroke:#000000;stroke-linecap:square;stroke-width:0.8;"/>
    </g>
    <g id="text_23">
     <!-- 40 -->
     <g transform="translate(475.280031 111.954284)scale(0.1 -0.1)">
      <use xlink:href="#DejaVuSans-52"/>
      <use x="63.623047" xlink:href="#DejaVuSans-48"/>
     </g>
    </g>
   </g>
  </g>
  <g id="axes_1">
   <g id="Poly3DCollection_1">
    <path clip-path="url(#pfe7d040e30)" d="M 257.903149 131.028139 
L 265.987848 132.853479 
L 281.869496 127.547699 
L 273.804196 125.749047 
z
" style="fill:#25858e;"/>
    <path clip-path="url(#pfe7d040e30)" d="M 265.987848 132.853479 
L 274.11362 134.688092 
L 289.975468 129.355422 
L 281.869496 127.547699 
z
" style="fill:#25858e;"/>
    <path clip-path="url(#pfe7d040e30)" d="M 274.11362 134.688092 
L 282.280779 136.532049 
L 298.122421 131.172285 
L 289.975468 129.355422 
z
" style="fill:#25858e;"/>
    <path clip-path="url(#pfe7d040e30)" d="M 241.765594 136.385751 
L 249.869378 138.238376 
L 265.987848 132.853479 
L 257.903149 131.028139 
z
" style="fill:#25858e;"/>
    <path clip-path="url(#pfe7d040e30)" d="M 282.280779 136.532049 
L 290.489642 138.385422 
L 306.310668 132.998356 
L 298.122421 131.172285 
z
" style="fill:#25858e;"/>
    <path clip-path="url(#pfe7d040e30)" d="M 249.869378 138.238376 
L 258.01464 140.100483 
L 274.11362 134.688092 
L 265.987848 132.853479 
z
" style="fill:#25858e;"/>
    <path clip-path="url(#pfe7d040e30)" d="M 290.489642 138.385422 
L 298.740485 140.259055 
L 314.540576 134.828343 
L 306.310668 132.998356 
z
" style="fill:#25858e;"/>
    <path clip-path="url(#pfe7d040e30)" d="M 258.01464 140.100483 
L 266.201699 141.972146 
L 282.280779 136.532049 
L 274.11362 134.688092 
z
" style="fill:#25858e;"/>
    <path clip-path="url(#pfe7d040e30)" d="M 298.740485 140.259055 
L 307.035349 141.904834 
L 322.810645 136.801851 
L 314.540576 134.828343 
z
" style="fill:#25858e;"/>
    <path clip-path="url(#pfe7d040e30)" d="M 225.386215 141.823648 
L 233.508749 143.704175 
L 249.869378 138.238376 
L 241.765594 136.385751 
z
" style="fill:#25858e;"/>
    <path clip-path="url(#pfe7d040e30)" d="M 266.201699 141.972146 
L 274.430877 143.853438 
L 290.489642 138.385422 
L 282.280779 136.532049 
z
" style="fill:#25858e;"/>
    <path clip-path="url(#pfe7d040e30)" d="M 307.035349 141.904834 
L 315.350366 145.828789 
L 331.146824 137.30054 
L 322.810645 136.801851 
z
" style="fill:#25838e;"/>
    <path clip-path="url(#pfe7d040e30)" d="M 233.508749 143.704175 
L 241.67317 145.594399 
L 258.01464 140.100483 
L 249.869378 138.238376 
z
" style="fill:#25858e;"/>
    <path clip-path="url(#pfe7d040e30)" d="M 274.430877 143.853438 
L 282.702457 145.722778 
L 298.740485 140.259055 
L 290.489642 138.385422 
z
" style="fill:#25858e;"/>
    <path clip-path="url(#pfe7d040e30)" d="M 315.350366 145.828789 
L 323.865198 137.461059 
L 339.345886 147.289492 
L 331.146824 137.30054 
z
" style="fill:#23888e;"/>
    <path clip-path="url(#pfe7d040e30)" d="M 241.67317 145.594399 
L 249.879802 147.494397 
L 266.201699 141.972146 
L 258.01464 140.100483 
z
" style="fill:#25858e;"/>
    <path clip-path="url(#pfe7d040e30)" d="M 282.702457 145.722778 
L 291.016477 148.014086 
L 307.035349 141.904834 
L 298.740485 140.259055 
z
" style="fill:#25848e;"/>
    <path clip-path="url(#pfe7d040e30)" d="M 323.865198 137.461059 
L 331.79197 169.94943 
L 348.43545 118.373382 
L 339.345886 147.289492 
z
" style="fill:#21908d;"/>
    <path clip-path="url(#pfe7d040e30)" d="M 331.79197 169.94943 
L 341.320684 116.180838 
L 355.032422 193.066488 
L 348.43545 118.373382 
z
" style="fill:#3f4889;"/>
    <path clip-path="url(#pfe7d040e30)" d="M 208.759535 147.343648 
L 216.900462 149.252712 
L 233.508749 143.704175 
L 225.386215 141.823648 
z
" style="fill:#25858e;"/>
    <path clip-path="url(#pfe7d040e30)" d="M 249.879802 147.494397 
L 258.128975 149.404243 
L 274.430877 143.853438 
L 266.201699 141.972146 
z
" style="fill:#25858e;"/>
    <path clip-path="url(#pfe7d040e30)" d="M 291.016477 148.014086 
L 299.385685 146.987728 
L 315.350366 145.828789 
L 307.035349 141.904834 
z
" style="fill:#24878e;"/>
    <path clip-path="url(#pfe7d040e30)" d="M 216.900462 149.252712 
L 225.083689 151.171695 
L 241.67317 145.594399 
L 233.508749 143.704175 
z
" style="fill:#25858e;"/>
    <path clip-path="url(#pfe7d040e30)" d="M 258.128975 149.404243 
L 266.421384 151.367573 
L 282.702457 145.722778 
L 274.430877 143.853438 
z
" style="fill:#25858e;"/>
    <path clip-path="url(#pfe7d040e30)" d="M 299.385685 146.987728 
L 307.705231 160.635819 
L 323.865198 137.461059 
L 315.350366 145.828789 
z
" style="fill:#25858e;"/>
    <path clip-path="url(#pfe7d040e30)" d="M 307.705231 160.635819 
L 316.410737 135.984522 
L 331.79197 169.94943 
L 323.865198 137.461059 
z
" style="fill:#2d708e;"/>
    <path clip-path="url(#pfe7d040e30)" d="M 225.083689 151.171695 
L 233.309547 153.100676 
L 249.879802 147.494397 
L 241.67317 145.594399 
z
" style="fill:#25858e;"/>
    <path clip-path="url(#pfe7d040e30)" d="M 266.421384 151.367573 
L 274.753113 152.642701 
L 291.016477 148.014086 
L 282.702457 145.722778 
z
" style="fill:#25858e;"/>
    <path clip-path="url(#pfe7d040e30)" d="M 341.320684 116.180838 
L 348.619606 173.852606 
L 366.657229 83.970489 
L 355.032422 193.066488 
z
" style="fill:#70cf57;"/>
    <path clip-path="url(#pfe7d040e30)" d="M 357.732925 152.381074 
L 366.398946 152.250413 
L 381.921418 149.7124 
L 372.229091 181.595032 
z
" style="fill:#440154;"/>
    <path clip-path="url(#pfe7d040e30)" d="M 348.619606 173.852606 
L 357.732925 152.381074 
L 372.229091 181.595032 
L 366.657229 83.970489 
z
" style="fill:#1f998a;"/>
    <path clip-path="url(#pfe7d040e30)" d="M 191.879911 152.947624 
L 200.038851 154.88588 
L 216.900462 149.252712 
L 208.759535 147.343648 
z
" style="fill:#25858e;"/>
    <path clip-path="url(#pfe7d040e30)" d="M 233.309547 153.100676 
L 241.57837 155.039731 
L 258.128975 149.404243 
L 249.879802 147.494397 
z
" style="fill:#25858e;"/>
    <path clip-path="url(#pfe7d040e30)" d="M 274.753113 152.642701 
L 283.141411 158.512072 
L 299.385685 146.987728 
L 291.016477 148.014086 
z
" style="fill:#25838e;"/>
    <path clip-path="url(#pfe7d040e30)" d="M 316.410737 135.984522 
L 324.502914 169.804909 
L 341.320684 116.180838 
L 331.79197 169.94943 
z
" style="fill:#34b679;"/>
    <path clip-path="url(#pfe7d040e30)" d="M 200.038851 154.88588 
L 208.240509 156.834283 
L 225.083689 151.171695 
L 216.900462 149.252712 
z
" style="fill:#25858e;"/>
    <path clip-path="url(#pfe7d040e30)" d="M 241.57837 155.039731 
L 249.889194 156.901349 
L 266.421384 151.367573 
L 258.128975 149.404243 
z
" style="fill:#25858e;"/>
    <path clip-path="url(#pfe7d040e30)" d="M 283.141411 158.512072 
L 291.569372 148.618055 
L 307.705231 160.635819 
L 299.385685 146.987728 
z
" style="fill:#27808e;"/>
    <path clip-path="url(#pfe7d040e30)" d="M 324.502914 169.804909 
L 333.266558 155.917764 
L 348.619606 173.852606 
L 341.320684 116.180838 
z
" style="fill:#287c8e;"/>
    <path clip-path="url(#pfe7d040e30)" d="M 366.398946 152.250413 
L 374.704787 164.531628 
L 390.869745 143.370801 
L 381.921418 149.7124 
z
" style="fill:#1f968b;"/>
    <path clip-path="url(#pfe7d040e30)" d="M 333.266558 155.917764 
L 341.857678 157.480776 
L 357.732925 152.381074 
L 348.619606 173.852606 
z
" style="fill:#433d84;"/>
    <path clip-path="url(#pfe7d040e30)" d="M 208.240509 156.834283 
L 216.485221 158.792915 
L 233.309547 153.100676 
L 225.083689 151.171695 
z
" style="fill:#25858e;"/>
    <path clip-path="url(#pfe7d040e30)" d="M 249.889194 156.901349 
L 258.257461 159.913301 
L 274.753113 152.642701 
L 266.421384 151.367573 
z
" style="fill:#25838e;"/>
    <path clip-path="url(#pfe7d040e30)" d="M 291.569372 148.618055 
L 299.981662 168.329906 
L 316.410737 135.984522 
L 307.705231 160.635819 
z
" style="fill:#1fa088;"/>
    <path clip-path="url(#pfe7d040e30)" d="M 374.704787 164.531628 
L 384.535282 135.18891 
L 398.233962 176.061675 
L 390.869745 143.370801 
z
" style="fill:#218f8d;"/>
    <path clip-path="url(#pfe7d040e30)" d="M 174.741527 158.637508 
L 182.918075 160.60563 
L 200.038851 154.88588 
L 191.879911 152.947624 
z
" style="fill:#25858e;"/>
    <path clip-path="url(#pfe7d040e30)" d="M 299.981662 168.329906 
L 308.547399 159.666869 
L 324.502914 169.804909 
L 316.410737 135.984522 
z
" style="fill:#2c728e;"/>
    <path clip-path="url(#pfe7d040e30)" d="M 216.485221 158.792915 
L 224.773327 160.761856 
L 241.57837 155.039731 
L 233.309547 153.100676 
z
" style="fill:#25858e;"/>
    <path clip-path="url(#pfe7d040e30)" d="M 258.257461 159.913301 
L 266.614441 157.132185 
L 283.141411 158.512072 
L 274.753113 152.642701 
z
" style="fill:#25858e;"/>
    <path clip-path="url(#pfe7d040e30)" d="M 341.857678 157.480776 
L 350.414921 162.417591 
L 366.398946 152.250413 
L 357.732925 152.381074 
z
" style="fill:#1f978b;"/>
    <path clip-path="url(#pfe7d040e30)" d="M 308.547399 159.666869 
L 317.109068 161.601129 
L 333.266558 155.917764 
L 324.502914 169.804909 
z
" style="fill:#355e8d;"/>
    <path clip-path="url(#pfe7d040e30)" d="M 391.081638 193.051414 
L 402.222879 139.052111 
L 413.73388 216.141009 
L 410.372737 102.775927 
z
" style="fill:#404688;"/>
    <path clip-path="url(#pfe7d040e30)" d="M 182.918075 160.60563 
L 191.137764 162.584136 
L 208.240509 156.834283 
L 200.038851 154.88588 
z
" style="fill:#25858e;"/>
    <path clip-path="url(#pfe7d040e30)" d="M 224.773327 160.761856 
L 233.108945 162.917309 
L 249.889194 156.901349 
L 241.57837 155.039731 
z
" style="fill:#25848e;"/>
    <path clip-path="url(#pfe7d040e30)" d="M 384.535282 135.18891 
L 391.081638 193.051414 
L 410.372737 102.775927 
L 398.233962 176.061675 
z
" style="fill:#6ece58;"/>
    <path clip-path="url(#pfe7d040e30)" d="M 266.614441 157.132185 
L 275.118989 168.610748 
L 291.569372 148.618055 
L 283.141411 158.512072 
z
" style="fill:#21918c;"/>
    <path clip-path="url(#pfe7d040e30)" d="M 350.414921 162.417591 
L 359.410537 152.462984 
L 374.704787 164.531628 
L 366.398946 152.250413 
z
" style="fill:#1f998a;"/>
    <path clip-path="url(#pfe7d040e30)" d="M 275.118989 168.610748 
L 283.576428 163.476251 
L 299.981662 168.329906 
L 291.569372 148.618055 
z
" style="fill:#2c728e;"/>
    <path clip-path="url(#pfe7d040e30)" d="M 191.137764 162.584136 
L 199.400935 164.573108 
L 216.485221 158.792915 
L 208.240509 156.834283 
z
" style="fill:#25858e;"/>
    <path clip-path="url(#pfe7d040e30)" d="M 233.108945 162.917309 
L 241.455432 163.31851 
L 258.257461 159.913301 
L 249.889194 156.901349 
z
" style="fill:#24868e;"/>
    <path clip-path="url(#pfe7d040e30)" d="M 317.109068 161.601129 
L 325.705998 164.252393 
L 341.857678 157.480776 
L 333.266558 155.917764 
z
" style="fill:#1f998a;"/>
    <path clip-path="url(#pfe7d040e30)" d="M 402.222879 139.052111 
L 409.978149 165.363187 
L 427.41824 123.053718 
L 413.73388 216.141009 
z
" style="fill:#25858e;"/>
    <path clip-path="url(#pfe7d040e30)" d="M 359.410537 152.462984 
L 367.329661 181.191936 
L 384.535282 135.18891 
L 374.704787 164.531628 
z
" style="fill:#29af7f;"/>
    <path clip-path="url(#pfe7d040e30)" d="M 157.338385 164.41529 
L 165.532114 166.413974 
L 182.918075 160.60563 
L 174.741527 158.637508 
z
" style="fill:#25858e;"/>
    <path clip-path="url(#pfe7d040e30)" d="M 283.576428 163.476251 
L 292.114963 165.474806 
L 308.547399 159.666869 
L 299.981662 168.329906 
z
" style="fill:#2c728e;"/>
    <path clip-path="url(#pfe7d040e30)" d="M 199.400935 164.573108 
L 207.707935 166.572629 
L 224.773327 160.761856 
L 216.485221 158.792915 
z
" style="fill:#25858e;"/>
    <path clip-path="url(#pfe7d040e30)" d="M 367.329661 181.191936 
L 377.149322 150.988446 
L 391.081638 193.051414 
L 384.535282 135.18891 
z
" style="fill:#31688e;"/>
    <path clip-path="url(#pfe7d040e30)" d="M 241.455432 163.31851 
L 249.951448 170.086015 
L 266.614441 157.132185 
L 258.257461 159.913301 
z
" style="fill:#23888e;"/>
    <path clip-path="url(#pfe7d040e30)" d="M 325.705998 164.252393 
L 334.42819 162.265255 
L 350.414921 162.417591 
L 341.857678 157.480776 
z
" style="fill:#1e9b8a;"/>
    <path clip-path="url(#pfe7d040e30)" d="M 165.532114 166.413974 
L 173.769408 168.423285 
L 191.137764 162.584136 
L 182.918075 160.60563 
z
" style="fill:#25858e;"/>
    <path clip-path="url(#pfe7d040e30)" d="M 249.951448 170.086015 
L 258.350172 167.324577 
L 275.118989 168.610748 
L 266.614441 157.132185 
z
" style="fill:#2a778e;"/>
    <path clip-path="url(#pfe7d040e30)" d="M 207.707935 166.572629 
L 216.049146 168.228541 
L 233.108945 162.917309 
L 224.773327 160.761856 
z
" style="fill:#25858e;"/>
    <path clip-path="url(#pfe7d040e30)" d="M 292.114963 165.474806 
L 300.698515 167.572671 
L 317.109068 161.601129 
L 308.547399 159.666869 
z
" style="fill:#1f998a;"/>
    <path clip-path="url(#pfe7d040e30)" d="M 334.42819 162.265255 
L 342.881323 176.21726 
L 359.410537 152.462984 
L 350.414921 162.417591 
z
" style="fill:#1f9f88;"/>
    <path clip-path="url(#pfe7d040e30)" d="M 377.149322 150.988446 
L 385.396097 169.221458 
L 402.222879 139.052111 
L 391.081638 193.051414 
z
" style="fill:#1fa287;"/>
    <path clip-path="url(#pfe7d040e30)" d="M 409.978149 165.363187 
L 418.852922 167.366907 
L 434.311418 161.543963 
L 427.41824 123.053718 
z
" style="fill:#fde725;"/>
    <path clip-path="url(#pfe7d040e30)" d="M 173.769408 168.423285 
L 182.050618 170.443308 
L 199.400935 164.573108 
L 191.137764 162.584136 
z
" style="fill:#25858e;"/>
    <path clip-path="url(#pfe7d040e30)" d="M 216.049146 168.228541 
L 224.498925 172.376724 
L 241.455432 163.31851 
L 233.108945 162.917309 
z
" style="fill:#25848e;"/>
    <path clip-path="url(#pfe7d040e30)" d="M 258.350172 167.324577 
L 266.865161 169.343643 
L 283.576428 163.476251 
L 275.118989 168.610748 
z
" style="fill:#27808e;"/>
    <path clip-path="url(#pfe7d040e30)" d="M 342.881323 176.21726 
L 352.044826 160.255798 
L 367.329661 181.191936 
L 359.410537 152.462984 
z
" style="fill:#277f8e;"/>
    <path clip-path="url(#pfe7d040e30)" d="M 300.698515 167.572671 
L 309.336891 168.526309 
L 325.705998 164.252393 
L 317.109068 161.601129 
z
" style="fill:#1e9b8a;"/>
    <path clip-path="url(#pfe7d040e30)" d="M 139.664305 170.283023 
L 147.874757 172.312987 
L 165.532114 166.413974 
L 157.338385 164.41529 
z
" style="fill:#25858e;"/>
    <path clip-path="url(#pfe7d040e30)" d="M 224.498925 172.376724 
L 232.864699 171.212447 
L 249.951448 170.086015 
L 241.455432 163.31851 
z
" style="fill:#287d8e;"/>
    <path clip-path="url(#pfe7d040e30)" d="M 182.050618 170.443308 
L 190.376095 172.474129 
L 207.707935 166.572629 
L 199.400935 164.573108 
z
" style="fill:#25858e;"/>
    <path clip-path="url(#pfe7d040e30)" d="M 385.396097 169.221458 
L 394.250764 171.245744 
L 409.978149 165.363187 
L 402.222879 139.052111 
z
" style="fill:#86d549;"/>
    <path clip-path="url(#pfe7d040e30)" d="M 266.865161 169.343643 
L 275.425711 171.373514 
L 292.114963 165.474806 
L 283.576428 163.476251 
z
" style="fill:#1f998a;"/>
    <path clip-path="url(#pfe7d040e30)" d="M 394.250764 171.245744 
L 403.152812 173.280862 
L 418.852922 167.366907 
L 409.978149 165.363187 
z
" style="fill:#25858e;"/>
    <path clip-path="url(#pfe7d040e30)" d="M 309.336891 168.526309 
L 317.95997 175.356216 
L 334.42819 162.265255 
L 325.705998 164.252393 
z
" style="fill:#1f998a;"/>
    <path clip-path="url(#pfe7d040e30)" d="M 352.044826 160.255798 
L 360.561427 173.119379 
L 377.149322 150.988446 
L 367.329661 181.191936 
z
" style="fill:#25ac82;"/>
    <path clip-path="url(#pfe7d040e30)" d="M 147.874757 172.312987 
L 156.129206 174.353827 
L 173.769408 168.423285 
L 165.532114 166.413974 
z
" style="fill:#25858e;"/>
    <path clip-path="url(#pfe7d040e30)" d="M 190.376095 172.474129 
L 198.771105 175.227915 
L 216.049146 168.228541 
L 207.707935 166.572629 
z
" style="fill:#25838e;"/>
    <path clip-path="url(#pfe7d040e30)" d="M 232.864699 171.212447 
L 241.355203 173.252342 
L 258.350172 167.324577 
L 249.951448 170.086015 
z
" style="fill:#23888e;"/>
    <path clip-path="url(#pfe7d040e30)" d="M 317.95997 175.356216 
L 326.815278 167.766762 
L 342.881323 176.21726 
L 334.42819 162.265255 
z
" style="fill:#218e8d;"/>
    <path clip-path="url(#pfe7d040e30)" d="M 275.425711 171.373514 
L 284.031908 173.23594 
L 300.698515 167.572671 
L 292.114963 165.474806 
z
" style="fill:#1f9a8a;"/>
    <path clip-path="url(#pfe7d040e30)" d="M 360.561427 173.119379 
L 369.395102 175.164549 
L 385.396097 169.221458 
L 377.149322 150.988446 
z
" style="fill:#42be71;"/>
    <path clip-path="url(#pfe7d040e30)" d="M 156.129206 174.353827 
L 164.428007 176.405634 
L 182.050618 170.443308 
L 173.769408 168.423285 
z
" style="fill:#25858e;"/>
    <path clip-path="url(#pfe7d040e30)" d="M 198.771105 175.227915 
L 207.115991 175.140474 
L 224.498925 172.376724 
L 216.049146 168.228541 
z
" style="fill:#26828e;"/>
    <path clip-path="url(#pfe7d040e30)" d="M 241.355203 173.252342 
L 249.891371 175.303209 
L 266.865161 169.343643 
L 258.350172 167.324577 
z
" style="fill:#1f998a;"/>
    <path clip-path="url(#pfe7d040e30)" d="M 369.395102 175.164549 
L 378.276291 177.22072 
L 394.250764 171.245744 
L 385.396097 169.221458 
z
" style="fill:#25858e;"/>
    <path clip-path="url(#pfe7d040e30)" d="M 284.031908 173.23594 
L 292.682373 176.894477 
L 309.336891 168.526309 
L 300.698515 167.572671 
z
" style="fill:#1f988b;"/>
    <path clip-path="url(#pfe7d040e30)" d="M 326.815278 167.766762 
L 335.470224 177.057564 
L 352.044826 160.255798 
L 342.881323 176.21726 
z
" style="fill:#25ac82;"/>
    <path clip-path="url(#pfe7d040e30)" d="M 164.428007 176.405634 
L 172.771518 178.468495 
L 190.376095 172.474129 
L 182.050618 170.443308 
z
" style="fill:#25858e;"/>
    <path clip-path="url(#pfe7d040e30)" d="M 207.115991 175.140474 
L 215.581047 177.201522 
L 232.864699 171.212447 
L 224.498925 172.376724 
z
" style="fill:#218e8d;"/>
    <path clip-path="url(#pfe7d040e30)" d="M 249.891371 175.303209 
L 258.473574 177.365136 
L 275.425711 171.373514 
L 266.865161 169.343643 
z
" style="fill:#1f998a;"/>
    <path clip-path="url(#pfe7d040e30)" d="M 378.276291 177.22072 
L 387.205379 179.28798 
L 403.152812 173.280862 
L 394.250764 171.245744 
z
" style="fill:#25858e;"/>
    <path clip-path="url(#pfe7d040e30)" d="M 292.682373 176.894477 
L 301.402219 174.123372 
L 317.95997 175.356216 
L 309.336891 168.526309 
z
" style="fill:#1f968b;"/>
    <path clip-path="url(#pfe7d040e30)" d="M 335.470224 177.057564 
L 344.281998 179.123943 
L 360.561427 173.119379 
L 352.044826 160.255798 
z
" style="fill:#25ac82;"/>
    <path clip-path="url(#pfe7d040e30)" d="M 172.771518 178.468495 
L 181.099949 179.109284 
L 198.771105 175.227915 
L 190.376095 172.474129 
z
" style="fill:#24878e;"/>
    <path clip-path="url(#pfe7d040e30)" d="M 215.581047 177.201522 
L 224.091867 179.273713 
L 241.355203 173.252342 
L 232.864699 171.212447 
z
" style="fill:#1f998a;"/>
    <path clip-path="url(#pfe7d040e30)" d="M 344.281998 179.123943 
L 353.141415 181.201495 
L 369.395102 175.164549 
L 360.561427 173.119379 
z
" style="fill:#25858e;"/>
    <path clip-path="url(#pfe7d040e30)" d="M 258.473574 177.365136 
L 267.105134 179.796775 
L 284.031908 173.23594 
L 275.425711 171.373514 
z
" style="fill:#1f998a;"/>
    <path clip-path="url(#pfe7d040e30)" d="M 301.402219 174.123372 
L 310.118492 181.03664 
L 326.815278 167.766762 
L 317.95997 175.356216 
z
" style="fill:#22a785;"/>
    <path clip-path="url(#pfe7d040e30)" d="M 181.099949 179.109284 
L 189.538567 181.191815 
L 207.115991 175.140474 
L 198.771105 175.227915 
z
" style="fill:#20928c;"/>
    <path clip-path="url(#pfe7d040e30)" d="M 224.091867 179.273713 
L 232.648823 181.357137 
L 249.891371 175.303209 
L 241.355203 173.252342 
z
" style="fill:#1f998a;"/>
    <path clip-path="url(#pfe7d040e30)" d="M 353.141415 181.201495 
L 362.048863 183.290309 
L 378.276291 177.22072 
L 369.395102 175.164549 
z
" style="fill:#25858e;"/>
    <path clip-path="url(#pfe7d040e30)" d="M 267.105134 179.796775 
L 275.768913 179.724808 
L 292.682373 176.894477 
L 284.031908 173.23594 
z
" style="fill:#1f9a8a;"/>
    <path clip-path="url(#pfe7d040e30)" d="M 310.118492 181.03664 
L 318.907433 183.12456 
L 335.470224 177.057564 
L 326.815278 167.766762 
z
" style="fill:#1f9f88;"/>
    <path clip-path="url(#pfe7d040e30)" d="M 189.538567 181.191815 
L 198.023045 183.285664 
L 215.581047 177.201522 
L 207.115991 175.140474 
z
" style="fill:#1f998a;"/>
    <path clip-path="url(#pfe7d040e30)" d="M 318.907433 183.12456 
L 327.74414 185.223827 
L 344.281998 179.123943 
L 335.470224 177.057564 
z
" style="fill:#25858e;"/>
    <path clip-path="url(#pfe7d040e30)" d="M 232.648823 181.357137 
L 241.252293 183.451886 
L 258.473574 177.365136 
L 249.891371 175.303209 
z
" style="fill:#1f998a;"/>
    <path clip-path="url(#pfe7d040e30)" d="M 362.048863 183.290309 
L 371.004732 185.390479 
L 387.205379 179.28798 
L 378.276291 177.22072 
z
" style="fill:#25858e;"/>
    <path clip-path="url(#pfe7d040e30)" d="M 275.768913 179.724808 
L 284.502154 185.057247 
L 301.402219 174.123372 
L 292.682373 176.894477 
z
" style="fill:#1fa187;"/>
    <path clip-path="url(#pfe7d040e30)" d="M 198.023045 183.285664 
L 206.553757 185.390923 
L 224.091867 179.273713 
L 215.581047 177.201522 
z
" style="fill:#1f998a;"/>
    <path clip-path="url(#pfe7d040e30)" d="M 327.74414 185.223827 
L 336.629005 187.334535 
L 353.141415 181.201495 
L 344.281998 179.123943 
z
" style="fill:#25858e;"/>
    <path clip-path="url(#pfe7d040e30)" d="M 241.252293 183.451886 
L 249.891828 184.836649 
L 267.105134 179.796775 
L 258.473574 177.365136 
z
" style="fill:#1e9b8a;"/>
    <path clip-path="url(#pfe7d040e30)" d="M 284.502154 185.057247 
L 293.2673 187.167046 
L 310.118492 181.03664 
L 301.402219 174.123372 
z
" style="fill:#1f968b;"/>
    <path clip-path="url(#pfe7d040e30)" d="M 293.2673 187.167046 
L 302.080334 189.288372 
L 318.907433 183.12456 
L 310.118492 181.03664 
z
" style="fill:#25858e;"/>
    <path clip-path="url(#pfe7d040e30)" d="M 206.553757 185.390923 
L 215.131083 187.507686 
L 232.648823 181.357137 
L 224.091867 179.273713 
z
" style="fill:#1f998a;"/>
    <path clip-path="url(#pfe7d040e30)" d="M 336.629005 187.334535 
L 345.562423 189.456778 
L 362.048863 183.290309 
L 353.141415 181.201495 
z
" style="fill:#25858e;"/>
    <path clip-path="url(#pfe7d040e30)" d="M 249.891828 184.836649 
L 258.617045 189.12004 
L 275.768913 179.724808 
L 267.105134 179.796775 
z
" style="fill:#1e9c89;"/>
    <path clip-path="url(#pfe7d040e30)" d="M 302.080334 189.288372 
L 310.941649 191.42132 
L 327.74414 185.223827 
L 318.907433 183.12456 
z
" style="fill:#25858e;"/>
    <path clip-path="url(#pfe7d040e30)" d="M 258.617045 189.12004 
L 267.35741 191.252064 
L 284.502154 185.057247 
L 275.768913 179.724808 
z
" style="fill:#21918c;"/>
    <path clip-path="url(#pfe7d040e30)" d="M 215.131083 187.507686 
L 223.755405 189.636046 
L 241.252293 183.451886 
L 232.648823 181.357137 
z
" style="fill:#1f998a;"/>
    <path clip-path="url(#pfe7d040e30)" d="M 345.562423 189.456778 
L 354.544792 191.590649 
L 371.004732 185.390479 
L 362.048863 183.290309 
z
" style="fill:#25858e;"/>
    <path clip-path="url(#pfe7d040e30)" d="M 267.35741 191.252064 
L 276.14578 193.395797 
L 293.2673 187.167046 
L 284.502154 185.057247 
z
" style="fill:#25858e;"/>
    <path clip-path="url(#pfe7d040e30)" d="M 310.941649 191.42132 
L 319.851644 193.565984 
L 336.629005 187.334535 
L 327.74414 185.223827 
z
" style="fill:#25858e;"/>
    <path clip-path="url(#pfe7d040e30)" d="M 223.755405 189.636046 
L 232.458912 193.225684 
L 249.891828 184.836649 
L 241.252293 183.451886 
z
" style="fill:#1f978b;"/>
    <path clip-path="url(#pfe7d040e30)" d="M 232.458912 193.225684 
L 241.173482 195.380286 
L 258.617045 189.12004 
L 249.891828 184.836649 
z
" style="fill:#228d8d;"/>
    <path clip-path="url(#pfe7d040e30)" d="M 276.14578 193.395797 
L 284.98255 195.551337 
L 302.080334 189.288372 
L 293.2673 187.167046 
z
" style="fill:#25858e;"/>
    <path clip-path="url(#pfe7d040e30)" d="M 319.851644 193.565984 
L 328.81072 195.722463 
L 345.562423 189.456778 
L 336.629005 187.334535 
z
" style="fill:#25858e;"/>
    <path clip-path="url(#pfe7d040e30)" d="M 241.173482 195.380286 
L 249.93617 197.546785 
L 267.35741 191.252064 
L 258.617045 189.12004 
z
" style="fill:#25858e;"/>
    <path clip-path="url(#pfe7d040e30)" d="M 284.98255 195.551337 
L 293.868123 197.718782 
L 310.941649 191.42132 
L 302.080334 189.288372 
z
" style="fill:#25858e;"/>
    <path clip-path="url(#pfe7d040e30)" d="M 328.81072 195.722463 
L 337.819285 197.890854 
L 354.544792 191.590649 
L 345.562423 189.456778 
z
" style="fill:#25858e;"/>
    <path clip-path="url(#pfe7d040e30)" d="M 249.93617 197.546785 
L 258.747373 199.725278 
L 276.14578 193.395797 
L 267.35741 191.252064 
z
" style="fill:#25858e;"/>
    <path clip-path="url(#pfe7d040e30)" d="M 293.868123 197.718782 
L 302.802903 199.898229 
L 319.851644 193.565984 
L 310.941649 191.42132 
z
" style="fill:#25858e;"/>
    <path clip-path="url(#pfe7d040e30)" d="M 258.747373 199.725278 
L 267.607497 201.915867 
L 284.98255 195.551337 
L 276.14578 193.395797 
z
" style="fill:#25858e;"/>
    <path clip-path="url(#pfe7d040e30)" d="M 302.802903 199.898229 
L 311.7873 202.089779 
L 328.81072 195.722463 
L 319.851644 193.565984 
z
" style="fill:#25858e;"/>
    <path clip-path="url(#pfe7d040e30)" d="M 267.607497 201.915867 
L 276.51695 204.118652 
L 293.868123 197.718782 
L 284.98255 195.551337 
z
" style="fill:#25858e;"/>
    <path clip-path="url(#pfe7d040e30)" d="M 311.7873 202.089779 
L 320.821729 204.293534 
L 337.819285 197.890854 
L 328.81072 195.722463 
z
" style="fill:#25858e;"/>
    <path clip-path="url(#pfe7d040e30)" d="M 276.51695 204.118652 
L 285.476144 206.333735 
L 302.802903 199.898229 
L 293.868123 197.718782 
z
" style="fill:#25858e;"/>
    <path clip-path="url(#pfe7d040e30)" d="M 285.476144 206.333735 
L 294.485499 208.56122 
L 311.7873 202.089779 
L 302.802903 199.898229 
z
" style="fill:#25858e;"/>
    <path clip-path="url(#pfe7d040e30)" d="M 294.485499 208.56122 
L 303.545435 210.80121 
L 320.821729 204.293534 
L 311.7873 202.089779 
z
" style="fill:#25858e;"/>
   </g>
   <g id="text_24">
    <!-- 1D Linear Convection -->
    <defs>
     <path d="M 19.671875 64.796875 
L 19.671875 8.109375 
L 31.59375 8.109375 
Q 46.6875 8.109375 53.6875 14.9375 
Q 60.6875 21.78125 60.6875 36.53125 
Q 60.6875 51.171875 53.6875 57.984375 
Q 46.6875 64.796875 31.59375 64.796875 
z
M 9.8125 72.90625 
L 30.078125 72.90625 
Q 51.265625 72.90625 61.171875 64.09375 
Q 71.09375 55.28125 71.09375 36.53125 
Q 71.09375 17.671875 61.125 8.828125 
Q 51.171875 0 30.078125 0 
L 9.8125 0 
z
" id="DejaVuSans-68"/>
     <path id="DejaVuSans-32"/>
     <path d="M 9.8125 72.90625 
L 19.671875 72.90625 
L 19.671875 8.296875 
L 55.171875 8.296875 
L 55.171875 0 
L 9.8125 0 
z
" id="DejaVuSans-76"/>
     <path d="M 9.421875 54.6875 
L 18.40625 54.6875 
L 18.40625 0 
L 9.421875 0 
z
M 9.421875 75.984375 
L 18.40625 75.984375 
L 18.40625 64.59375 
L 9.421875 64.59375 
z
" id="DejaVuSans-105"/>
     <path d="M 54.890625 33.015625 
L 54.890625 0 
L 45.90625 0 
L 45.90625 32.71875 
Q 45.90625 40.484375 42.875 44.328125 
Q 39.84375 48.1875 33.796875 48.1875 
Q 26.515625 48.1875 22.3125 43.546875 
Q 18.109375 38.921875 18.109375 30.90625 
L 18.109375 0 
L 9.078125 0 
L 9.078125 54.6875 
L 18.109375 54.6875 
L 18.109375 46.1875 
Q 21.34375 51.125 25.703125 53.5625 
Q 30.078125 56 35.796875 56 
Q 45.21875 56 50.046875 50.171875 
Q 54.890625 44.34375 54.890625 33.015625 
z
" id="DejaVuSans-110"/>
     <path d="M 56.203125 29.59375 
L 56.203125 25.203125 
L 14.890625 25.203125 
Q 15.484375 15.921875 20.484375 11.0625 
Q 25.484375 6.203125 34.421875 6.203125 
Q 39.59375 6.203125 44.453125 7.46875 
Q 49.3125 8.734375 54.109375 11.28125 
L 54.109375 2.78125 
Q 49.265625 0.734375 44.1875 -0.34375 
Q 39.109375 -1.421875 33.890625 -1.421875 
Q 20.796875 -1.421875 13.15625 6.1875 
Q 5.515625 13.8125 5.515625 26.8125 
Q 5.515625 40.234375 12.765625 48.109375 
Q 20.015625 56 32.328125 56 
Q 43.359375 56 49.78125 48.890625 
Q 56.203125 41.796875 56.203125 29.59375 
z
M 47.21875 32.234375 
Q 47.125 39.59375 43.09375 43.984375 
Q 39.0625 48.390625 32.421875 48.390625 
Q 24.90625 48.390625 20.390625 44.140625 
Q 15.875 39.890625 15.1875 32.171875 
z
" id="DejaVuSans-101"/>
     <path d="M 34.28125 27.484375 
Q 23.390625 27.484375 19.1875 25 
Q 14.984375 22.515625 14.984375 16.5 
Q 14.984375 11.71875 18.140625 8.90625 
Q 21.296875 6.109375 26.703125 6.109375 
Q 34.1875 6.109375 38.703125 11.40625 
Q 43.21875 16.703125 43.21875 25.484375 
L 43.21875 27.484375 
z
M 52.203125 31.203125 
L 52.203125 0 
L 43.21875 0 
L 43.21875 8.296875 
Q 40.140625 3.328125 35.546875 0.953125 
Q 30.953125 -1.421875 24.3125 -1.421875 
Q 15.921875 -1.421875 10.953125 3.296875 
Q 6 8.015625 6 15.921875 
Q 6 25.140625 12.171875 29.828125 
Q 18.359375 34.515625 30.609375 34.515625 
L 43.21875 34.515625 
L 43.21875 35.40625 
Q 43.21875 41.609375 39.140625 45 
Q 35.0625 48.390625 27.6875 48.390625 
Q 23 48.390625 18.546875 47.265625 
Q 14.109375 46.140625 10.015625 43.890625 
L 10.015625 52.203125 
Q 14.9375 54.109375 19.578125 55.046875 
Q 24.21875 56 28.609375 56 
Q 40.484375 56 46.34375 49.84375 
Q 52.203125 43.703125 52.203125 31.203125 
z
" id="DejaVuSans-97"/>
     <path d="M 41.109375 46.296875 
Q 39.59375 47.171875 37.8125 47.578125 
Q 36.03125 48 33.890625 48 
Q 26.265625 48 22.1875 43.046875 
Q 18.109375 38.09375 18.109375 28.8125 
L 18.109375 0 
L 9.078125 0 
L 9.078125 54.6875 
L 18.109375 54.6875 
L 18.109375 46.1875 
Q 20.953125 51.171875 25.484375 53.578125 
Q 30.03125 56 36.53125 56 
Q 37.453125 56 38.578125 55.875 
Q 39.703125 55.765625 41.0625 55.515625 
z
" id="DejaVuSans-114"/>
     <path d="M 64.40625 67.28125 
L 64.40625 56.890625 
Q 59.421875 61.53125 53.78125 63.8125 
Q 48.140625 66.109375 41.796875 66.109375 
Q 29.296875 66.109375 22.65625 58.46875 
Q 16.015625 50.828125 16.015625 36.375 
Q 16.015625 21.96875 22.65625 14.328125 
Q 29.296875 6.6875 41.796875 6.6875 
Q 48.140625 6.6875 53.78125 8.984375 
Q 59.421875 11.28125 64.40625 15.921875 
L 64.40625 5.609375 
Q 59.234375 2.09375 53.4375 0.328125 
Q 47.65625 -1.421875 41.21875 -1.421875 
Q 24.65625 -1.421875 15.125 8.703125 
Q 5.609375 18.84375 5.609375 36.375 
Q 5.609375 53.953125 15.125 64.078125 
Q 24.65625 74.21875 41.21875 74.21875 
Q 47.75 74.21875 53.53125 72.484375 
Q 59.328125 70.75 64.40625 67.28125 
z
" id="DejaVuSans-67"/>
     <path d="M 30.609375 48.390625 
Q 23.390625 48.390625 19.1875 42.75 
Q 14.984375 37.109375 14.984375 27.296875 
Q 14.984375 17.484375 19.15625 11.84375 
Q 23.34375 6.203125 30.609375 6.203125 
Q 37.796875 6.203125 41.984375 11.859375 
Q 46.1875 17.53125 46.1875 27.296875 
Q 46.1875 37.015625 41.984375 42.703125 
Q 37.796875 48.390625 30.609375 48.390625 
z
M 30.609375 56 
Q 42.328125 56 49.015625 48.375 
Q 55.71875 40.765625 55.71875 27.296875 
Q 55.71875 13.875 49.015625 6.21875 
Q 42.328125 -1.421875 30.609375 -1.421875 
Q 18.84375 -1.421875 12.171875 6.21875 
Q 5.515625 13.875 5.515625 27.296875 
Q 5.515625 40.765625 12.171875 48.375 
Q 18.84375 56 30.609375 56 
z
" id="DejaVuSans-111"/>
     <path d="M 2.984375 54.6875 
L 12.5 54.6875 
L 29.59375 8.796875 
L 46.6875 54.6875 
L 56.203125 54.6875 
L 35.6875 0 
L 23.484375 0 
z
" id="DejaVuSans-118"/>
     <path d="M 48.78125 52.59375 
L 48.78125 44.1875 
Q 44.96875 46.296875 41.140625 47.34375 
Q 37.3125 48.390625 33.40625 48.390625 
Q 24.65625 48.390625 19.8125 42.84375 
Q 14.984375 37.3125 14.984375 27.296875 
Q 14.984375 17.28125 19.8125 11.734375 
Q 24.65625 6.203125 33.40625 6.203125 
Q 37.3125 6.203125 41.140625 7.25 
Q 44.96875 8.296875 48.78125 10.40625 
L 48.78125 2.09375 
Q 45.015625 0.34375 40.984375 -0.53125 
Q 36.96875 -1.421875 32.421875 -1.421875 
Q 20.0625 -1.421875 12.78125 6.34375 
Q 5.515625 14.109375 5.515625 27.296875 
Q 5.515625 40.671875 12.859375 48.328125 
Q 20.21875 56 33.015625 56 
Q 37.15625 56 41.109375 55.140625 
Q 45.0625 54.296875 48.78125 52.59375 
z
" id="DejaVuSans-99"/>
    </defs>
    <g transform="translate(217.6875 54.668928)scale(0.12 -0.12)">
     <use xlink:href="#DejaVuSans-49"/>
     <use x="63.623047" xlink:href="#DejaVuSans-68"/>
     <use x="140.625" xlink:href="#DejaVuSans-32"/>
     <use x="172.412109" xlink:href="#DejaVuSans-76"/>
     <use x="228.125" xlink:href="#DejaVuSans-105"/>
     <use x="255.908203" xlink:href="#DejaVuSans-110"/>
     <use x="319.287109" xlink:href="#DejaVuSans-101"/>
     <use x="380.810547" xlink:href="#DejaVuSans-97"/>
     <use x="442.089844" xlink:href="#DejaVuSans-114"/>
     <use x="483.203125" xlink:href="#DejaVuSans-32"/>
     <use x="514.990234" xlink:href="#DejaVuSans-67"/>
     <use x="584.814453" xlink:href="#DejaVuSans-111"/>
     <use x="645.996094" xlink:href="#DejaVuSans-110"/>
     <use x="709.375" xlink:href="#DejaVuSans-118"/>
     <use x="768.554688" xlink:href="#DejaVuSans-101"/>
     <use x="830.078125" xlink:href="#DejaVuSans-99"/>
     <use x="885.058594" xlink:href="#DejaVuSans-116"/>
     <use x="924.267578" xlink:href="#DejaVuSans-105"/>
     <use x="952.050781" xlink:href="#DejaVuSans-111"/>
     <use x="1013.232422" xlink:href="#DejaVuSans-110"/>
    </g>
   </g>
  </g>
 </g>
 <defs>
  <clipPath id="pfe7d040e30">
   <rect height="257.2416" width="426.87" x="68.85" y="40.0896"/>
  </clipPath>
 </defs>
</svg>
