<?xml version="1.0" encoding="utf-8" standalone="no"?>
<!DOCTYPE svg PUBLIC "-//W3C//DTD SVG 1.1//EN"
  "http://www.w3.org/Graphics/SVG/1.1/DTD/svg11.dtd">
<!-- Created with matplotlib (https://matplotlib.org/) -->
<svg height="288.72pt" version="1.1" viewBox="0 0 550.8 288.72" width="550.8pt" xmlns="http://www.w3.org/2000/svg" xmlns:xlink="http://www.w3.org/1999/xlink">
 <defs>
  <style type="text/css">
*{stroke-linecap:butt;stroke-linejoin:round;}
  </style>
 </defs>
 <g id="figure_1">
  <g id="patch_1">
   <path d="M 0 288.72 
L 550.8 288.72 
L 550.8 0 
L 0 0 
z
" style="fill:#ffffff;"/>
  </g>
  <g id="patch_2">
   <path d="M 68.85 256.9608 
L 495.72 256.9608 
L 495.72 34.6464 
L 68.85 34.6464 
z
" style="fill:#ffffff;"/>
  </g>
  <g id="pane3d_1">
   <g id="patch_3">
    <path d="M 125.438215 207.837152 
L 247.610642 153.330699 
L 245.576601 49.177812 
L 116.59226 98.15074 
" style="fill:#f2f2f2;opacity:0.5;stroke:#f2f2f2;stroke-linejoin:miter;"/>
   </g>
  </g>
  <g id="pane3d_2">
   <g id="patch_4">
    <path d="M 247.610642 153.330699 
L 445.518488 183.803324 
L 453.798715 76.509749 
L 245.576601 49.177812 
" style="fill:#e6e6e6;opacity:0.5;stroke:#e6e6e6;stroke-linejoin:miter;"/>
   </g>
  </g>
  <g id="pane3d_3">
   <g id="patch_5">
    <path d="M 125.438215 207.837152 
L 333.664011 243.327489 
L 445.518488 183.803324 
L 247.610642 153.330699 
" style="fill:#ececec;opacity:0.5;stroke:#ececec;stroke-linejoin:miter;"/>
   </g>
  </g>
  <g id="axis3d_1">
   <g id="line2d_1">
    <path d="M 125.438215 207.837152 
L 333.664011 243.327489 
" style="fill:none;stroke:#000000;stroke-linecap:square;stroke-width:0.8;"/>
   </g>
   <g id="text_1">
    <!-- x -->
    <defs>
     <path d="M 54.890625 54.6875 
L 35.109375 28.078125 
L 55.90625 0 
L 45.3125 0 
L 29.390625 21.484375 
L 13.484375 0 
L 2.875 0 
L 24.125 28.609375 
L 4.6875 54.6875 
L 15.28125 54.6875 
L 29.78125 35.203125 
L 44.28125 54.6875 
z
" id="DejaVuSans-120"/>
    </defs>
    <g transform="translate(205.897696 252.71794)scale(0.1 -0.1)">
     <use xlink:href="#DejaVuSans-120"/>
    </g>
   </g>
   <g id="Line3DCollection_1">
    <path d="M 138.133004 210.000873 
L 259.714437 155.194366 
L 258.285185 50.845984 
" style="fill:none;stroke:#b0b0b0;stroke-width:0.8;"/>
    <path d="M 160.064756 213.738955 
L 280.613501 158.412275 
L 280.236475 53.727384 
" style="fill:none;stroke:#b0b0b0;stroke-width:0.8;"/>
    <path d="M 182.213031 217.513943 
L 301.703897 161.659643 
L 302.398964 56.636507 
" style="fill:none;stroke:#b0b0b0;stroke-width:0.8;"/>
    <path d="M 204.581052 221.326384 
L 322.988265 164.936879 
L 324.775714 59.573755 
" style="fill:none;stroke:#b0b0b0;stroke-width:0.8;"/>
    <path d="M 227.172104 225.176839 
L 344.469294 168.244394 
L 347.369848 62.539537 
" style="fill:none;stroke:#b0b0b0;stroke-width:0.8;"/>
    <path d="M 249.989542 229.065879 
L 366.149721 171.582612 
L 370.184548 65.534272 
" style="fill:none;stroke:#b0b0b0;stroke-width:0.8;"/>
    <path d="M 273.036784 232.994088 
L 388.032335 174.951962 
L 393.223061 68.558384 
" style="fill:none;stroke:#b0b0b0;stroke-width:0.8;"/>
    <path d="M 296.31732 236.96206 
L 410.11998 178.352881 
L 416.488696 71.61231 
" style="fill:none;stroke:#b0b0b0;stroke-width:0.8;"/>
    <path d="M 319.834711 240.970401 
L 432.415548 181.785814 
L 439.984828 74.696492 
" style="fill:none;stroke:#b0b0b0;stroke-width:0.8;"/>
   </g>
   <g id="xtick_1">
    <g id="line2d_2">
     <path d="M 139.180491 209.528686 
L 136.034124 210.947006 
" style="fill:none;stroke:#000000;stroke-linecap:square;stroke-width:0.8;"/>
    </g>
    <g id="text_2">
     <!-- 0.00 -->
     <defs>
      <path d="M 31.78125 66.40625 
Q 24.171875 66.40625 20.328125 58.90625 
Q 16.5 51.421875 16.5 36.375 
Q 16.5 21.390625 20.328125 13.890625 
Q 24.171875 6.390625 31.78125 6.390625 
Q 39.453125 6.390625 43.28125 13.890625 
Q 47.125 21.390625 47.125 36.375 
Q 47.125 51.421875 43.28125 58.90625 
Q 39.453125 66.40625 31.78125 66.40625 
z
M 31.78125 74.21875 
Q 44.046875 74.21875 50.515625 64.515625 
Q 56.984375 54.828125 56.984375 36.375 
Q 56.984375 17.96875 50.515625 8.265625 
Q 44.046875 -1.421875 31.78125 -1.421875 
Q 19.53125 -1.421875 13.0625 8.265625 
Q 6.59375 17.96875 6.59375 36.375 
Q 6.59375 54.828125 13.0625 64.515625 
Q 19.53125 74.21875 31.78125 74.21875 
z
" id="DejaVuSans-48"/>
      <path d="M 10.6875 12.40625 
L 21 12.40625 
L 21 0 
L 10.6875 0 
z
" id="DejaVuSans-46"/>
     </defs>
     <g transform="translate(118.600766 228.725281)scale(0.1 -0.1)">
      <use xlink:href="#DejaVuSans-48"/>
      <use x="63.623047" xlink:href="#DejaVuSans-46"/>
      <use x="95.410156" xlink:href="#DejaVuSans-48"/>
      <use x="159.033203" xlink:href="#DejaVuSans-48"/>
     </g>
    </g>
   </g>
   <g id="xtick_2">
    <g id="line2d_3">
     <path d="M 161.10371 213.26212 
L 157.982954 214.694413 
" style="fill:none;stroke:#000000;stroke-linecap:square;stroke-width:0.8;"/>
    </g>
    <g id="text_3">
     <!-- 0.25 -->
     <defs>
      <path d="M 19.1875 8.296875 
L 53.609375 8.296875 
L 53.609375 0 
L 7.328125 0 
L 7.328125 8.296875 
Q 12.9375 14.109375 22.625 23.890625 
Q 32.328125 33.6875 34.8125 36.53125 
Q 39.546875 41.84375 41.421875 45.53125 
Q 43.3125 49.21875 43.3125 52.78125 
Q 43.3125 58.59375 39.234375 62.25 
Q 35.15625 65.921875 28.609375 65.921875 
Q 23.96875 65.921875 18.8125 64.3125 
Q 13.671875 62.703125 7.8125 59.421875 
L 7.8125 69.390625 
Q 13.765625 71.78125 18.9375 73 
Q 24.125 74.21875 28.421875 74.21875 
Q 39.75 74.21875 46.484375 68.546875 
Q 53.21875 62.890625 53.21875 53.421875 
Q 53.21875 48.921875 51.53125 44.890625 
Q 49.859375 40.875 45.40625 35.40625 
Q 44.1875 33.984375 37.640625 27.21875 
Q 31.109375 20.453125 19.1875 8.296875 
z
" id="DejaVuSans-50"/>
      <path d="M 10.796875 72.90625 
L 49.515625 72.90625 
L 49.515625 64.59375 
L 19.828125 64.59375 
L 19.828125 46.734375 
Q 21.96875 47.46875 24.109375 47.828125 
Q 26.265625 48.1875 28.421875 48.1875 
Q 40.625 48.1875 47.75 41.5 
Q 54.890625 34.8125 54.890625 23.390625 
Q 54.890625 11.625 47.5625 5.09375 
Q 40.234375 -1.421875 26.90625 -1.421875 
Q 22.3125 -1.421875 17.546875 -0.640625 
Q 12.796875 0.140625 7.71875 1.703125 
L 7.71875 11.625 
Q 12.109375 9.234375 16.796875 8.0625 
Q 21.484375 6.890625 26.703125 6.890625 
Q 35.15625 6.890625 40.078125 11.328125 
Q 45.015625 15.765625 45.015625 23.390625 
Q 45.015625 31 40.078125 35.4375 
Q 35.15625 39.890625 26.703125 39.890625 
Q 22.75 39.890625 18.8125 39.015625 
Q 14.890625 38.140625 10.796875 36.28125 
z
" id="DejaVuSans-53"/>
     </defs>
     <g transform="translate(140.530038 232.524734)scale(0.1 -0.1)">
      <use xlink:href="#DejaVuSans-48"/>
      <use x="63.623047" xlink:href="#DejaVuSans-46"/>
      <use x="95.410156" xlink:href="#DejaVuSans-50"/>
      <use x="159.033203" xlink:href="#DejaVuSans-53"/>
     </g>
    </g>
   </g>
   <g id="xtick_3">
    <g id="line2d_4">
     <path d="M 183.243232 217.03239 
L 180.148749 218.478862 
" style="fill:none;stroke:#000000;stroke-linecap:square;stroke-width:0.8;"/>
    </g>
    <g id="text_4">
     <!-- 0.50 -->
     <g transform="translate(162.676195 236.361765)scale(0.1 -0.1)">
      <use xlink:href="#DejaVuSans-48"/>
      <use x="63.623047" xlink:href="#DejaVuSans-46"/>
      <use x="95.410156" xlink:href="#DejaVuSans-53"/>
      <use x="159.033203" xlink:href="#DejaVuSans-48"/>
     </g>
    </g>
   </g>
   <g id="xtick_4">
    <g id="line2d_5">
     <path d="M 205.602275 220.840043 
L 202.53474 222.300907 
" style="fill:none;stroke:#000000;stroke-linecap:square;stroke-width:0.8;"/>
    </g>
    <g id="text_5">
     <!-- 0.75 -->
     <defs>
      <path d="M 8.203125 72.90625 
L 55.078125 72.90625 
L 55.078125 68.703125 
L 28.609375 0 
L 18.3125 0 
L 43.21875 64.59375 
L 8.203125 64.59375 
z
" id="DejaVuSans-55"/>
     </defs>
     <g transform="translate(185.042469 240.236932)scale(0.1 -0.1)">
      <use xlink:href="#DejaVuSans-48"/>
      <use x="63.623047" xlink:href="#DejaVuSans-46"/>
      <use x="95.410156" xlink:href="#DejaVuSans-55"/>
      <use x="159.033203" xlink:href="#DejaVuSans-53"/>
     </g>
    </g>
   </g>
   <g id="xtick_5">
    <g id="line2d_6">
     <path d="M 228.184119 224.685638 
L 225.144225 226.161109 
" style="fill:none;stroke:#000000;stroke-linecap:square;stroke-width:0.8;"/>
    </g>
    <g id="text_6">
     <!-- 1.00 -->
     <defs>
      <path d="M 12.40625 8.296875 
L 28.515625 8.296875 
L 28.515625 63.921875 
L 10.984375 60.40625 
L 10.984375 69.390625 
L 28.421875 72.90625 
L 38.28125 72.90625 
L 38.28125 8.296875 
L 54.390625 8.296875 
L 54.390625 0 
L 12.40625 0 
z
" id="DejaVuSans-49"/>
     </defs>
     <g transform="translate(207.63216 244.150809)scale(0.1 -0.1)">
      <use xlink:href="#DejaVuSans-49"/>
      <use x="63.623047" xlink:href="#DejaVuSans-46"/>
      <use x="95.410156" xlink:href="#DejaVuSans-48"/>
      <use x="159.033203" xlink:href="#DejaVuSans-48"/>
     </g>
    </g>
   </g>
   <g id="xtick_6">
    <g id="line2d_7">
     <path d="M 250.992112 228.569746 
L 247.980569 230.060044 
" style="fill:none;stroke:#000000;stroke-linecap:square;stroke-width:0.8;"/>
    </g>
    <g id="text_7">
     <!-- 1.25 -->
     <g transform="translate(230.44863 248.103977)scale(0.1 -0.1)">
      <use xlink:href="#DejaVuSans-49"/>
      <use x="63.623047" xlink:href="#DejaVuSans-46"/>
      <use x="95.410156" xlink:href="#DejaVuSans-50"/>
      <use x="159.033203" xlink:href="#DejaVuSans-53"/>
     </g>
    </g>
   </g>
   <g id="xtick_7">
    <g id="line2d_8">
     <path d="M 274.029667 232.492947 
L 271.047202 233.998297 
" style="fill:none;stroke:#000000;stroke-linecap:square;stroke-width:0.8;"/>
    </g>
    <g id="text_8">
     <!-- 1.50 -->
     <g transform="translate(253.495313 252.097032)scale(0.1 -0.1)">
      <use xlink:href="#DejaVuSans-49"/>
      <use x="63.623047" xlink:href="#DejaVuSans-46"/>
      <use x="95.410156" xlink:href="#DejaVuSans-53"/>
      <use x="159.033203" xlink:href="#DejaVuSans-48"/>
     </g>
    </g>
   </g>
   <g id="xtick_8">
    <g id="line2d_9">
     <path d="M 297.300269 236.455834 
L 294.347627 237.976466 
" style="fill:none;stroke:#000000;stroke-linecap:square;stroke-width:0.8;"/>
    </g>
    <g id="text_9">
     <!-- 1.75 -->
     <g transform="translate(276.775709 256.13058)scale(0.1 -0.1)">
      <use xlink:href="#DejaVuSans-49"/>
      <use x="63.623047" xlink:href="#DejaVuSans-46"/>
      <use x="95.410156" xlink:href="#DejaVuSans-55"/>
      <use x="159.033203" xlink:href="#DejaVuSans-53"/>
     </g>
    </g>
   </g>
   <g id="xtick_9">
    <g id="line2d_10">
     <path d="M 320.807471 240.459014 
L 317.885414 241.995161 
" style="fill:none;stroke:#000000;stroke-linecap:square;stroke-width:0.8;"/>
    </g>
    <g id="text_10">
     <!-- 2.00 -->
     <g transform="translate(300.293394 260.20524)scale(0.1 -0.1)">
      <use xlink:href="#DejaVuSans-50"/>
      <use x="63.623047" xlink:href="#DejaVuSans-46"/>
      <use x="95.410156" xlink:href="#DejaVuSans-48"/>
      <use x="159.033203" xlink:href="#DejaVuSans-48"/>
     </g>
    </g>
   </g>
  </g>
  <g id="axis3d_2">
   <g id="line2d_11">
    <path d="M 445.518488 183.803324 
L 333.664011 243.327489 
" style="fill:none;stroke:#000000;stroke-linecap:square;stroke-width:0.8;"/>
   </g>
   <g id="text_11">
    <!-- t -->
    <defs>
     <path d="M 18.3125 70.21875 
L 18.3125 54.6875 
L 36.8125 54.6875 
L 36.8125 47.703125 
L 18.3125 47.703125 
L 18.3125 18.015625 
Q 18.3125 11.328125 20.140625 9.421875 
Q 21.96875 7.515625 27.59375 7.515625 
L 36.8125 7.515625 
L 36.8125 0 
L 27.59375 0 
Q 17.1875 0 13.234375 3.875 
Q 9.28125 7.765625 9.28125 18.015625 
L 9.28125 47.703125 
L 2.6875 47.703125 
L 2.6875 54.6875 
L 9.28125 54.6875 
L 9.28125 70.21875 
z
" id="DejaVuSans-116"/>
    </defs>
    <g transform="translate(420.344352 235.660413)scale(0.1 -0.1)">
     <use xlink:href="#DejaVuSans-116"/>
    </g>
   </g>
   <g id="Line3DCollection_2">
    <path d="M 125.42425 94.797399 
L 133.773432 204.118448 
L 341.319167 239.253743 
" style="fill:none;stroke:#b0b0b0;stroke-width:0.8;"/>
    <path d="M 187.350457 71.285184 
L 192.341526 177.988664 
L 395.009988 210.681786 
" style="fill:none;stroke:#b0b0b0;stroke-width:0.8;"/>
    <path d="M 237.951127 52.073061 
L 240.361337 156.56493 
L 438.902324 187.324163 
" style="fill:none;stroke:#b0b0b0;stroke-width:0.8;"/>
   </g>
   <g id="xtick_10">
    <g id="line2d_12">
     <path d="M 339.582192 238.959691 
L 344.797 239.842503 
" style="fill:none;stroke:#000000;stroke-linecap:square;stroke-width:0.8;"/>
    </g>
    <g id="text_12">
     <!-- 0.00 -->
     <g transform="translate(344.759504 256.603145)scale(0.1 -0.1)">
      <use xlink:href="#DejaVuSans-48"/>
      <use x="63.623047" xlink:href="#DejaVuSans-46"/>
      <use x="95.410156" xlink:href="#DejaVuSans-48"/>
      <use x="159.033203" xlink:href="#DejaVuSans-48"/>
     </g>
    </g>
   </g>
   <g id="xtick_11">
    <g id="line2d_13">
     <path d="M 393.316535 210.40861 
L 398.400541 211.228728 
" style="fill:none;stroke:#000000;stroke-linecap:square;stroke-width:0.8;"/>
    </g>
    <g id="text_13">
     <!-- 0.48 -->
     <defs>
      <path d="M 37.796875 64.3125 
L 12.890625 25.390625 
L 37.796875 25.390625 
z
M 35.203125 72.90625 
L 47.609375 72.90625 
L 47.609375 25.390625 
L 58.015625 25.390625 
L 58.015625 17.1875 
L 47.609375 17.1875 
L 47.609375 0 
L 37.796875 0 
L 37.796875 17.1875 
L 4.890625 17.1875 
L 4.890625 26.703125 
z
" id="DejaVuSans-52"/>
      <path d="M 31.78125 34.625 
Q 24.75 34.625 20.71875 30.859375 
Q 16.703125 27.09375 16.703125 20.515625 
Q 16.703125 13.921875 20.71875 10.15625 
Q 24.75 6.390625 31.78125 6.390625 
Q 38.8125 6.390625 42.859375 10.171875 
Q 46.921875 13.96875 46.921875 20.515625 
Q 46.921875 27.09375 42.890625 30.859375 
Q 38.875 34.625 31.78125 34.625 
z
M 21.921875 38.8125 
Q 15.578125 40.375 12.03125 44.71875 
Q 8.5 49.078125 8.5 55.328125 
Q 8.5 64.0625 14.71875 69.140625 
Q 20.953125 74.21875 31.78125 74.21875 
Q 42.671875 74.21875 48.875 69.140625 
Q 55.078125 64.0625 55.078125 55.328125 
Q 55.078125 49.078125 51.53125 44.71875 
Q 48 40.375 41.703125 38.8125 
Q 48.828125 37.15625 52.796875 32.3125 
Q 56.78125 27.484375 56.78125 20.515625 
Q 56.78125 9.90625 50.3125 4.234375 
Q 43.84375 -1.421875 31.78125 -1.421875 
Q 19.734375 -1.421875 13.25 4.234375 
Q 6.78125 9.90625 6.78125 20.515625 
Q 6.78125 27.484375 10.78125 32.3125 
Q 14.796875 37.15625 21.921875 38.8125 
z
M 18.3125 54.390625 
Q 18.3125 48.734375 21.84375 45.5625 
Q 25.390625 42.390625 31.78125 42.390625 
Q 38.140625 42.390625 41.71875 45.5625 
Q 45.3125 48.734375 45.3125 54.390625 
Q 45.3125 60.0625 41.71875 63.234375 
Q 38.140625 66.40625 31.78125 66.40625 
Q 25.390625 66.40625 21.84375 63.234375 
Q 18.3125 60.0625 18.3125 54.390625 
z
" id="DejaVuSans-56"/>
     </defs>
     <g transform="translate(397.898349 227.692284)scale(0.1 -0.1)">
      <use xlink:href="#DejaVuSans-48"/>
      <use x="63.623047" xlink:href="#DejaVuSans-46"/>
      <use x="95.410156" xlink:href="#DejaVuSans-52"/>
      <use x="159.033203" xlink:href="#DejaVuSans-56"/>
     </g>
    </g>
   </g>
   <g id="xtick_12">
    <g id="line2d_14">
     <path d="M 437.245524 187.067482 
L 442.219382 187.838063 
" style="fill:none;stroke:#000000;stroke-linecap:square;stroke-width:0.8;"/>
    </g>
    <g id="text_14">
     <!-- 0.90 -->
     <defs>
      <path d="M 10.984375 1.515625 
L 10.984375 10.5 
Q 14.703125 8.734375 18.5 7.8125 
Q 22.3125 6.890625 25.984375 6.890625 
Q 35.75 6.890625 40.890625 13.453125 
Q 46.046875 20.015625 46.78125 33.40625 
Q 43.953125 29.203125 39.59375 26.953125 
Q 35.25 24.703125 29.984375 24.703125 
Q 19.046875 24.703125 12.671875 31.3125 
Q 6.296875 37.9375 6.296875 49.421875 
Q 6.296875 60.640625 12.9375 67.421875 
Q 19.578125 74.21875 30.609375 74.21875 
Q 43.265625 74.21875 49.921875 64.515625 
Q 56.59375 54.828125 56.59375 36.375 
Q 56.59375 19.140625 48.40625 8.859375 
Q 40.234375 -1.421875 26.421875 -1.421875 
Q 22.703125 -1.421875 18.890625 -0.6875 
Q 15.09375 0.046875 10.984375 1.515625 
z
M 30.609375 32.421875 
Q 37.25 32.421875 41.125 36.953125 
Q 45.015625 41.5 45.015625 49.421875 
Q 45.015625 57.28125 41.125 61.84375 
Q 37.25 66.40625 30.609375 66.40625 
Q 23.96875 66.40625 20.09375 61.84375 
Q 16.21875 57.28125 16.21875 49.421875 
Q 16.21875 41.5 20.09375 36.953125 
Q 23.96875 32.421875 30.609375 32.421875 
z
" id="DejaVuSans-57"/>
     </defs>
     <g transform="translate(441.340841 204.056845)scale(0.1 -0.1)">
      <use xlink:href="#DejaVuSans-48"/>
      <use x="63.623047" xlink:href="#DejaVuSans-46"/>
      <use x="95.410156" xlink:href="#DejaVuSans-57"/>
      <use x="159.033203" xlink:href="#DejaVuSans-48"/>
     </g>
    </g>
   </g>
  </g>
  <g id="axis3d_3">
   <g id="line2d_15">
    <path d="M 445.518488 183.803324 
L 453.798715 76.509749 
" style="fill:none;stroke:#000000;stroke-linecap:square;stroke-width:0.8;"/>
   </g>
   <g id="text_15">
    <!-- $u(x, t)$ -->
    <defs>
     <path d="M 6.6875 21.6875 
L 13.09375 54.6875 
L 22.125 54.6875 
L 15.71875 22.015625 
Q 15.234375 19.625 15.015625 17.921875 
Q 14.796875 16.21875 14.796875 15.09375 
Q 14.796875 10.9375 17.328125 8.65625 
Q 19.875 6.390625 24.515625 6.390625 
Q 31.734375 6.390625 37 11.265625 
Q 42.28125 16.15625 43.890625 24.421875 
L 49.90625 54.6875 
L 58.890625 54.6875 
L 48.296875 0 
L 39.3125 0 
L 41.109375 8.59375 
Q 37.3125 3.8125 32.0625 1.1875 
Q 26.8125 -1.421875 20.90625 -1.421875 
Q 13.71875 -1.421875 9.71875 2.515625 
Q 5.71875 6.453125 5.71875 13.484375 
Q 5.71875 14.9375 5.953125 17.140625 
Q 6.203125 19.34375 6.6875 21.6875 
z
" id="DejaVuSans-Oblique-117"/>
     <path d="M 31 75.875 
Q 24.46875 64.65625 21.28125 53.65625 
Q 18.109375 42.671875 18.109375 31.390625 
Q 18.109375 20.125 21.3125 9.0625 
Q 24.515625 -2 31 -13.1875 
L 23.1875 -13.1875 
Q 15.875 -1.703125 12.234375 9.375 
Q 8.59375 20.453125 8.59375 31.390625 
Q 8.59375 42.28125 12.203125 53.3125 
Q 15.828125 64.359375 23.1875 75.875 
z
" id="DejaVuSans-40"/>
     <path d="M 60.015625 54.6875 
L 34.90625 27.875 
L 50.296875 0 
L 39.984375 0 
L 28.421875 21.6875 
L 8.296875 0 
L -2.59375 0 
L 24.3125 28.8125 
L 10.015625 54.6875 
L 20.3125 54.6875 
L 30.8125 34.90625 
L 49.125 54.6875 
z
" id="DejaVuSans-Oblique-120"/>
     <path d="M 11.71875 12.40625 
L 22.015625 12.40625 
L 22.015625 4 
L 14.015625 -11.625 
L 7.71875 -11.625 
L 11.71875 4 
z
" id="DejaVuSans-44"/>
     <path d="M 42.28125 54.6875 
L 40.921875 47.703125 
L 23 47.703125 
L 17.1875 18.015625 
Q 16.890625 16.359375 16.75 15.234375 
Q 16.609375 14.109375 16.609375 13.484375 
Q 16.609375 10.359375 18.484375 8.9375 
Q 20.359375 7.515625 24.515625 7.515625 
L 33.59375 7.515625 
L 32.078125 0 
L 23.484375 0 
Q 15.484375 0 11.546875 3.125 
Q 7.625 6.25 7.625 12.59375 
Q 7.625 13.71875 7.765625 15.0625 
Q 7.90625 16.40625 8.203125 18.015625 
L 14.015625 47.703125 
L 6.390625 47.703125 
L 7.8125 54.6875 
L 15.28125 54.6875 
L 18.3125 70.21875 
L 27.296875 70.21875 
L 24.3125 54.6875 
z
" id="DejaVuSans-Oblique-116"/>
     <path d="M 8.015625 75.875 
L 15.828125 75.875 
Q 23.140625 64.359375 26.78125 53.3125 
Q 30.421875 42.28125 30.421875 31.390625 
Q 30.421875 20.453125 26.78125 9.375 
Q 23.140625 -1.703125 15.828125 -13.1875 
L 8.015625 -13.1875 
Q 14.5 -2 17.703125 9.0625 
Q 20.90625 20.125 20.90625 31.390625 
Q 20.90625 42.671875 17.703125 53.65625 
Q 14.5 64.65625 8.015625 75.875 
z
" id="DejaVuSans-41"/>
    </defs>
    <g transform="translate(497.944198 143.037026)rotate(-85.587028)scale(0.1 -0.1)">
     <use transform="translate(0 0.125)" xlink:href="#DejaVuSans-Oblique-117"/>
     <use transform="translate(63.378906 0.125)" xlink:href="#DejaVuSans-40"/>
     <use transform="translate(102.392578 0.125)" xlink:href="#DejaVuSans-Oblique-120"/>
     <use transform="translate(161.572266 0.125)" xlink:href="#DejaVuSans-44"/>
     <use transform="translate(212.841797 0.125)" xlink:href="#DejaVuSans-Oblique-116"/>
     <use transform="translate(252.050781 0.125)" xlink:href="#DejaVuSans-41"/>
    </g>
   </g>
   <g id="Line3DCollection_3">
    <path d="M 446.582238 170.01946 
L 247.348835 139.924893 
L 124.303491 193.767011 
" style="fill:none;stroke:#b0b0b0;stroke-width:0.8;"/>
    <path d="M 447.692293 155.635591 
L 247.075788 125.943541 
L 123.118837 179.07777 
" style="fill:none;stroke:#b0b0b0;stroke-width:0.8;"/>
    <path d="M 448.818002 141.048862 
L 246.799053 111.773348 
L 121.916918 164.17444 
" style="fill:none;stroke:#b0b0b0;stroke-width:0.8;"/>
    <path d="M 449.959701 126.254953 
L 246.518555 97.410464 
L 120.697353 149.052307 
" style="fill:none;stroke:#b0b0b0;stroke-width:0.8;"/>
    <path d="M 451.117732 111.249417 
L 246.234216 82.850929 
L 119.459751 133.706518 
" style="fill:none;stroke:#b0b0b0;stroke-width:0.8;"/>
    <path d="M 452.292447 96.027682 
L 245.945957 68.090677 
L 118.203708 118.132072 
" style="fill:none;stroke:#b0b0b0;stroke-width:0.8;"/>
    <path d="M 453.484211 80.58504 
L 245.653697 53.12553 
L 116.928809 102.323822 
" style="fill:none;stroke:#b0b0b0;stroke-width:0.8;"/>
   </g>
   <g id="xtick_13">
    <g id="line2d_16">
     <path d="M 444.919527 169.768305 
L 449.91114 170.522297 
" style="fill:none;stroke:#000000;stroke-linecap:square;stroke-width:0.8;"/>
    </g>
    <g id="text_16">
     <!-- −4 -->
     <defs>
      <path d="M 10.59375 35.5 
L 73.1875 35.5 
L 73.1875 27.203125 
L 10.59375 27.203125 
z
" id="DejaVuSans-8722"/>
     </defs>
     <g transform="translate(460.38882 176.057392)scale(0.1 -0.1)">
      <use xlink:href="#DejaVuSans-8722"/>
      <use x="83.789062" xlink:href="#DejaVuSans-52"/>
     </g>
    </g>
   </g>
   <g id="xtick_14">
    <g id="line2d_17">
     <path d="M 446.017553 155.387722 
L 451.0453 156.131849 
" style="fill:none;stroke:#000000;stroke-linecap:square;stroke-width:0.8;"/>
    </g>
    <g id="text_17">
     <!-- −2 -->
     <g transform="translate(461.644423 161.693967)scale(0.1 -0.1)">
      <use xlink:href="#DejaVuSans-8722"/>
      <use x="83.789062" xlink:href="#DejaVuSans-50"/>
     </g>
    </g>
   </g>
   <g id="xtick_15">
    <g id="line2d_18">
     <path d="M 447.13106 140.804399 
L 452.195467 141.538306 
" style="fill:none;stroke:#000000;stroke-linecap:square;stroke-width:0.8;"/>
    </g>
    <g id="text_18">
     <!-- 0 -->
     <g transform="translate(467.107539 147.128417)scale(0.1 -0.1)">
      <use xlink:href="#DejaVuSans-48"/>
     </g>
    </g>
   </g>
   <g id="xtick_16">
    <g id="line2d_19">
     <path d="M 448.260376 126.014018 
L 453.361981 126.737338 
" style="fill:none;stroke:#000000;stroke-linecap:square;stroke-width:0.8;"/>
    </g>
    <g id="text_19">
     <!-- 2 -->
     <g transform="translate(468.398856 132.356444)scale(0.1 -0.1)">
      <use xlink:href="#DejaVuSans-50"/>
     </g>
    </g>
   </g>
   <g id="xtick_17">
    <g id="line2d_20">
     <path d="M 449.405842 111.012136 
L 454.545195 111.724491 
" style="fill:none;stroke:#000000;stroke-linecap:square;stroke-width:0.8;"/>
    </g>
    <g id="text_20">
     <!-- 4 -->
     <g transform="translate(469.708604 117.373629)scale(0.1 -0.1)">
      <use xlink:href="#DejaVuSans-52"/>
     </g>
    </g>
   </g>
   <g id="xtick_18">
    <g id="line2d_21">
     <path d="M 450.567806 95.794185 
L 455.745469 96.495183 
" style="fill:none;stroke:#000000;stroke-linecap:square;stroke-width:0.8;"/>
    </g>
    <g id="text_21">
     <!-- 6 -->
     <defs>
      <path d="M 33.015625 40.375 
Q 26.375 40.375 22.484375 35.828125 
Q 18.609375 31.296875 18.609375 23.390625 
Q 18.609375 15.53125 22.484375 10.953125 
Q 26.375 6.390625 33.015625 6.390625 
Q 39.65625 6.390625 43.53125 10.953125 
Q 47.40625 15.53125 47.40625 23.390625 
Q 47.40625 31.296875 43.53125 35.828125 
Q 39.65625 40.375 33.015625 40.375 
z
M 52.59375 71.296875 
L 52.59375 62.3125 
Q 48.875 64.0625 45.09375 64.984375 
Q 41.3125 65.921875 37.59375 65.921875 
Q 27.828125 65.921875 22.671875 59.328125 
Q 17.53125 52.734375 16.796875 39.40625 
Q 19.671875 43.65625 24.015625 45.921875 
Q 28.375 48.1875 33.59375 48.1875 
Q 44.578125 48.1875 50.953125 41.515625 
Q 57.328125 34.859375 57.328125 23.390625 
Q 57.328125 12.15625 50.6875 5.359375 
Q 44.046875 -1.421875 33.015625 -1.421875 
Q 20.359375 -1.421875 13.671875 8.265625 
Q 6.984375 17.96875 6.984375 36.375 
Q 6.984375 53.65625 15.1875 63.9375 
Q 23.390625 74.21875 37.203125 74.21875 
Q 40.921875 74.21875 44.703125 73.484375 
Q 48.484375 72.75 52.59375 71.296875 
z
" id="DejaVuSans-54"/>
     </defs>
     <g transform="translate(471.03718 102.175426)scale(0.1 -0.1)">
      <use xlink:href="#DejaVuSans-54"/>
     </g>
    </g>
   </g>
   <g id="xtick_19">
    <g id="line2d_22">
     <path d="M 451.746626 80.355463 
L 456.963174 81.044697 
" style="fill:none;stroke:#000000;stroke-linecap:square;stroke-width:0.8;"/>
    </g>
    <g id="text_22">
     <!-- 8 -->
     <g transform="translate(472.384994 86.757155)scale(0.1 -0.1)">
      <use xlink:href="#DejaVuSans-56"/>
     </g>
    </g>
   </g>
  </g>
  <g id="axes_1">
   <g id="Poly3DCollection_1">
    <path clip-path="url(#p14eb594064)" d="M 245.268446 133.088964 
L 253.393917 83.630743 
L 261.149803 147.858052 
L 251.083348 76.038321 
z
" style="fill:#472f7d;fill-opacity:0.8;"/>
    <path clip-path="url(#p14eb594064)" d="M 253.393917 83.630743 
L 263.330232 146.759832 
L 269.286446 62.679889 
L 261.149803 147.858052 
z
" style="fill:#38588c;fill-opacity:0.8;"/>
    <path clip-path="url(#p14eb594064)" d="M 237.581556 98.880112 
L 247.393955 135.170069 
L 253.393917 83.630743 
L 245.268446 133.088964 
z
" style="fill:#404688;fill-opacity:0.8;"/>
    <path clip-path="url(#p14eb594064)" d="M 263.330232 146.759832 
L 271.747576 75.144534 
L 279.003956 160.550779 
L 269.286446 62.679889 
z
" style="fill:#375b8d;fill-opacity:0.8;"/>
    <path clip-path="url(#p14eb594064)" d="M 247.393955 135.170069 
L 255.714576 90.509903 
L 263.330232 146.759832 
L 253.393917 83.630743 
z
" style="fill:#424186;fill-opacity:0.8;"/>
    <path clip-path="url(#p14eb594064)" d="M 271.747576 75.144534 
L 281.315483 151.94519 
L 287.91136 60.884111 
L 279.003956 160.550779 
z
" style="fill:#31688e;fill-opacity:0.8;"/>
    <path clip-path="url(#p14eb594064)" d="M 231.290364 127.549068 
L 239.762467 103.633399 
L 247.393955 135.170069 
L 237.581556 98.880112 
z
" style="fill:#472d7b;fill-opacity:0.8;"/>
    <path clip-path="url(#p14eb594064)" d="M 255.714576 90.509903 
L 265.543319 145.05947 
L 271.747576 75.144534 
L 263.330232 146.759832 
z
" style="fill:#34618d;fill-opacity:0.8;"/>
    <path clip-path="url(#p14eb594064)" d="M 281.315483 151.94519 
L 290.424658 82.584981 
L 296.905118 154.306999 
L 287.91136 60.884111 
z
" style="fill:#218f8d;fill-opacity:0.8;"/>
    <path clip-path="url(#p14eb594064)" d="M 290.424658 82.584981 
L 299.501854 138.455808 
L 306.540013 84.846797 
L 296.905118 154.306999 
z
" style="fill:#2e6e8e;fill-opacity:0.8;"/>
    <path clip-path="url(#p14eb594064)" d="M 239.762467 103.633399 
L 249.553028 137.396266 
L 255.714576 90.509903 
L 247.393955 135.170069 
z
" style="fill:#3b518b;fill-opacity:0.8;"/>
    <path clip-path="url(#p14eb594064)" d="M 265.543319 145.05947 
L 274.225438 88.3288 
L 281.315483 151.94519 
L 271.747576 75.144534 
z
" style="fill:#2c738e;fill-opacity:0.8;"/>
    <path clip-path="url(#p14eb594064)" d="M 223.799709 113.160134 
L 233.387776 131.366959 
L 239.762467 103.633399 
L 231.290364 127.549068 
z
" style="fill:#433d84;fill-opacity:0.8;"/>
    <path clip-path="url(#p14eb594064)" d="M 249.553028 137.396266 
L 258.06675 97.997545 
L 265.543319 145.05947 
L 255.714576 90.509903 
z
" style="fill:#38598c;fill-opacity:0.8;"/>
    <path clip-path="url(#p14eb594064)" d="M 274.225438 88.3288 
L 283.68614 143.249705 
L 290.424658 82.584981 
L 281.315483 151.94519 
z
" style="fill:#2c728e;fill-opacity:0.8;"/>
    <path clip-path="url(#p14eb594064)" d="M 299.501854 138.455808 
L 308.971393 109.929947 
L 315.403615 125.010043 
L 306.540013 84.846797 
z
" style="fill:#31b57b;fill-opacity:0.8;"/>
    <path clip-path="url(#p14eb594064)" d="M 308.971393 109.929947 
L 318.314585 111.262038 
L 324.639301 126.354984 
L 315.403615 125.010043 
z
" style="fill:#2e6f8e;fill-opacity:0.8;"/>
    <path clip-path="url(#p14eb594064)" d="M 233.387776 131.366959 
L 241.965949 108.244163 
L 249.553028 137.396266 
L 239.762467 103.633399 
z
" style="fill:#423f85;fill-opacity:0.8;"/>
    <path clip-path="url(#p14eb594064)" d="M 258.06675 97.997545 
L 267.788595 142.403794 
L 274.225438 88.3288 
L 265.543319 145.05947 
z
" style="fill:#2e6d8e;fill-opacity:0.8;"/>
    <path clip-path="url(#p14eb594064)" d="M 283.68614 143.249705 
L 292.933879 102.215035 
L 299.501854 138.455808 
L 290.424658 82.584981 
z
" style="fill:#1fa187;fill-opacity:0.8;"/>
    <path clip-path="url(#p14eb594064)" d="M 292.933879 102.215035 
L 302.152825 126.685387 
L 308.971393 109.929947 
L 299.501854 138.455808 
z
" style="fill:#297b8e;fill-opacity:0.8;"/>
    <path clip-path="url(#p14eb594064)" d="M 217.116625 127.955382 
L 225.874411 116.952146 
L 233.387776 131.366959 
L 223.799709 113.160134 
z
" style="fill:#482979;fill-opacity:0.8;"/>
    <path clip-path="url(#p14eb594064)" d="M 241.965949 108.244163 
L 251.730226 138.861707 
L 258.06675 97.997545 
L 249.553028 137.396266 
z
" style="fill:#355f8d;fill-opacity:0.8;"/>
    <path clip-path="url(#p14eb594064)" d="M 318.314585 111.262038 
L 327.132799 142.573687 
L 334.764561 88.720183 
L 324.639301 126.354984 
z
" style="fill:#31b57b;fill-opacity:0.8;"/>
    <path clip-path="url(#p14eb594064)" d="M 267.788595 142.403794 
L 276.715595 101.801605 
L 283.68614 143.249705 
L 274.225438 88.3288 
z
" style="fill:#238a8d;fill-opacity:0.8;"/>
    <path clip-path="url(#p14eb594064)" d="M 327.132799 142.573687 
L 337.692636 89.071272 
L 342.373968 161.242972 
L 334.764561 88.720183 
z
" style="fill:#2e6e8e;fill-opacity:0.8;"/>
    <path clip-path="url(#p14eb594064)" d="M 225.874411 116.952146 
L 235.507619 135.017849 
L 241.965949 108.244163 
L 233.387776 131.366959 
z
" style="fill:#3e4a89;fill-opacity:0.8;"/>
    <path clip-path="url(#p14eb594064)" d="M 276.715595 101.801605 
L 286.118771 135.560199 
L 292.933879 102.215035 
L 283.68614 143.249705 
z
" style="fill:#27808e;fill-opacity:0.8;"/>
    <path clip-path="url(#p14eb594064)" d="M 251.730226 138.861707 
L 260.45286 106.384675 
L 267.788595 142.403794 
L 258.06675 97.997545 
z
" style="fill:#2c718e;fill-opacity:0.8;"/>
    <path clip-path="url(#p14eb594064)" d="M 302.152825 126.685387 
L 311.462224 128.048313 
L 318.314585 111.262038 
L 308.971393 109.929947 
z
" style="fill:#31b57b;fill-opacity:0.8;"/>
    <path clip-path="url(#p14eb594064)" d="M 311.462224 128.048313 
L 321.172055 106.207869 
L 327.132799 142.573687 
L 318.314585 111.262038 
z
" style="fill:#297b8e;fill-opacity:0.8;"/>
    <path clip-path="url(#p14eb594064)" d="M 337.692636 89.071272 
L 345.283655 161.703338 
L 354.439013 69.705407 
L 342.373968 161.242972 
z
" style="fill:#218f8d;fill-opacity:0.8;"/>
    <path clip-path="url(#p14eb594064)" d="M 209.725346 123.278699 
L 219.161503 132.368355 
L 225.874411 116.952146 
L 217.116625 127.955382 
z
" style="fill:#46327e;fill-opacity:0.8;"/>
    <path clip-path="url(#p14eb594064)" d="M 235.507619 135.017849 
L 244.207754 113.41832 
L 251.730226 138.861707 
L 241.965949 108.244163 
z
" style="fill:#39568c;fill-opacity:0.8;"/>
    <path clip-path="url(#p14eb594064)" d="M 260.45286 106.384675 
L 270.073844 139.203176 
L 276.715595 101.801605 
L 267.788595 142.403794 
z
" style="fill:#287c8e;fill-opacity:0.8;"/>
    <path clip-path="url(#p14eb594064)" d="M 286.118771 135.560199 
L 295.4501 118.702499 
L 302.152825 126.685387 
L 292.933879 102.215035 
z
" style="fill:#27ad81;fill-opacity:0.8;"/>
    <path clip-path="url(#p14eb594064)" d="M 345.283655 161.703338 
L 357.031542 86.757063 
L 360.492059 173.140033 
L 354.439013 69.705407 
z
" style="fill:#31688e;fill-opacity:0.8;"/>
    <path clip-path="url(#p14eb594064)" d="M 295.4501 118.702499 
L 304.836265 120.062446 
L 311.462224 128.048313 
L 302.152825 126.685387 
z
" style="fill:#24868e;fill-opacity:0.8;"/>
    <path clip-path="url(#p14eb594064)" d="M 321.172055 106.207869 
L 329.80322 150.194128 
L 337.692636 89.071272 
L 327.132799 142.573687 
z
" style="fill:#1fa187;fill-opacity:0.8;"/>
    <path clip-path="url(#p14eb594064)" d="M 219.161503 132.368355 
L 227.975201 120.731049 
L 235.507619 135.017849 
L 225.874411 116.952146 
z
" style="fill:#443b84;fill-opacity:0.8;"/>
    <path clip-path="url(#p14eb594064)" d="M 244.207754 113.41832 
L 253.926013 139.399464 
L 260.45286 106.384675 
L 251.730226 138.861707 
z
" style="fill:#2d708e;fill-opacity:0.8;"/>
    <path clip-path="url(#p14eb594064)" d="M 270.073844 139.203176 
L 279.213798 114.721472 
L 286.118771 135.560199 
L 276.715595 101.801605 
z
" style="fill:#1f9f88;fill-opacity:0.8;"/>
    <path clip-path="url(#p14eb594064)" d="M 357.031542 86.757063 
L 363.979136 162.059972 
L 373.627788 76.61196 
L 360.492059 173.140033 
z
" style="fill:#375b8d;fill-opacity:0.8;"/>
    <path clip-path="url(#p14eb594064)" d="M 329.80322 150.194128 
L 340.470146 97.533853 
L 345.283655 161.703338 
L 337.692636 89.071272 
z
" style="fill:#2c728e;fill-opacity:0.8;"/>
    <path clip-path="url(#p14eb594064)" d="M 202.739483 131.431031 
L 211.710533 126.914261 
L 219.161503 132.368355 
L 209.725346 123.278699 
z
" style="fill:#482374;fill-opacity:0.8;"/>
    <path clip-path="url(#p14eb594064)" d="M 279.213798 114.721472 
L 288.611035 130.057269 
L 295.4501 118.702499 
L 286.118771 135.560199 
z
" style="fill:#218e8d;fill-opacity:0.8;"/>
    <path clip-path="url(#p14eb594064)" d="M 227.975201 120.731049 
L 237.639202 138.010479 
L 244.207754 113.41832 
L 235.507619 135.017849 
z
" style="fill:#365c8d;fill-opacity:0.8;"/>
    <path clip-path="url(#p14eb594064)" d="M 304.836265 120.062446 
L 314.032716 139.714801 
L 321.172055 106.207869 
L 311.462224 128.048313 
z
" style="fill:#27ad81;fill-opacity:0.8;"/>
    <path clip-path="url(#p14eb594064)" d="M 253.926013 139.399464 
L 262.867203 115.391771 
L 270.073844 139.203176 
L 260.45286 106.384675 
z
" style="fill:#238a8d;fill-opacity:0.8;"/>
    <path clip-path="url(#p14eb594064)" d="M 363.979136 162.059972 
L 375.950663 100.612397 
L 379.443032 165.877256 
L 373.627788 76.61196 
z
" style="fill:#38588c;fill-opacity:0.8;"/>
    <path clip-path="url(#p14eb594064)" d="M 340.470146 97.533853 
L 348.375047 157.614395 
L 357.031542 86.757063 
L 345.283655 161.703338 
z
" style="fill:#2c738e;fill-opacity:0.8;"/>
    <path clip-path="url(#p14eb594064)" d="M 314.032716 139.714801 
L 323.966103 108.502048 
L 329.80322 150.194128 
L 321.172055 106.207869 
z
" style="fill:#27808e;fill-opacity:0.8;"/>
    <path clip-path="url(#p14eb594064)" d="M 375.950663 100.612397 
L 383.269056 153.737359 
L 392.318064 95.38366 
L 379.443032 165.877256 
z
" style="fill:#472f7d;fill-opacity:0.8;"/>
    <path clip-path="url(#p14eb594064)" d="M 211.710533 126.914261 
L 221.224092 136.565963 
L 227.975201 120.731049 
L 219.161503 132.368355 
z
" style="fill:#424186;fill-opacity:0.8;"/>
    <path clip-path="url(#p14eb594064)" d="M 237.639202 138.010479 
L 246.490153 119.323861 
L 253.926013 139.399464 
L 244.207754 113.41832 
z
" style="fill:#2d718e;fill-opacity:0.8;"/>
    <path clip-path="url(#p14eb594064)" d="M 262.867203 115.391771 
L 272.407961 136.243972 
L 279.213798 114.721472 
L 270.073844 139.203176 
z
" style="fill:#228d8d;fill-opacity:0.8;"/>
    <path clip-path="url(#p14eb594064)" d="M 288.611035 130.057269 
L 297.987727 131.440926 
L 304.836265 120.062446 
L 295.4501 118.702499 
z
" style="fill:#2cb17e;fill-opacity:0.8;"/>
    <path clip-path="url(#p14eb594064)" d="M 348.375047 157.614395 
L 359.585706 105.051091 
L 363.979136 162.059972 
L 357.031542 86.757063 
z
" style="fill:#34618d;fill-opacity:0.8;"/>
    <path clip-path="url(#p14eb594064)" d="M 323.966103 108.502048 
L 332.622331 152.18846 
L 340.470146 97.533853 
L 329.80322 150.194128 
z
" style="fill:#238a8d;fill-opacity:0.8;"/>
    <path clip-path="url(#p14eb594064)" d="M 383.269056 153.737359 
L 394.803827 114.890237 
L 398.842731 156.467255 
L 392.318064 95.38366 
z
" style="fill:#433d84;fill-opacity:0.8;"/>
    <path clip-path="url(#p14eb594064)" d="M 297.987727 131.440926 
L 307.532269 118.81448 
L 314.032716 139.714801 
L 304.836265 120.062446 
z
" style="fill:#218e8d;fill-opacity:0.8;"/>
    <path clip-path="url(#p14eb594064)" d="M 195.362667 131.416237 
L 204.714557 135.978423 
L 211.710533 126.914261 
L 202.739483 131.431031 
z
" style="fill:#482878;fill-opacity:0.8;"/>
    <path clip-path="url(#p14eb594064)" d="M 359.585706 105.051091 
L 367.468815 153.182599 
L 375.950663 100.612397 
L 363.979136 162.059972 
z
" style="fill:#424186;fill-opacity:0.8;"/>
    <path clip-path="url(#p14eb594064)" d="M 221.224092 136.565963 
L 230.112764 124.857862 
L 237.639202 138.010479 
L 227.975201 120.731049 
z
" style="fill:#3a548c;fill-opacity:0.8;"/>
    <path clip-path="url(#p14eb594064)" d="M 246.490153 119.323861 
L 256.148338 139.277532 
L 262.867203 115.391771 
L 253.926013 139.399464 
z
" style="fill:#25838e;fill-opacity:0.8;"/>
    <path clip-path="url(#p14eb594064)" d="M 272.407961 136.243972 
L 281.719737 126.252718 
L 288.611035 130.057269 
L 279.213798 114.721472 
z
" style="fill:#27ad81;fill-opacity:0.8;"/>
    <path clip-path="url(#p14eb594064)" d="M 332.622331 152.18846 
L 343.169693 110.044198 
L 348.375047 157.614395 
L 340.470146 97.533853 
z
" style="fill:#2e6d8e;fill-opacity:0.8;"/>
    <path clip-path="url(#p14eb594064)" d="M 394.803827 114.890237 
L 402.620937 150.796968 
L 411.334237 106.236213 
L 398.842731 156.467255 
z
" style="fill:#482677;fill-opacity:0.8;"/>
    <path clip-path="url(#p14eb594064)" d="M 307.532269 118.81448 
L 316.690815 146.202624 
L 323.966103 108.502048 
L 314.032716 139.714801 
z
" style="fill:#1f9f88;fill-opacity:0.8;"/>
    <path clip-path="url(#p14eb594064)" d="M 367.468815 153.182599 
L 378.499137 118.944319 
L 383.269056 153.737359 
L 375.950663 100.612397 
z
" style="fill:#404688;fill-opacity:0.8;"/>
    <path clip-path="url(#p14eb594064)" d="M 204.714557 135.978423 
L 213.719544 130.499689 
L 221.224092 136.565963 
L 211.710533 126.914261 
z
" style="fill:#453581;fill-opacity:0.8;"/>
    <path clip-path="url(#p14eb594064)" d="M 281.719737 126.252718 
L 291.155208 127.639341 
L 297.987727 131.440926 
L 288.611035 130.057269 
z
" style="fill:#1f998a;fill-opacity:0.8;"/>
    <path clip-path="url(#p14eb594064)" d="M 230.112764 124.857862 
L 239.782542 140.229071 
L 246.490153 119.323861 
L 237.639202 138.010479 
z
" style="fill:#2d718e;fill-opacity:0.8;"/>
    <path clip-path="url(#p14eb594064)" d="M 343.169693 110.044198 
L 351.554046 152.739924 
L 359.585706 105.051091 
L 348.375047 157.614395 
z
" style="fill:#38598c;fill-opacity:0.8;"/>
    <path clip-path="url(#p14eb594064)" d="M 256.148338 139.277532 
L 265.302499 124.487384 
L 272.407961 136.243972 
L 262.867203 115.391771 
z
" style="fill:#1fa188;fill-opacity:0.8;"/>
    <path clip-path="url(#p14eb594064)" d="M 402.620937 150.796968 
L 414.294718 117.639081 
L 417.850982 159.312979 
L 411.334237 106.236213 
z
" style="fill:#482677;fill-opacity:0.8;"/>
    <path clip-path="url(#p14eb594064)" d="M 316.690815 146.202624 
L 326.70985 115.879873 
L 332.622331 152.18846 
L 323.966103 108.502048 
z
" style="fill:#287c8e;fill-opacity:0.8;"/>
    <path clip-path="url(#p14eb594064)" d="M 378.499137 118.944319 
L 386.882833 148.072981 
L 394.803827 114.890237 
L 383.269056 153.737359 
z
" style="fill:#482475;fill-opacity:0.8;"/>
    <path clip-path="url(#p14eb594064)" d="M 188.141167 136.485754 
L 197.268785 135.234862 
L 204.714557 135.978423 
L 195.362667 131.416237 
z
" style="fill:#481b6d;fill-opacity:0.8;"/>
    <path clip-path="url(#p14eb594064)" d="M 213.719544 130.499689 
L 223.297177 140.275826 
L 230.112764 124.857862 
L 221.224092 136.565963 
z
" style="fill:#39568c;fill-opacity:0.8;"/>
    <path clip-path="url(#p14eb594064)" d="M 291.155208 127.639341 
L 300.560852 140.450815 
L 307.532269 118.81448 
L 297.987727 131.440926 
z
" style="fill:#27ad81;fill-opacity:0.8;"/>
    <path clip-path="url(#p14eb594064)" d="M 351.554046 152.739924 
L 362.215862 121.187762 
L 367.468815 153.182599 
L 359.585706 105.051091 
z
" style="fill:#3b518b;fill-opacity:0.8;"/>
    <path clip-path="url(#p14eb594064)" d="M 265.302499 124.487384 
L 274.797014 134.420928 
L 281.719737 126.252718 
L 272.407961 136.243972 
z
" style="fill:#1f9e89;fill-opacity:0.8;"/>
    <path clip-path="url(#p14eb594064)" d="M 239.782542 140.229071 
L 248.809269 125.839588 
L 256.148338 139.277532 
L 246.490153 119.323861 
z
" style="fill:#228b8d;fill-opacity:0.8;"/>
    <path clip-path="url(#p14eb594064)" d="M 326.70985 115.879873 
L 335.547315 151.490851 
L 343.169693 110.044198 
L 332.622331 152.18846 
z
" style="fill:#2c718e;fill-opacity:0.8;"/>
    <path clip-path="url(#p14eb594064)" d="M 414.294718 117.639081 
L 421.487604 159.455824 
L 431.46468 100.745689 
L 417.850982 159.312979 
z
" style="fill:#433d84;fill-opacity:0.8;"/>
    <path clip-path="url(#p14eb594064)" d="M 386.882833 148.072981 
L 397.669235 127.052472 
L 402.620937 150.796968 
L 394.803827 114.890237 
z
" style="fill:#472c7a;fill-opacity:0.8;"/>
    <path clip-path="url(#p14eb594064)" d="M 300.560852 140.450815 
L 310.228635 122.26845 
L 316.690815 146.202624 
L 307.532269 118.81448 
z
" style="fill:#228d8d;fill-opacity:0.8;"/>
    <path clip-path="url(#p14eb594064)" d="M 362.215862 121.187762 
L 370.880415 148.329676 
L 378.499137 118.944319 
L 367.468815 153.182599 
z
" style="fill:#472d7b;fill-opacity:0.8;"/>
    <path clip-path="url(#p14eb594064)" d="M 197.268785 135.234862 
L 206.70698 140.371926 
L 213.719544 130.499689 
L 204.714557 135.978423 
z
" style="fill:#453781;fill-opacity:0.8;"/>
    <path clip-path="url(#p14eb594064)" d="M 223.297177 140.275826 
L 232.290013 129.453615 
L 239.782542 140.229071 
L 230.112764 124.857862 
z
" style="fill:#2d708e;fill-opacity:0.8;"/>
    <path clip-path="url(#p14eb594064)" d="M 248.809269 125.839588 
L 258.407898 139.030111 
L 265.302499 124.487384 
L 256.148338 139.277532 
z
" style="fill:#1f998a;fill-opacity:0.8;"/>
    <path clip-path="url(#p14eb594064)" d="M 274.797014 134.420928 
L 284.23765 135.827155 
L 291.155208 127.639341 
L 281.719737 126.252718 
z
" style="fill:#31b57b;fill-opacity:0.8;"/>
    <path clip-path="url(#p14eb594064)" d="M 335.547315 151.490851 
L 345.867033 123.236625 
L 351.554046 152.739924 
L 343.169693 110.044198 
z
" style="fill:#355f8d;fill-opacity:0.8;"/>
    <path clip-path="url(#p14eb594064)" d="M 397.669235 127.052472 
L 406.14845 150.930245 
L 414.294718 117.639081 
L 402.620937 150.796968 
z
" style="fill:#472c7a;fill-opacity:0.8;"/>
    <path clip-path="url(#p14eb594064)" d="M 310.228635 122.26845 
L 319.431155 149.272414 
L 326.70985 115.879873 
L 316.690815 146.202624 
z
" style="fill:#238a8d;fill-opacity:0.8;"/>
    <path clip-path="url(#p14eb594064)" d="M 370.880415 148.329676 
L 381.297768 131.656068 
L 386.882833 148.072981 
L 378.499137 118.944319 
z
" style="fill:#46337f;fill-opacity:0.8;"/>
    <path clip-path="url(#p14eb594064)" d="M 180.717554 138.655804 
L 190.03668 141.03997 
L 197.268785 135.234862 
L 188.141167 136.485754 
z
" style="fill:#481b6d;fill-opacity:0.8;"/>
    <path clip-path="url(#p14eb594064)" d="M 345.867033 123.236625 
L 354.747172 149.526886 
L 362.215862 121.187762 
L 351.554046 152.739924 
z
" style="fill:#423f85;fill-opacity:0.8;"/>
    <path clip-path="url(#p14eb594064)" d="M 284.23765 135.827155 
L 293.740356 128.670577 
L 300.560852 140.450815 
L 291.155208 127.639341 
z
" style="fill:#1f9e89;fill-opacity:0.8;"/>
    <path clip-path="url(#p14eb594064)" d="M 206.70698 140.371926 
L 215.758356 134.184402 
L 223.297177 140.275826 
L 213.719544 130.499689 
z
" style="fill:#3c4f8a;fill-opacity:0.8;"/>
    <path clip-path="url(#p14eb594064)" d="M 232.290013 129.453615 
L 241.943408 141.792005 
L 248.809269 125.839588 
L 239.782542 140.229071 
z
" style="fill:#23898e;fill-opacity:0.8;"/>
    <path clip-path="url(#p14eb594064)" d="M 258.407898 139.030111 
L 267.753404 133.097786 
L 274.797014 134.420928 
L 265.302499 124.487384 
z
" style="fill:#2eb37c;fill-opacity:0.8;"/>
    <path clip-path="url(#p14eb594064)" d="M 406.14845 150.930245 
L 417.558905 124.505749 
L 421.487604 159.455824 
L 414.294718 117.639081 
z
" style="fill:#482475;fill-opacity:0.8;"/>
    <path clip-path="url(#p14eb594064)" d="M 319.431155 149.272414 
L 329.433294 125.806424 
L 335.547315 151.490851 
L 326.70985 115.879873 
z
" style="fill:#2d708e;fill-opacity:0.8;"/>
    <path clip-path="url(#p14eb594064)" d="M 381.297768 131.656068 
L 390.317279 147.618685 
L 397.669235 127.052472 
L 386.882833 148.072981 
z
" style="fill:#482071;fill-opacity:0.8;"/>
    <path clip-path="url(#p14eb594064)" d="M 354.747172 149.526886 
L 364.983504 133.766173 
L 370.880415 148.329676 
L 362.215862 121.187762 
z
" style="fill:#433d84;fill-opacity:0.8;"/>
    <path clip-path="url(#p14eb594064)" d="M 190.03668 141.03997 
L 199.193185 138.917512 
L 206.70698 140.371926 
L 197.268785 135.234862 
z
" style="fill:#472c7a;fill-opacity:0.8;"/>
    <path clip-path="url(#p14eb594064)" d="M 293.740356 128.670577 
L 303.179527 146.361395 
L 310.228635 122.26845 
L 300.560852 140.450815 
z
" style="fill:#1fa188;fill-opacity:0.8;"/>
    <path clip-path="url(#p14eb594064)" d="M 215.758356 134.184402 
L 225.378554 143.356021 
L 232.290013 129.453615 
L 223.297177 140.275826 
z
" style="fill:#2e6f8e;fill-opacity:0.8;"/>
    <path clip-path="url(#p14eb594064)" d="M 267.753404 133.097786 
L 277.242289 134.510634 
L 284.23765 135.827155 
L 274.797014 134.420928 
z
" style="fill:#24aa83;fill-opacity:0.8;"/>
    <path clip-path="url(#p14eb594064)" d="M 329.433294 125.806424 
L 338.532252 150.509487 
L 345.867033 123.236625 
L 335.547315 151.490851 
z
" style="fill:#39568c;fill-opacity:0.8;"/>
    <path clip-path="url(#p14eb594064)" d="M 241.943408 141.792005 
L 251.158881 132.68522 
L 258.407898 139.030111 
L 248.809269 125.839588 
z
" style="fill:#21a685;fill-opacity:0.8;"/>
    <path clip-path="url(#p14eb594064)" d="M 390.317279 147.618685 
L 400.810292 134.485344 
L 406.14845 150.930245 
L 397.669235 127.052472 
z
" style="fill:#482071;fill-opacity:0.8;"/>
    <path clip-path="url(#p14eb594064)" d="M 364.983504 133.766173 
L 374.194682 147.557668 
L 381.297768 131.656068 
L 370.880415 148.329676 
z
" style="fill:#481f70;fill-opacity:0.8;"/>
    <path clip-path="url(#p14eb594064)" d="M 303.179527 146.361395 
L 312.924226 129.061469 
L 319.431155 149.272414 
L 310.228635 122.26845 
z
" style="fill:#25838e;fill-opacity:0.8;"/>
    <path clip-path="url(#p14eb594064)" d="M 173.303294 142.356668 
L 182.552038 142.820721 
L 190.03668 141.03997 
L 180.717554 138.655804 
z
" style="fill:#470e61;fill-opacity:0.8;"/>
    <path clip-path="url(#p14eb594064)" d="M 199.193185 138.917512 
L 208.711057 144.435372 
L 215.758356 134.184402 
L 206.70698 140.371926 
z
" style="fill:#3d4e8a;fill-opacity:0.8;"/>
    <path clip-path="url(#p14eb594064)" d="M 338.532252 150.509487 
L 348.621912 134.961449 
L 354.747172 149.526886 
L 345.867033 123.236625 
z
" style="fill:#3e4a89;fill-opacity:0.8;"/>
    <path clip-path="url(#p14eb594064)" d="M 277.242289 134.510634 
L 286.774977 143.299139 
L 293.740356 128.670577 
L 284.23765 135.827155 
z
" style="fill:#2eb37c;fill-opacity:0.8;"/>
    <path clip-path="url(#p14eb594064)" d="M 225.378554 143.356021 
L 234.506368 134.522377 
L 241.943408 141.792005 
L 232.290013 129.453615 
z
" style="fill:#218e8d;fill-opacity:0.8;"/>
    <path clip-path="url(#p14eb594064)" d="M 251.158881 132.68522 
L 260.715247 139.351653 
L 267.753404 133.097786 
L 258.407898 139.030111 
z
" style="fill:#26ad81;fill-opacity:0.8;"/>
    <path clip-path="url(#p14eb594064)" d="M 312.924226 129.061469 
L 322.237925 150.780971 
L 329.433294 125.806424 
L 319.431155 149.272414 
z
" style="fill:#2d718e;fill-opacity:0.8;"/>
    <path clip-path="url(#p14eb594064)" d="M 400.810292 134.485344 
L 409.560298 154.087905 
L 417.558905 124.505749 
L 406.14845 150.930245 
z
" style="fill:#46337f;fill-opacity:0.8;"/>
    <path clip-path="url(#p14eb594064)" d="M 374.194682 147.557668 
L 384.313772 140.051078 
L 390.317279 147.618685 
L 381.297768 131.656068 
z
" style="fill:#482173;fill-opacity:0.8;"/>
    <path clip-path="url(#p14eb594064)" d="M 348.621912 134.961449 
L 357.914361 148.993748 
L 364.983504 133.766173 
L 354.747172 149.526886 
z
" style="fill:#482979;fill-opacity:0.8;"/>
    <path clip-path="url(#p14eb594064)" d="M 286.774977 143.299139 
L 296.355917 132.872937 
L 303.179527 146.361395 
L 293.740356 128.670577 
z
" style="fill:#1f998a;fill-opacity:0.8;"/>
    <path clip-path="url(#p14eb594064)" d="M 182.552038 142.820721 
L 191.952408 145.550868 
L 199.193185 138.917512 
L 190.03668 141.03997 
z
" style="fill:#482979;fill-opacity:0.8;"/>
    <path clip-path="url(#p14eb594064)" d="M 208.711057 144.435372 
L 217.830559 138.062523 
L 225.378554 143.356021 
L 215.758356 134.184402 
z
" style="fill:#2e6d8e;fill-opacity:0.8;"/>
    <path clip-path="url(#p14eb594064)" d="M 322.237925 150.780971 
L 332.172592 136.098109 
L 338.532252 150.509487 
L 329.433294 125.806424 
z
" style="fill:#365c8d;fill-opacity:0.8;"/>
    <path clip-path="url(#p14eb594064)" d="M 260.715247 139.351653 
L 270.218348 140.781744 
L 277.242289 134.510634 
L 267.753404 133.097786 
z
" style="fill:#40bd72;fill-opacity:0.8;"/>
    <path clip-path="url(#p14eb594064)" d="M 234.506368 134.522377 
L 244.131962 143.043899 
L 251.158881 132.68522 
L 241.943408 141.792005 
z
" style="fill:#20a486;fill-opacity:0.8;"/>
    <path clip-path="url(#p14eb594064)" d="M 384.313772 140.051078 
L 393.646385 150.448184 
L 400.810292 134.485344 
L 390.317279 147.618685 
z
" style="fill:#482173;fill-opacity:0.8;"/>
    <path clip-path="url(#p14eb594064)" d="M 357.914361 148.993748 
L 367.902066 142.875707 
L 374.194682 147.557668 
L 364.983504 133.766173 
z
" style="fill:#482878;fill-opacity:0.8;"/>
    <path clip-path="url(#p14eb594064)" d="M 296.355917 132.872937 
L 305.847382 150.229221 
L 312.924226 129.061469 
L 303.179527 146.361395 
z
" style="fill:#228b8d;fill-opacity:0.8;"/>
    <path clip-path="url(#p14eb594064)" d="M 165.791607 145.507442 
L 175.116193 146.953095 
L 182.552038 142.820721 
L 173.303294 142.356668 
z
" style="fill:#470d60;fill-opacity:0.8;"/>
    <path clip-path="url(#p14eb594064)" d="M 332.172592 136.098109 
L 341.540558 150.765128 
L 348.621912 134.961449 
L 338.532252 150.509487 
z
" style="fill:#443b84;fill-opacity:0.8;"/>
    <path clip-path="url(#p14eb594064)" d="M 191.952408 145.550868 
L 201.136561 142.457129 
L 208.711057 144.435372 
L 199.193185 138.917512 
z
" style="fill:#404588;fill-opacity:0.8;"/>
    <path clip-path="url(#p14eb594064)" d="M 270.218348 140.781744 
L 279.739935 136.953648 
L 286.774977 143.299139 
L 277.242289 134.510634 
z
" style="fill:#26ad81;fill-opacity:0.8;"/>
    <path clip-path="url(#p14eb594064)" d="M 217.830559 138.062523 
L 227.46988 145.775641 
L 234.506368 134.522377 
L 225.378554 143.356021 
z
" style="fill:#218e8d;fill-opacity:0.8;"/>
    <path clip-path="url(#p14eb594064)" d="M 393.646385 150.448184 
L 404.124432 139.478864 
L 409.560298 154.087905 
L 400.810292 134.485344 
z
" style="fill:#481f70;fill-opacity:0.8;"/>
    <path clip-path="url(#p14eb594064)" d="M 244.131962 143.043899 
L 253.532757 139.509551 
L 260.715247 139.351653 
L 251.158881 132.68522 
z
" style="fill:#3fbc73;fill-opacity:0.8;"/>
    <path clip-path="url(#p14eb594064)" d="M 305.847382 150.229221 
L 315.628444 137.541267 
L 322.237925 150.780971 
L 312.924226 129.061469 
z
" style="fill:#2d718e;fill-opacity:0.8;"/>
    <path clip-path="url(#p14eb594064)" d="M 367.902066 142.875707 
L 377.437281 149.858171 
L 384.313772 140.051078 
L 374.194682 147.557668 
z
" style="fill:#48186a;fill-opacity:0.8;"/>
    <path clip-path="url(#p14eb594064)" d="M 341.540558 150.765128 
L 351.467917 144.34663 
L 357.914361 148.993748 
L 348.621912 134.961449 
z
" style="fill:#46327e;fill-opacity:0.8;"/>
    <path clip-path="url(#p14eb594064)" d="M 175.116193 146.953095 
L 184.398643 146.782904 
L 191.952408 145.550868 
L 182.552038 142.820721 
z
" style="fill:#481c6e;fill-opacity:0.8;"/>
    <path clip-path="url(#p14eb594064)" d="M 279.739935 136.953648 
L 289.33986 148.979166 
L 296.355917 132.872937 
L 286.774977 143.299139 
z
" style="fill:#21a685;fill-opacity:0.8;"/>
    <path clip-path="url(#p14eb594064)" d="M 201.136561 142.457129 
L 210.719908 147.942733 
L 217.830559 138.062523 
L 208.711057 144.435372 
z
" style="fill:#2f6b8e;fill-opacity:0.8;"/>
    <path clip-path="url(#p14eb594064)" d="M 315.628444 137.541267 
L 325.091178 152.268687 
L 332.172592 136.098109 
L 322.237925 150.780971 
z
" style="fill:#3a548c;fill-opacity:0.8;"/>
    <path clip-path="url(#p14eb594064)" d="M 253.532757 139.509551 
L 263.078005 140.948566 
L 270.218348 140.781744 
L 260.715247 139.351653 
z
" style="fill:#3bbb75;fill-opacity:0.8;"/>
    <path clip-path="url(#p14eb594064)" d="M 227.46988 145.775641 
L 236.758717 139.966989 
L 244.131962 143.043899 
L 234.506368 134.522377 
z
" style="fill:#28ae80;fill-opacity:0.8;"/>
    <path clip-path="url(#p14eb594064)" d="M 377.437281 149.858171 
L 387.490533 145.770912 
L 393.646385 150.448184 
L 384.313772 140.051078 
z
" style="fill:#48186a;fill-opacity:0.8;"/>
    <path clip-path="url(#p14eb594064)" d="M 351.467917 144.34663 
L 361.050078 150.993659 
L 367.902066 142.875707 
L 357.914361 148.993748 
z
" style="fill:#48186a;fill-opacity:0.8;"/>
    <path clip-path="url(#p14eb594064)" d="M 289.33986 148.979166 
L 298.995266 139.409637 
L 305.847382 150.229221 
L 296.355917 132.872937 
z
" style="fill:#23898e;fill-opacity:0.8;"/>
    <path clip-path="url(#p14eb594064)" d="M 158.211339 148.686983 
L 167.562774 150.145878 
L 175.116193 146.953095 
L 165.791607 145.507442 
z
" style="fill:#440154;fill-opacity:0.8;"/>
    <path clip-path="url(#p14eb594064)" d="M 184.398643 146.782904 
L 193.881972 149.862477 
L 201.136561 142.457129 
L 191.952408 145.550868 
z
" style="fill:#423f85;fill-opacity:0.8;"/>
    <path clip-path="url(#p14eb594064)" d="M 325.091178 152.268687 
L 334.959087 145.324046 
L 341.540558 150.765128 
L 332.172592 136.098109 
z
" style="fill:#424186;fill-opacity:0.8;"/>
    <path clip-path="url(#p14eb594064)" d="M 263.078005 140.948566 
L 272.699997 147.381683 
L 279.739935 136.953648 
L 270.218348 140.781744 
z
" style="fill:#3fbc73;fill-opacity:0.8;"/>
    <path clip-path="url(#p14eb594064)" d="M 210.719908 147.942733 
L 219.939216 142.222497 
L 227.46988 145.775641 
L 217.830559 138.062523 
z
" style="fill:#21918c;fill-opacity:0.8;"/>
    <path clip-path="url(#p14eb594064)" d="M 236.758717 139.966989 
L 246.361764 144.566305 
L 253.532757 139.509551 
L 244.131962 143.043899 
z
" style="fill:#40bd72;fill-opacity:0.8;"/>
    <path clip-path="url(#p14eb594064)" d="M 387.490533 145.770912 
L 396.946358 154.826011 
L 404.124432 139.478864 
L 393.646385 150.448184 
z
" style="fill:#482878;fill-opacity:0.8;"/>
    <path clip-path="url(#p14eb594064)" d="M 298.995266 139.409637 
L 308.561731 153.229848 
L 315.628444 137.541267 
L 305.847382 150.229221 
z
" style="fill:#2d708e;fill-opacity:0.8;"/>
    <path clip-path="url(#p14eb594064)" d="M 361.050078 150.993659 
L 370.952582 149.417413 
L 377.437281 149.858171 
L 367.902066 142.875707 
z
" style="fill:#48186a;fill-opacity:0.8;"/>
    <path clip-path="url(#p14eb594064)" d="M 334.959087 145.324046 
L 344.553507 152.797333 
L 351.467917 144.34663 
L 341.540558 150.765128 
z
" style="fill:#482374;fill-opacity:0.8;"/>
    <path clip-path="url(#p14eb594064)" d="M 167.562774 150.145878 
L 176.953289 151.610869 
L 184.398643 146.782904 
L 175.116193 146.953095 
z
" style="fill:#481467;fill-opacity:0.8;"/>
    <path clip-path="url(#p14eb594064)" d="M 272.699997 147.381683 
L 282.282419 141.702767 
L 289.33986 148.979166 
L 279.739935 136.953648 
z
" style="fill:#20a486;fill-opacity:0.8;"/>
    <path clip-path="url(#p14eb594064)" d="M 193.881972 149.862477 
L 203.101654 145.895194 
L 210.719908 147.942733 
L 201.136561 142.457129 
z
" style="fill:#31668e;fill-opacity:0.8;"/>
    <path clip-path="url(#p14eb594064)" d="M 308.561731 153.229848 
L 318.357108 146.205241 
L 325.091178 152.268687 
L 315.628444 137.541267 
z
" style="fill:#39568c;fill-opacity:0.8;"/>
    <path clip-path="url(#p14eb594064)" d="M 219.939216 142.222497 
L 229.579658 147.73927 
L 236.758717 139.966989 
L 227.46988 145.775641 
z
" style="fill:#2ab07f;fill-opacity:0.8;"/>
    <path clip-path="url(#p14eb594064)" d="M 246.361764 144.566305 
L 255.927122 146.02119 
L 263.078005 140.948566 
L 253.532757 139.509551 
z
" style="fill:#5ec962;fill-opacity:0.8;"/>
    <path clip-path="url(#p14eb594064)" d="M 370.952582 149.417413 
L 380.652982 153.92918 
L 387.490533 145.770912 
L 377.437281 149.858171 
z
" style="fill:#48186a;fill-opacity:0.8;"/>
    <path clip-path="url(#p14eb594064)" d="M 344.553507 152.797333 
L 354.41225 151.518352 
L 361.050078 150.993659 
L 351.467917 144.34663 
z
" style="fill:#481c6e;fill-opacity:0.8;"/>
    <path clip-path="url(#p14eb594064)" d="M 282.282419 141.702767 
L 291.93856 153.508724 
L 298.995266 139.409637 
L 289.33986 148.979166 
z
" style="fill:#218e8d;fill-opacity:0.8;"/>
    <path clip-path="url(#p14eb594064)" d="M 150.561546 151.895686 
L 159.939933 153.368006 
L 167.562774 150.145878 
L 158.211339 148.686983 
z
" style="fill:#440154;fill-opacity:0.8;"/>
    <path clip-path="url(#p14eb594064)" d="M 176.953289 151.610869 
L 186.249776 150.365518 
L 193.881972 149.862477 
L 184.398643 146.782904 
z
" style="fill:#46327e;fill-opacity:0.8;"/>
    <path clip-path="url(#p14eb594064)" d="M 318.357108 146.205241 
L 327.974317 154.664859 
L 334.959087 145.324046 
L 325.091178 152.268687 
z
" style="fill:#453581;fill-opacity:0.8;"/>
    <path clip-path="url(#p14eb594064)" d="M 255.927122 146.02119 
L 265.49827 144.31849 
L 272.699997 147.381683 
L 263.078005 140.948566 
z
" style="fill:#40bd72;fill-opacity:0.8;"/>
    <path clip-path="url(#p14eb594064)" d="M 203.101654 145.895194 
L 212.728144 150.684584 
L 219.939216 142.222497 
L 210.719908 147.942733 
z
" style="fill:#21918c;fill-opacity:0.8;"/>
    <path clip-path="url(#p14eb594064)" d="M 380.652982 153.92918 
L 390.774438 150.188961 
L 396.946358 154.826011 
L 387.490533 145.770912 
z
" style="fill:#48186a;fill-opacity:0.8;"/>
    <path clip-path="url(#p14eb594064)" d="M 291.93856 153.508724 
L 301.657721 147.141339 
L 308.561731 153.229848 
L 298.995266 139.409637 
z
" style="fill:#2e6f8e;fill-opacity:0.8;"/>
    <path clip-path="url(#p14eb594064)" d="M 354.41225 151.518352 
L 364.17288 154.739519 
L 370.952582 149.417413 
L 361.050078 150.993659 
z
" style="fill:#471063;fill-opacity:0.8;"/>
    <path clip-path="url(#p14eb594064)" d="M 229.579658 147.73927 
L 239.042352 145.606641 
L 246.361764 144.566305 
L 236.758717 139.966989 
z
" style="fill:#60ca60;fill-opacity:0.8;"/>
    <path clip-path="url(#p14eb594064)" d="M 159.939933 153.368006 
L 169.357691 154.846507 
L 176.953289 151.610869 
L 167.562774 150.145878 
z
" style="fill:#440154;fill-opacity:0.8;"/>
    <path clip-path="url(#p14eb594064)" d="M 327.974317 154.664859 
L 337.811798 152.912772 
L 344.553507 152.797333 
L 334.959087 145.324046 
z
" style="fill:#482878;fill-opacity:0.8;"/>
    <path clip-path="url(#p14eb594064)" d="M 265.49827 144.31849 
L 275.204007 153.078764 
L 282.282419 141.702767 
L 272.699997 147.381683 
z
" style="fill:#28ae80;fill-opacity:0.8;"/>
    <path clip-path="url(#p14eb594064)" d="M 186.249776 150.365518 
L 195.812175 153.653341 
L 203.101654 145.895194 
L 193.881972 149.862477 
z
" style="fill:#355f8d;fill-opacity:0.8;"/>
    <path clip-path="url(#p14eb594064)" d="M 301.657721 147.141339 
L 311.316277 156.325323 
L 318.357108 146.205241 
L 308.561731 153.229848 
z
" style="fill:#3c4f8a;fill-opacity:0.8;"/>
    <path clip-path="url(#p14eb594064)" d="M 364.17288 154.739519 
L 374.103333 154.473466 
L 380.652982 153.92918 
L 370.952582 149.417413 
z
" style="fill:#471063;fill-opacity:0.8;"/>
    <path clip-path="url(#p14eb594064)" d="M 239.042352 145.606641 
L 248.646426 147.071945 
L 255.927122 146.02119 
L 246.361764 144.566305 
z
" style="fill:#69cd5b;fill-opacity:0.8;"/>
    <path clip-path="url(#p14eb594064)" d="M 212.728144 150.684584 
L 222.085392 146.70043 
L 229.579658 147.73927 
L 219.939216 142.222497 
z
" style="fill:#38b977;fill-opacity:0.8;"/>
    <path clip-path="url(#p14eb594064)" d="M 337.811798 152.912772 
L 347.5713 156.369951 
L 354.41225 151.518352 
L 344.553507 152.797333 
z
" style="fill:#471164;fill-opacity:0.8;"/>
    <path clip-path="url(#p14eb594064)" d="M 275.204007 153.078764 
L 284.861424 148.225953 
L 291.93856 153.508724 
L 282.282419 141.702767 
z
" style="fill:#218e8d;fill-opacity:0.8;"/>
    <path clip-path="url(#p14eb594064)" d="M 169.357691 154.846507 
L 178.815069 156.331229 
L 186.249776 150.365518 
L 176.953289 151.610869 
z
" style="fill:#482173;fill-opacity:0.8;"/>
    <path clip-path="url(#p14eb594064)" d="M 142.841267 155.133953 
L 152.246706 156.619885 
L 159.939933 153.368006 
L 150.561546 151.895686 
z
" style="fill:#440154;fill-opacity:0.8;"/>
    <path clip-path="url(#p14eb594064)" d="M 311.316277 156.325323 
L 321.12665 154.022519 
L 327.974317 154.664859 
L 318.357108 146.205241 
z
" style="fill:#453781;fill-opacity:0.8;"/>
    <path clip-path="url(#p14eb594064)" d="M 195.812175 153.653341 
L 205.09502 149.371408 
L 212.728144 150.684584 
L 203.101654 145.895194 
z
" style="fill:#21918c;fill-opacity:0.8;"/>
    <path clip-path="url(#p14eb594064)" d="M 248.646426 147.071945 
L 258.342708 152.150255 
L 265.49827 144.31849 
L 255.927122 146.02119 
z
" style="fill:#60ca60;fill-opacity:0.8;"/>
    <path clip-path="url(#p14eb594064)" d="M 374.103333 154.473466 
L 383.882959 158.722875 
L 390.774438 150.188961 
L 380.652982 153.92918 
z
" style="fill:#481c6e;fill-opacity:0.8;"/>
    <path clip-path="url(#p14eb594064)" d="M 284.861424 148.225953 
L 294.574097 157.601021 
L 301.657721 147.141339 
L 291.93856 153.508724 
z
" style="fill:#2e6d8e;fill-opacity:0.8;"/>
    <path clip-path="url(#p14eb594064)" d="M 347.5713 156.369951 
L 357.443233 157.154082 
L 364.17288 154.739519 
L 354.41225 151.518352 
z
" style="fill:#470d60;fill-opacity:0.8;"/>
    <path clip-path="url(#p14eb594064)" d="M 222.085392 146.70043 
L 231.725527 149.814702 
L 239.042352 145.606641 
L 229.579658 147.73927 
z
" style="fill:#70cf57;fill-opacity:0.8;"/>
    <path clip-path="url(#p14eb594064)" d="M 321.12665 154.022519 
L 330.879498 158.220657 
L 337.811798 152.912772 
L 327.974317 154.664859 
z
" style="fill:#481b6d;fill-opacity:0.8;"/>
    <path clip-path="url(#p14eb594064)" d="M 152.246706 156.619885 
L 161.691812 158.112084 
L 169.357691 154.846507 
L 159.939933 153.368006 
z
" style="fill:#440154;fill-opacity:0.8;"/>
    <path clip-path="url(#p14eb594064)" d="M 178.815069 156.331229 
L 188.092619 153.27065 
L 195.812175 153.653341 
L 186.249776 150.365518 
z
" style="fill:#38588c;fill-opacity:0.8;"/>
    <path clip-path="url(#p14eb594064)" d="M 258.342708 152.150255 
L 267.971699 149.545902 
L 275.204007 153.078764 
L 265.49827 144.31849 
z
" style="fill:#2ab07f;fill-opacity:0.8;"/>
    <path clip-path="url(#p14eb594064)" d="M 294.574097 157.601021 
L 304.348201 154.946965 
L 311.316277 156.325323 
L 301.657721 147.141339 
z
" style="fill:#3d4e8a;fill-opacity:0.8;"/>
    <path clip-path="url(#p14eb594064)" d="M 357.443233 157.154082 
L 367.309336 159.356933 
L 374.103333 154.473466 
L 364.17288 154.739519 
z
" style="fill:#470d60;fill-opacity:0.8;"/>
    <path clip-path="url(#p14eb594064)" d="M 205.09502 149.371408 
L 214.739262 152.67817 
L 222.085392 146.70043 
L 212.728144 150.684584 
z
" style="fill:#44bf70;fill-opacity:0.8;"/>
    <path clip-path="url(#p14eb594064)" d="M 231.725527 149.814702 
L 241.354084 151.294988 
L 248.646426 147.071945 
L 239.042352 145.606641 
z
" style="fill:#9bd93c;fill-opacity:0.8;"/>
    <path clip-path="url(#p14eb594064)" d="M 330.879498 158.220657 
L 340.735009 159.011275 
L 347.5713 156.369951 
L 337.811798 152.912772 
z
" style="fill:#471164;fill-opacity:0.8;"/>
    <path clip-path="url(#p14eb594064)" d="M 161.691812 158.112084 
L 171.176836 159.61059 
L 178.815069 156.331229 
L 169.357691 154.846507 
z
" style="fill:#440154;fill-opacity:0.8;"/>
    <path clip-path="url(#p14eb594064)" d="M 267.971699 149.545902 
L 277.736376 158.26583 
L 284.861424 148.225953 
L 275.204007 153.078764 
z
" style="fill:#21918c;fill-opacity:0.8;"/>
    <path clip-path="url(#p14eb594064)" d="M 304.348201 154.946965 
L 314.105021 160.049143 
L 321.12665 154.022519 
L 311.316277 156.325323 
z
" style="fill:#472c7a;fill-opacity:0.8;"/>
    <path clip-path="url(#p14eb594064)" d="M 188.092619 153.27065 
L 197.717045 156.283129 
L 205.09502 149.371408 
L 195.812175 153.653341 
z
" style="fill:#21918c;fill-opacity:0.8;"/>
    <path clip-path="url(#p14eb594064)" d="M 367.309336 159.356933 
L 377.326757 158.875845 
L 383.882959 158.722875 
L 374.103333 154.473466 
z
" style="fill:#471164;fill-opacity:0.8;"/>
    <path clip-path="url(#p14eb594064)" d="M 241.354084 151.294988 
L 250.993958 151.134433 
L 258.342708 152.150255 
L 248.646426 147.071945 
z
" style="fill:#70cf57;fill-opacity:0.8;"/>
    <path clip-path="url(#p14eb594064)" d="M 277.736376 158.26583 
L 287.470948 155.679476 
L 294.574097 157.601021 
L 284.861424 148.225953 
z
" style="fill:#2f6b8e;fill-opacity:0.8;"/>
    <path clip-path="url(#p14eb594064)" d="M 340.735009 159.011275 
L 350.606811 160.868833 
L 357.443233 157.154082 
L 347.5713 156.369951 
z
" style="fill:#46075a;fill-opacity:0.8;"/>
    <path clip-path="url(#p14eb594064)" d="M 214.739262 152.67817 
L 224.266642 151.423003 
L 231.725527 149.814702 
L 222.085392 146.70043 
z
" style="fill:#a0da39;fill-opacity:0.8;"/>
    <path clip-path="url(#p14eb594064)" d="M 314.105021 160.049143 
L 323.948769 160.570635 
L 330.879498 158.220657 
L 321.12665 154.022519 
z
" style="fill:#481b6d;fill-opacity:0.8;"/>
    <path clip-path="url(#p14eb594064)" d="M 171.176836 159.61059 
L 180.702034 161.115442 
L 188.092619 153.27065 
L 178.815069 156.331229 
z
" style="fill:#463480;fill-opacity:0.8;"/>
    <path clip-path="url(#p14eb594064)" d="M 287.470948 155.679476 
L 297.246805 161.781857 
L 304.348201 154.946965 
L 294.574097 157.601021 
z
" style="fill:#404588;fill-opacity:0.8;"/>
    <path clip-path="url(#p14eb594064)" d="M 250.993958 151.134433 
L 260.784403 158.112835 
L 267.971699 149.545902 
L 258.342708 152.150255 
z
" style="fill:#38b977;fill-opacity:0.8;"/>
    <path clip-path="url(#p14eb594064)" d="M 350.606811 160.868833 
L 360.542029 162.024296 
L 367.309336 159.356933 
L 357.443233 157.154082 
z
" style="fill:#46075a;fill-opacity:0.8;"/>
    <path clip-path="url(#p14eb594064)" d="M 323.948769 160.570635 
L 333.808731 162.67264 
L 340.735009 159.011275 
L 330.879498 158.220657 
z
" style="fill:#46075a;fill-opacity:0.8;"/>
    <path clip-path="url(#p14eb594064)" d="M 197.717045 156.283129 
L 207.129753 153.204817 
L 214.739262 152.67817 
L 205.09502 149.371408 
z
" style="fill:#52c569;fill-opacity:0.8;"/>
    <path clip-path="url(#p14eb594064)" d="M 224.266642 151.423003 
L 233.931897 152.914781 
L 241.354084 151.294988 
L 231.725527 149.814702 
z
" style="fill:#b8de29;fill-opacity:0.8;"/>
    <path clip-path="url(#p14eb594064)" d="M 260.784403 158.112835 
L 270.489516 156.262497 
L 277.736376 158.26583 
L 267.971699 149.545902 
z
" style="fill:#21918c;fill-opacity:0.8;"/>
    <path clip-path="url(#p14eb594064)" d="M 297.246805 161.781857 
L 307.074993 161.98039 
L 314.105021 160.049143 
L 304.348201 154.946965 
z
" style="fill:#482979;fill-opacity:0.8;"/>
    <path clip-path="url(#p14eb594064)" d="M 180.702034 161.115442 
L 189.905702 154.995694 
L 197.717045 156.283129 
L 188.092619 153.27065 
z
" style="fill:#21918c;fill-opacity:0.8;"/>
    <path clip-path="url(#p14eb594064)" d="M 360.542029 162.024296 
L 370.480292 164.250708 
L 377.326757 158.875845 
L 367.309336 159.356933 
z
" style="fill:#471164;fill-opacity:0.8;"/>
    <path clip-path="url(#p14eb594064)" d="M 270.489516 156.262497 
L 280.301032 163.260596 
L 287.470948 155.679476 
L 277.736376 158.26583 
z
" style="fill:#31668e;fill-opacity:0.8;"/>
    <path clip-path="url(#p14eb594064)" d="M 333.808731 162.67264 
L 343.72095 164.190503 
L 350.606811 160.868833 
L 340.735009 159.011275 
z
" style="fill:#450457;fill-opacity:0.8;"/>
    <path clip-path="url(#p14eb594064)" d="M 233.931897 152.914781 
L 243.69735 157.165069 
L 250.993958 151.134433 
L 241.354084 151.294988 
z
" style="fill:#a0da39;fill-opacity:0.8;"/>
    <path clip-path="url(#p14eb594064)" d="M 307.074993 161.98039 
L 316.925305 164.485612 
L 323.948769 160.570635 
L 314.105021 160.049143 
z
" style="fill:#470e61;fill-opacity:0.8;"/>
    <path clip-path="url(#p14eb594064)" d="M 207.129753 153.204817 
L 216.783091 154.704181 
L 224.266642 151.423003 
L 214.739262 152.67817 
z
" style="fill:#c2df23;fill-opacity:0.8;"/>
    <path clip-path="url(#p14eb594064)" d="M 280.301032 163.260596 
L 290.109181 163.134197 
L 297.246805 161.781857 
L 287.470948 155.679476 
z
" style="fill:#423f85;fill-opacity:0.8;"/>
    <path clip-path="url(#p14eb594064)" d="M 243.69735 157.165069 
L 253.401504 156.836917 
L 260.784403 158.112835 
L 250.993958 151.134433 
z
" style="fill:#44bf70;fill-opacity:0.8;"/>
    <path clip-path="url(#p14eb594064)" d="M 343.72095 164.190503 
L 353.675422 165.714837 
L 360.542029 162.024296 
L 350.606811 160.868833 
z
" style="fill:#450457;fill-opacity:0.8;"/>
    <path clip-path="url(#p14eb594064)" d="M 316.925305 164.485612 
L 326.826759 166.011205 
L 333.808731 162.67264 
L 323.948769 160.570635 
z
" style="fill:#46075a;fill-opacity:0.8;"/>
    <path clip-path="url(#p14eb594064)" d="M 189.905702 154.995694 
L 199.546875 156.502702 
L 207.129753 153.204817 
L 197.717045 156.283129 
z
" style="fill:#9bd93c;fill-opacity:0.8;"/>
    <path clip-path="url(#p14eb594064)" d="M 253.401504 156.836917 
L 263.256611 164.161768 
L 270.489516 156.262497 
L 260.784403 158.112835 
z
" style="fill:#21918c;fill-opacity:0.8;"/>
    <path clip-path="url(#p14eb594064)" d="M 216.783091 154.704181 
L 226.477623 156.209944 
L 233.931897 152.914781 
L 224.266642 151.423003 
z
" style="fill:#fde725;fill-opacity:0.8;"/>
    <path clip-path="url(#p14eb594064)" d="M 290.109181 163.134197 
L 299.955882 166.307818 
L 307.074993 161.98039 
L 297.246805 161.781857 
z
" style="fill:#481c6e;fill-opacity:0.8;"/>
    <path clip-path="url(#p14eb594064)" d="M 353.675422 165.714837 
L 363.694249 166.65182 
L 370.480292 164.250708 
L 360.542029 162.024296 
z
" style="fill:#46075a;fill-opacity:0.8;"/>
    <path clip-path="url(#p14eb594064)" d="M 263.256611 164.161768 
L 273.042725 163.854034 
L 280.301032 163.260596 
L 270.489516 156.262497 
z
" style="fill:#355f8d;fill-opacity:0.8;"/>
    <path clip-path="url(#p14eb594064)" d="M 326.826759 166.011205 
L 336.770527 167.543317 
L 343.72095 164.190503 
L 333.808731 162.67264 
z
" style="fill:#440154;fill-opacity:0.8;"/>
    <path clip-path="url(#p14eb594064)" d="M 226.477623 156.209944 
L 236.213613 157.722145 
L 243.69735 157.165069 
L 233.931897 152.914781 
z
" style="fill:#c2df23;fill-opacity:0.8;"/>
    <path clip-path="url(#p14eb594064)" d="M 299.955882 166.307818 
L 309.846332 167.8412 
L 316.925305 164.485612 
L 307.074993 161.98039 
z
" style="fill:#470d60;fill-opacity:0.8;"/>
    <path clip-path="url(#p14eb594064)" d="M 199.546875 156.502702 
L 209.229296 158.016157 
L 216.783091 154.704181 
L 207.129753 153.204817 
z
" style="fill:#fde725;fill-opacity:0.8;"/>
    <path clip-path="url(#p14eb594064)" d="M 273.042725 163.854034 
L 282.899803 168.139329 
L 290.109181 163.134197 
L 280.301032 163.260596 
z
" style="fill:#46327e;fill-opacity:0.8;"/>
    <path clip-path="url(#p14eb594064)" d="M 236.213613 157.722145 
L 246.085098 163.844232 
L 253.401504 156.836917 
L 243.69735 157.165069 
z
" style="fill:#52c569;fill-opacity:0.8;"/>
    <path clip-path="url(#p14eb594064)" d="M 336.770527 167.543317 
L 346.756882 169.081992 
L 353.675422 165.714837 
L 343.72095 164.190503 
z
" style="fill:#440154;fill-opacity:0.8;"/>
    <path clip-path="url(#p14eb594064)" d="M 309.846332 167.8412 
L 319.779157 169.381151 
L 326.826759 166.011205 
L 316.925305 164.485612 
z
" style="fill:#440154;fill-opacity:0.8;"/>
    <path clip-path="url(#p14eb594064)" d="M 246.085098 163.844232 
L 255.859097 163.841563 
L 263.256611 164.161768 
L 253.401504 156.836917 
z
" style="fill:#21918c;fill-opacity:0.8;"/>
    <path clip-path="url(#p14eb594064)" d="M 282.899803 168.139329 
L 292.779006 169.68056 
L 299.955882 166.307818 
L 290.109181 163.134197 
z
" style="fill:#481467;fill-opacity:0.8;"/>
    <path clip-path="url(#p14eb594064)" d="M 209.229296 158.016157 
L 218.95323 159.536102 
L 226.477623 156.209944 
L 216.783091 154.704181 
z
" style="fill:#fde725;fill-opacity:0.8;"/>
    <path clip-path="url(#p14eb594064)" d="M 346.756882 169.081992 
L 356.786098 170.62727 
L 363.694249 166.65182 
L 353.675422 165.714837 
z
" style="fill:#46075a;fill-opacity:0.8;"/>
    <path clip-path="url(#p14eb594064)" d="M 255.859097 163.841563 
L 265.756402 169.980218 
L 273.042725 163.854034 
L 263.256611 164.161768 
z
" style="fill:#38588c;fill-opacity:0.8;"/>
    <path clip-path="url(#p14eb594064)" d="M 319.779157 169.381151 
L 329.75463 170.927715 
L 336.770527 167.543317 
L 326.826759 166.011205 
z
" style="fill:#440154;fill-opacity:0.8;"/>
    <path clip-path="url(#p14eb594064)" d="M 292.779006 169.68056 
L 302.700645 171.228411 
L 309.846332 167.8412 
L 299.955882 166.307818 
z
" style="fill:#440154;fill-opacity:0.8;"/>
    <path clip-path="url(#p14eb594064)" d="M 218.95323 159.536102 
L 228.718945 161.062577 
L 236.213613 157.722145 
L 226.477623 156.209944 
z
" style="fill:#fde725;fill-opacity:0.8;"/>
    <path clip-path="url(#p14eb594064)" d="M 265.756402 169.980218 
L 275.624113 171.529357 
L 282.899803 168.139329 
L 273.042725 163.854034 
z
" style="fill:#482173;fill-opacity:0.8;"/>
    <path clip-path="url(#p14eb594064)" d="M 329.75463 170.927715 
L 339.773028 172.480934 
L 346.756882 169.081992 
L 336.770527 167.543317 
z
" style="fill:#440154;fill-opacity:0.8;"/>
    <path clip-path="url(#p14eb594064)" d="M 228.718945 161.062577 
L 238.52671 162.595625 
L 246.085098 163.844232 
L 236.213613 157.722145 
z
" style="fill:#9bd93c;fill-opacity:0.8;"/>
    <path clip-path="url(#p14eb594064)" d="M 302.700645 171.228411 
L 312.664994 172.782925 
L 319.779157 169.381151 
L 309.846332 167.8412 
z
" style="fill:#440154;fill-opacity:0.8;"/>
    <path clip-path="url(#p14eb594064)" d="M 275.624113 171.529357 
L 285.53432 173.085169 
L 292.779006 169.68056 
L 282.899803 168.139329 
z
" style="fill:#440154;fill-opacity:0.8;"/>
    <path clip-path="url(#p14eb594064)" d="M 238.52671 162.595625 
L 248.525007 171.830555 
L 255.859097 163.841563 
L 246.085098 163.844232 
z
" style="fill:#21918c;fill-opacity:0.8;"/>
    <path clip-path="url(#p14eb594064)" d="M 248.525007 171.830555 
L 258.380978 173.387665 
L 265.756402 169.980218 
L 255.859097 163.841563 
z
" style="fill:#463480;fill-opacity:0.8;"/>
    <path clip-path="url(#p14eb594064)" d="M 339.773028 172.480934 
L 349.834628 174.04085 
L 356.786098 170.62727 
L 346.756882 169.081992 
z
" style="fill:#440154;fill-opacity:0.8;"/>
    <path clip-path="url(#p14eb594064)" d="M 312.664994 172.782925 
L 322.67233 174.344145 
L 329.75463 170.927715 
L 319.779157 169.381151 
z
" style="fill:#440154;fill-opacity:0.8;"/>
    <path clip-path="url(#p14eb594064)" d="M 285.53432 173.085169 
L 295.487298 174.647695 
L 302.700645 171.228411 
L 292.779006 169.68056 
z
" style="fill:#440154;fill-opacity:0.8;"/>
    <path clip-path="url(#p14eb594064)" d="M 258.380978 173.387665 
L 268.279503 174.951498 
L 275.624113 171.529357 
L 265.756402 169.980218 
z
" style="fill:#440154;fill-opacity:0.8;"/>
    <path clip-path="url(#p14eb594064)" d="M 322.67233 174.344145 
L 332.722931 175.912115 
L 339.773028 172.480934 
L 329.75463 170.927715 
z
" style="fill:#440154;fill-opacity:0.8;"/>
    <path clip-path="url(#p14eb594064)" d="M 295.487298 174.647695 
L 305.483325 176.216979 
L 312.664994 172.782925 
L 302.700645 171.228411 
z
" style="fill:#440154;fill-opacity:0.8;"/>
    <path clip-path="url(#p14eb594064)" d="M 268.279503 174.951498 
L 278.22086 176.522098 
L 285.53432 173.085169 
L 275.624113 171.529357 
z
" style="fill:#440154;fill-opacity:0.8;"/>
    <path clip-path="url(#p14eb594064)" d="M 332.722931 175.912115 
L 342.817079 177.486879 
L 349.834628 174.04085 
L 339.773028 172.480934 
z
" style="fill:#440154;fill-opacity:0.8;"/>
    <path clip-path="url(#p14eb594064)" d="M 305.483325 176.216979 
L 315.522679 177.793065 
L 322.67233 174.344145 
L 312.664994 172.782925 
z
" style="fill:#440154;fill-opacity:0.8;"/>
    <path clip-path="url(#p14eb594064)" d="M 278.22086 176.522098 
L 288.205326 178.099508 
L 295.487298 174.647695 
L 285.53432 173.085169 
z
" style="fill:#440154;fill-opacity:0.8;"/>
    <path clip-path="url(#p14eb594064)" d="M 315.522679 177.793065 
L 325.605645 179.375998 
L 332.722931 175.912115 
L 322.67233 174.344145 
z
" style="fill:#440154;fill-opacity:0.8;"/>
    <path clip-path="url(#p14eb594064)" d="M 288.205326 178.099508 
L 298.233182 179.683774 
L 305.483325 176.216979 
L 295.487298 174.647695 
z
" style="fill:#440154;fill-opacity:0.8;"/>
    <path clip-path="url(#p14eb594064)" d="M 325.605645 179.375998 
L 335.732505 180.965822 
L 342.817079 177.486879 
L 332.722931 175.912115 
z
" style="fill:#440154;fill-opacity:0.8;"/>
    <path clip-path="url(#p14eb594064)" d="M 298.233182 179.683774 
L 308.304712 181.274939 
L 315.522679 177.793065 
L 305.483325 176.216979 
z
" style="fill:#440154;fill-opacity:0.8;"/>
    <path clip-path="url(#p14eb594064)" d="M 308.304712 181.274939 
L 318.420203 182.87305 
L 325.605645 179.375998 
L 315.522679 177.793065 
z
" style="fill:#440154;fill-opacity:0.8;"/>
    <path clip-path="url(#p14eb594064)" d="M 318.420203 182.87305 
L 328.579941 184.478151 
L 335.732505 180.965822 
L 325.605645 179.375998 
z
" style="fill:#440154;fill-opacity:0.8;"/>
   </g>
   <g id="text_23">
    <!-- 1D Diffusion -->
    <defs>
     <path d="M 19.671875 64.796875 
L 19.671875 8.109375 
L 31.59375 8.109375 
Q 46.6875 8.109375 53.6875 14.9375 
Q 60.6875 21.78125 60.6875 36.53125 
Q 60.6875 51.171875 53.6875 57.984375 
Q 46.6875 64.796875 31.59375 64.796875 
z
M 9.8125 72.90625 
L 30.078125 72.90625 
Q 51.265625 72.90625 61.171875 64.09375 
Q 71.09375 55.28125 71.09375 36.53125 
Q 71.09375 17.671875 61.125 8.828125 
Q 51.171875 0 30.078125 0 
L 9.8125 0 
z
" id="DejaVuSans-68"/>
     <path id="DejaVuSans-32"/>
     <path d="M 9.421875 54.6875 
L 18.40625 54.6875 
L 18.40625 0 
L 9.421875 0 
z
M 9.421875 75.984375 
L 18.40625 75.984375 
L 18.40625 64.59375 
L 9.421875 64.59375 
z
" id="DejaVuSans-105"/>
     <path d="M 37.109375 75.984375 
L 37.109375 68.5 
L 28.515625 68.5 
Q 23.6875 68.5 21.796875 66.546875 
Q 19.921875 64.59375 19.921875 59.515625 
L 19.921875 54.6875 
L 34.71875 54.6875 
L 34.71875 47.703125 
L 19.921875 47.703125 
L 19.921875 0 
L 10.890625 0 
L 10.890625 47.703125 
L 2.296875 47.703125 
L 2.296875 54.6875 
L 10.890625 54.6875 
L 10.890625 58.5 
Q 10.890625 67.625 15.140625 71.796875 
Q 19.390625 75.984375 28.609375 75.984375 
z
" id="DejaVuSans-102"/>
     <path d="M 8.5 21.578125 
L 8.5 54.6875 
L 17.484375 54.6875 
L 17.484375 21.921875 
Q 17.484375 14.15625 20.5 10.265625 
Q 23.53125 6.390625 29.59375 6.390625 
Q 36.859375 6.390625 41.078125 11.03125 
Q 45.3125 15.671875 45.3125 23.6875 
L 45.3125 54.6875 
L 54.296875 54.6875 
L 54.296875 0 
L 45.3125 0 
L 45.3125 8.40625 
Q 42.046875 3.421875 37.71875 1 
Q 33.40625 -1.421875 27.6875 -1.421875 
Q 18.265625 -1.421875 13.375 4.4375 
Q 8.5 10.296875 8.5 21.578125 
z
M 31.109375 56 
z
" id="DejaVuSans-117"/>
     <path d="M 44.28125 53.078125 
L 44.28125 44.578125 
Q 40.484375 46.53125 36.375 47.5 
Q 32.28125 48.484375 27.875 48.484375 
Q 21.1875 48.484375 17.84375 46.4375 
Q 14.5 44.390625 14.5 40.28125 
Q 14.5 37.15625 16.890625 35.375 
Q 19.28125 33.59375 26.515625 31.984375 
L 29.59375 31.296875 
Q 39.15625 29.25 43.1875 25.515625 
Q 47.21875 21.78125 47.21875 15.09375 
Q 47.21875 7.46875 41.1875 3.015625 
Q 35.15625 -1.421875 24.609375 -1.421875 
Q 20.21875 -1.421875 15.453125 -0.5625 
Q 10.6875 0.296875 5.421875 2 
L 5.421875 11.28125 
Q 10.40625 8.6875 15.234375 7.390625 
Q 20.0625 6.109375 24.8125 6.109375 
Q 31.15625 6.109375 34.5625 8.28125 
Q 37.984375 10.453125 37.984375 14.40625 
Q 37.984375 18.0625 35.515625 20.015625 
Q 33.0625 21.96875 24.703125 23.78125 
L 21.578125 24.515625 
Q 13.234375 26.265625 9.515625 29.90625 
Q 5.8125 33.546875 5.8125 39.890625 
Q 5.8125 47.609375 11.28125 51.796875 
Q 16.75 56 26.8125 56 
Q 31.78125 56 36.171875 55.265625 
Q 40.578125 54.546875 44.28125 53.078125 
z
" id="DejaVuSans-115"/>
     <path d="M 30.609375 48.390625 
Q 23.390625 48.390625 19.1875 42.75 
Q 14.984375 37.109375 14.984375 27.296875 
Q 14.984375 17.484375 19.15625 11.84375 
Q 23.34375 6.203125 30.609375 6.203125 
Q 37.796875 6.203125 41.984375 11.859375 
Q 46.1875 17.53125 46.1875 27.296875 
Q 46.1875 37.015625 41.984375 42.703125 
Q 37.796875 48.390625 30.609375 48.390625 
z
M 30.609375 56 
Q 42.328125 56 49.015625 48.375 
Q 55.71875 40.765625 55.71875 27.296875 
Q 55.71875 13.875 49.015625 6.21875 
Q 42.328125 -1.421875 30.609375 -1.421875 
Q 18.84375 -1.421875 12.171875 6.21875 
Q 5.515625 13.875 5.515625 27.296875 
Q 5.515625 40.765625 12.171875 48.375 
Q 18.84375 56 30.609375 56 
z
" id="DejaVuSans-111"/>
     <path d="M 54.890625 33.015625 
L 54.890625 0 
L 45.90625 0 
L 45.90625 32.71875 
Q 45.90625 40.484375 42.875 44.328125 
Q 39.84375 48.1875 33.796875 48.1875 
Q 26.515625 48.1875 22.3125 43.546875 
Q 18.109375 38.921875 18.109375 30.90625 
L 18.109375 0 
L 9.078125 0 
L 9.078125 54.6875 
L 18.109375 54.6875 
L 18.109375 46.1875 
Q 21.34375 51.125 25.703125 53.5625 
Q 30.078125 56 35.796875 56 
Q 45.21875 56 50.046875 50.171875 
Q 54.890625 44.34375 54.890625 33.015625 
z
" id="DejaVuSans-110"/>
    </defs>
    <g transform="translate(245.360625 46.431552)scale(0.12 -0.12)">
     <use xlink:href="#DejaVuSans-49"/>
     <use x="63.623047" xlink:href="#DejaVuSans-68"/>
     <use x="140.625" xlink:href="#DejaVuSans-32"/>
     <use x="172.412109" xlink:href="#DejaVuSans-68"/>
     <use x="249.414062" xlink:href="#DejaVuSans-105"/>
     <use x="277.197266" xlink:href="#DejaVuSans-102"/>
     <use x="312.402344" xlink:href="#DejaVuSans-102"/>
     <use x="347.607422" xlink:href="#DejaVuSans-117"/>
     <use x="410.986328" xlink:href="#DejaVuSans-115"/>
     <use x="463.085938" xlink:href="#DejaVuSans-105"/>
     <use x="490.869141" xlink:href="#DejaVuSans-111"/>
     <use x="552.050781" xlink:href="#DejaVuSans-110"/>
    </g>
   </g>
  </g>
 </g>
 <defs>
  <clipPath id="p14eb594064">
   <rect height="222.3144" width="426.87" x="68.85" y="34.6464"/>
  </clipPath>
 </defs>
</svg>
